<svg width="29" height="20" viewBox="0 0 29 20" fill="none" xmlns="http://www.w3.org/2000/svg">
<g clip-path="url(#clip0_108_155)">
<path d="M0.5 0H7.5L7.78875 0.4125H21.2113L21.5 0H28.5V20H21.5L21.2113 19.5875H7.78875L7.5 20H0.5V0Z" fill="#FF0000"/>
<path d="M7.5 -7H21.5V27H7.5V-7ZM14.7625 15.9208L14.6312 13.4038C14.6293 13.3624 14.6367 13.3211 14.6529 13.2829C14.6691 13.2447 14.6936 13.2107 14.7247 13.1833C14.7557 13.1559 14.7925 13.1357 14.8324 13.1244C14.8723 13.1131 14.9142 13.1109 14.955 13.1179L17.4604 13.5583L17.1221 12.625C17.1084 12.5879 17.1066 12.5474 17.1171 12.5092C17.1275 12.471 17.1497 12.437 17.1804 12.4121L19.925 10.1896L19.3067 9.90083C19.2649 9.8811 19.2318 9.8468 19.2135 9.80437C19.1953 9.76194 19.1931 9.71431 19.2075 9.67042L19.75 8.00208L18.1692 8.3375C18.1263 8.34643 18.0817 8.34027 18.0429 8.32007C18.0041 8.29987 17.9735 8.26687 17.9563 8.22667L17.65 7.50625L16.4163 8.83042C16.388 8.86017 16.3509 8.87998 16.3105 8.88687C16.2701 8.89376 16.2285 8.88736 16.1921 8.86863C16.1556 8.8499 16.1262 8.81985 16.1082 8.78298C16.0903 8.74612 16.0848 8.70443 16.0925 8.66417L16.6875 5.59583L15.7338 6.14708C15.7114 6.16021 15.6865 6.16859 15.6607 6.17172C15.635 6.17485 15.6088 6.17266 15.584 6.16527C15.5591 6.15789 15.536 6.14548 15.5161 6.1288C15.4962 6.11213 15.4799 6.09155 15.4683 6.06833L14.5 4.16667L13.5317 6.06833C13.5201 6.09155 13.5038 6.11213 13.4839 6.1288C13.464 6.14548 13.4409 6.15789 13.416 6.16527C13.3912 6.17266 13.365 6.17485 13.3393 6.17172C13.3135 6.16859 13.2886 6.16021 13.2663 6.14708L12.3125 5.59583L12.9075 8.66417C12.9152 8.70443 12.9097 8.74612 12.8918 8.78298C12.8738 8.81985 12.8444 8.8499 12.8079 8.86863C12.7715 8.88736 12.7299 8.89376 12.6895 8.88687C12.6491 8.87998 12.612 8.86017 12.5838 8.83042L11.35 7.50625L11.0438 8.22667C11.0265 8.26687 10.9959 8.29987 10.9571 8.32007C10.9183 8.34027 10.8737 8.34643 10.8308 8.3375L9.25 8.00208L9.7925 9.67042C9.80688 9.71431 9.80473 9.76194 9.78647 9.80437C9.76821 9.8468 9.73509 9.8811 9.69333 9.90083L9.075 10.1896L11.8196 12.4121C11.8503 12.437 11.8725 12.471 11.8829 12.5092C11.8934 12.5474 11.8916 12.5879 11.8779 12.625L11.5396 13.5583L14.045 13.1179C14.0858 13.1109 14.1277 13.1131 14.1676 13.1244C14.2075 13.1357 14.2443 13.1559 14.2753 13.1833C14.3064 13.2107 14.3309 13.2447 14.3471 13.2829C14.3633 13.3211 14.3707 13.3624 14.3688 13.4038L14.2375 15.9208H14.7625Z" fill="white"/>
</g>
<defs>
<clipPath id="clip0_108_155">
<rect x="0.5" width="28" height="20" rx="2" fill="white"/>
</clipPath>
</defs>
</svg>
