<svg width="29" height="20" viewBox="0 0 29 20" fill="none" xmlns="http://www.w3.org/2000/svg">
<rect x="0.75" y="0.25" width="27.5" height="19.5" rx="1.75" fill="#F8F8F8" stroke="#F8F8F8" stroke-width="0.5"/>
<mask id="mask0_14_171" style="mask-type:luminance" maskUnits="userSpaceOnUse" x="0" y="0" width="29" height="20">
<rect x="0.75" y="0.25" width="27.5" height="19.5" rx="1.75" fill="white" stroke="white" stroke-width="0.5"/>
</mask>
<g mask="url(#mask0_14_171)">
<path fill-rule="evenodd" clip-rule="evenodd" d="M14.5 14.6667C17.0773 14.6667 19.1667 12.5774 19.1667 10C19.1667 7.42271 17.0773 5.33337 14.5 5.33337C11.9227 5.33337 9.83333 7.42271 9.83333 10C9.83333 12.5774 11.9227 14.6667 14.5 14.6667Z" fill="#E01B41"/>
<mask id="mask1_14_171" style="mask-type:luminance" maskUnits="userSpaceOnUse" x="9" y="5" width="11" height="10">
<path fill-rule="evenodd" clip-rule="evenodd" d="M14.5 14.6667C17.0773 14.6667 19.1667 12.5774 19.1667 10C19.1667 7.42271 17.0773 5.33337 14.5 5.33337C11.9227 5.33337 9.83333 7.42271 9.83333 10C9.83333 12.5774 11.9227 14.6667 14.5 14.6667Z" fill="white"/>
</mask>
<g mask="url(#mask1_14_171)">
<path fill-rule="evenodd" clip-rule="evenodd" d="M9.83333 10.6667C11.1667 11.9167 13.1667 12.6667 14.5 10.6667C15.8333 8.66675 18.5 8.66675 19.1667 10.6667C19.8333 12.6667 19.1667 14.6667 19.1667 14.6667H9.83333C9.83333 14.6667 8.5 9.41675 9.83333 10.6667Z" fill="#0E4B9C"/>
</g>
<path opacity="0.75" fill-rule="evenodd" clip-rule="evenodd" d="M6.67308 3.55661C6.76513 3.39718 6.96899 3.34256 7.12842 3.43461L7.70577 3.76794C7.8652 3.85999 7.91983 4.06385 7.82778 4.22328L6.16111 7.11003C6.06907 7.26946 5.8652 7.32409 5.70577 7.23204L5.12842 6.89871C4.96899 6.80666 4.91437 6.6028 5.00641 6.44337L6.67308 3.55661ZM21.2942 3.76794C21.1348 3.85999 21.0802 4.06385 21.1722 4.22328L22.8389 7.11003C22.9309 7.26946 23.1348 7.32409 23.2942 7.23204L23.8716 6.89871C24.031 6.80666 24.0856 6.6028 23.9936 6.44337L22.3269 3.55661C22.2349 3.39718 22.031 3.34256 21.8716 3.43461L21.2942 3.76794ZM19.5622 4.76794C19.4027 4.85999 19.3481 5.06385 19.4402 5.22328L21.1068 8.11003C21.1989 8.26946 21.4027 8.32409 21.5622 8.23204L22.1395 7.89871C22.299 7.80666 22.3536 7.6028 22.2615 7.44337L20.5949 4.55661C20.5028 4.39718 20.299 4.34256 20.1395 4.43461L19.5622 4.76794ZM5.00641 13.5566C4.91437 13.3972 4.96899 13.1933 5.12842 13.1013L5.70577 12.7679C5.8652 12.6759 6.06907 12.7305 6.16111 12.8899L7.82778 15.7767C7.91983 15.9361 7.8652 16.14 7.70577 16.232L7.12842 16.5654C6.96899 16.6574 6.76513 16.6028 6.67308 16.4434L5.00641 13.5566ZM6.86047 12.1013C6.70104 12.1933 6.64642 12.3972 6.73847 12.5566L8.40513 15.4434C8.49718 15.6028 8.70104 15.6574 8.86047 15.5654L9.43782 15.232C9.59725 15.14 9.65188 14.9361 9.55983 14.7767L7.89317 11.8899C7.80112 11.7305 7.59725 11.6759 7.43782 11.7679L6.86047 12.1013ZM21.1068 11.8899C21.1989 11.7305 21.4027 11.6759 21.5622 11.7679L22.1395 12.1013C22.299 12.1933 22.3536 12.3972 22.2615 12.5566L20.5949 15.4434C20.5028 15.6028 20.299 15.6574 20.1395 15.5654L19.5622 15.232C19.4027 15.14 19.3481 14.9361 19.4402 14.7767L21.1068 11.8899ZM23.2942 12.7679C23.1348 12.6759 22.9309 12.7305 22.8389 12.8899L21.1722 15.7767C21.0802 15.9361 21.1348 16.14 21.2942 16.232L21.8716 16.5654C22.031 16.6574 22.2349 16.6028 22.3269 16.4434L23.9936 13.5566C24.0856 13.3972 24.031 13.1933 23.8716 13.1013L23.2942 12.7679ZM8.86047 4.43461C8.70104 4.34256 8.49718 4.39718 8.40513 4.55661L6.73846 7.44337C6.64642 7.6028 6.70104 7.80666 6.86047 7.89871L7.43782 8.23204C7.59725 8.32409 7.80112 8.26946 7.89317 8.11003L9.55983 5.22328C9.65188 5.06385 9.59725 4.85999 9.43782 4.76794L8.86047 4.43461Z" fill="#262626"/>
</g>
</svg>
