<svg width="29" height="20" viewBox="0 0 29 20" fill="none" xmlns="http://www.w3.org/2000/svg">
<rect x="0.5" width="28" height="20" rx="2" fill="white"/>
<mask id="mask0_106_122" style="mask-type:luminance" maskUnits="userSpaceOnUse" x="0" y="0" width="29" height="20">
<rect x="0.5" width="28" height="20" rx="2" fill="white"/>
</mask>
<g mask="url(#mask0_106_122)">
<path fill-rule="evenodd" clip-rule="evenodd" d="M28.5 0H0.5V1.33333H28.5V0ZM28.5 2.66667H0.5V4H28.5V2.66667ZM0.5 5.33333H28.5V6.66667H0.5V5.33333ZM28.5 8H0.5V9.33333H28.5V8ZM0.5 10.6667H28.5V12H0.5V10.6667ZM28.5 13.3333H0.5V14.6667H28.5V13.3333ZM0.5 16H28.5V17.3333H0.5V16ZM28.5 18.6667H0.5V20H28.5V18.6667Z" fill="#D02F44"/>
<rect x="0.5" width="12" height="9.33333" fill="#46467F"/>
<g filter="url(#filter0_d_106_122)">
<path fill-rule="evenodd" clip-rule="evenodd" d="M3.16667 2.00004C3.16667 2.36823 2.86819 2.66671 2.5 2.66671C2.13181 2.66671 1.83333 2.36823 1.83333 2.00004C1.83333 1.63185 2.13181 1.33337 2.5 1.33337C2.86819 1.33337 3.16667 1.63185 3.16667 2.00004ZM5.83333 2.00004C5.83333 2.36823 5.53486 2.66671 5.16667 2.66671C4.79848 2.66671 4.5 2.36823 4.5 2.00004C4.5 1.63185 4.79848 1.33337 5.16667 1.33337C5.53486 1.33337 5.83333 1.63185 5.83333 2.00004ZM7.83333 2.66671C8.20152 2.66671 8.5 2.36823 8.5 2.00004C8.5 1.63185 8.20152 1.33337 7.83333 1.33337C7.46514 1.33337 7.16667 1.63185 7.16667 2.00004C7.16667 2.36823 7.46514 2.66671 7.83333 2.66671ZM11.1667 2.00004C11.1667 2.36823 10.8682 2.66671 10.5 2.66671C10.1318 2.66671 9.83333 2.36823 9.83333 2.00004C9.83333 1.63185 10.1318 1.33337 10.5 1.33337C10.8682 1.33337 11.1667 1.63185 11.1667 2.00004ZM3.83333 4.00004C4.20152 4.00004 4.5 3.70156 4.5 3.33337C4.5 2.96518 4.20152 2.66671 3.83333 2.66671C3.46514 2.66671 3.16667 2.96518 3.16667 3.33337C3.16667 3.70156 3.46514 4.00004 3.83333 4.00004ZM7.16667 3.33337C7.16667 3.70156 6.86819 4.00004 6.5 4.00004C6.13181 4.00004 5.83333 3.70156 5.83333 3.33337C5.83333 2.96518 6.13181 2.66671 6.5 2.66671C6.86819 2.66671 7.16667 2.96518 7.16667 3.33337ZM9.16667 4.00004C9.53485 4.00004 9.83333 3.70156 9.83333 3.33337C9.83333 2.96518 9.53485 2.66671 9.16667 2.66671C8.79848 2.66671 8.5 2.96518 8.5 3.33337C8.5 3.70156 8.79848 4.00004 9.16667 4.00004ZM11.1667 4.66671C11.1667 5.0349 10.8682 5.33337 10.5 5.33337C10.1318 5.33337 9.83333 5.0349 9.83333 4.66671C9.83333 4.29852 10.1318 4.00004 10.5 4.00004C10.8682 4.00004 11.1667 4.29852 11.1667 4.66671ZM7.83333 5.33337C8.20152 5.33337 8.5 5.0349 8.5 4.66671C8.5 4.29852 8.20152 4.00004 7.83333 4.00004C7.46514 4.00004 7.16667 4.29852 7.16667 4.66671C7.16667 5.0349 7.46514 5.33337 7.83333 5.33337ZM5.83333 4.66671C5.83333 5.0349 5.53486 5.33337 5.16667 5.33337C4.79848 5.33337 4.5 5.0349 4.5 4.66671C4.5 4.29852 4.79848 4.00004 5.16667 4.00004C5.53486 4.00004 5.83333 4.29852 5.83333 4.66671ZM2.5 5.33337C2.86819 5.33337 3.16667 5.0349 3.16667 4.66671C3.16667 4.29852 2.86819 4.00004 2.5 4.00004C2.13181 4.00004 1.83333 4.29852 1.83333 4.66671C1.83333 5.0349 2.13181 5.33337 2.5 5.33337ZM4.5 6.00004C4.5 6.36823 4.20152 6.66671 3.83333 6.66671C3.46514 6.66671 3.16667 6.36823 3.16667 6.00004C3.16667 5.63185 3.46514 5.33337 3.83333 5.33337C4.20152 5.33337 4.5 5.63185 4.5 6.00004ZM6.5 6.66671C6.86819 6.66671 7.16667 6.36823 7.16667 6.00004C7.16667 5.63185 6.86819 5.33337 6.5 5.33337C6.13181 5.33337 5.83333 5.63185 5.83333 6.00004C5.83333 6.36823 6.13181 6.66671 6.5 6.66671ZM9.83333 6.00004C9.83333 6.36823 9.53485 6.66671 9.16667 6.66671C8.79848 6.66671 8.5 6.36823 8.5 6.00004C8.5 5.63185 8.79848 5.33337 9.16667 5.33337C9.53485 5.33337 9.83333 5.63185 9.83333 6.00004ZM10.5 8.00004C10.8682 8.00004 11.1667 7.70156 11.1667 7.33337C11.1667 6.96518 10.8682 6.66671 10.5 6.66671C10.1318 6.66671 9.83333 6.96518 9.83333 7.33337C9.83333 7.70156 10.1318 8.00004 10.5 8.00004ZM8.5 7.33337C8.5 7.70156 8.20152 8.00004 7.83333 8.00004C7.46514 8.00004 7.16667 7.70156 7.16667 7.33337C7.16667 6.96518 7.46514 6.66671 7.83333 6.66671C8.20152 6.66671 8.5 6.96518 8.5 7.33337ZM5.16667 8.00004C5.53486 8.00004 5.83333 7.70156 5.83333 7.33337C5.83333 6.96518 5.53486 6.66671 5.16667 6.66671C4.79848 6.66671 4.5 6.96518 4.5 7.33337C4.5 7.70156 4.79848 8.00004 5.16667 8.00004ZM3.16667 7.33337C3.16667 7.70156 2.86819 8.00004 2.5 8.00004C2.13181 8.00004 1.83333 7.70156 1.83333 7.33337C1.83333 6.96518 2.13181 6.66671 2.5 6.66671C2.86819 6.66671 3.16667 6.96518 3.16667 7.33337Z" fill="url(#paint0_linear_106_122)"/>
</g>
</g>
<defs>
<filter id="filter0_d_106_122" x="1.83333" y="1.33337" width="9.33333" height="7.66663" filterUnits="userSpaceOnUse" color-interpolation-filters="sRGB">
<feFlood flood-opacity="0" result="BackgroundImageFix"/>
<feColorMatrix in="SourceAlpha" type="matrix" values="0 0 0 0 0 0 0 0 0 0 0 0 0 0 0 0 0 0 127 0" result="hardAlpha"/>
<feOffset dy="1"/>
<feColorMatrix type="matrix" values="0 0 0 0 0 0 0 0 0 0 0 0 0 0 0 0 0 0 0.06 0"/>
<feBlend mode="normal" in2="BackgroundImageFix" result="effect1_dropShadow_106_122"/>
<feBlend mode="normal" in="SourceGraphic" in2="effect1_dropShadow_106_122" result="shape"/>
</filter>
<linearGradient id="paint0_linear_106_122" x1="1.83333" y1="1.33337" x2="1.83333" y2="8.00004" gradientUnits="userSpaceOnUse">
<stop stop-color="white"/>
<stop offset="1" stop-color="#F0F0F0"/>
</linearGradient>
</defs>
</svg>
