<svg width="104" height="105" viewBox="0 0 104 105" fill="none" xmlns="http://www.w3.org/2000/svg">
<path fill-rule="evenodd" clip-rule="evenodd" d="M30.063 25.7841C30.37 25.3573 30.711 24.8348 31.1458 24.1302C31.3047 23.8728 31.7378 23.1582 32.0604 22.626L32.0604 22.626C32.2325 22.342 32.3732 22.1099 32.4237 22.0272C36.016 16.1511 38.6273 13.4541 43.3359 13.4541H65.0026V22.1208H43.3359C42.9601 22.1208 41.7781 23.3416 39.8181 26.5477C39.7777 26.6138 39.6569 26.813 39.5028 27.0674L39.5026 27.0677C39.1774 27.6043 38.7036 28.3861 38.521 28.6818C37.9883 29.5451 37.5455 30.2236 37.0986 30.8449C35.1562 33.5452 33.2148 35.1208 30.3359 35.1208H17.3359C14.9427 35.1208 13.0026 37.0609 13.0026 39.4541V78.4541C13.0026 80.8473 14.9427 82.7874 17.3359 82.7874H86.6693C89.0625 82.7874 91.0026 80.8473 91.0026 78.4541V52.4541H99.6693V78.4541C99.6693 85.6338 93.849 91.4541 86.6693 91.4541H17.3359C10.1562 91.4541 4.33594 85.6338 4.33594 78.4541V39.4541C4.33594 32.2744 10.1562 26.4541 17.3359 26.4541H29.5395C29.6837 26.2892 29.8606 26.0655 30.063 25.7841ZM73.6719 35.1208V26.4541H82.3359V17.7871H91.0026V26.4541H99.6719V35.1208H91.0026V43.7871H82.3359V35.1208H73.6719ZM52.0026 78.4544C40.0364 78.4544 30.3359 68.7539 30.3359 56.7878C30.3359 44.8216 40.0364 35.1211 52.0026 35.1211C63.9688 35.1211 73.6693 44.8216 73.6693 56.7878C73.6693 68.7539 63.9688 78.4544 52.0026 78.4544ZM52 69.7871C59.1797 69.7871 65 63.9668 65 56.7871C65 49.6074 59.1797 43.7871 52 43.7871C44.8203 43.7871 39 49.6074 39 56.7871C39 63.9668 44.8203 69.7871 52 69.7871Z" fill="#252525"/>
</svg>
