<svg width="69" height="69" viewBox="0 0 69 69" fill="none" xmlns="http://www.w3.org/2000/svg">
  <path d="M31 34.5L40.4671 43.9671L37.8154 46.6187L25.6967 34.5L37.8154 22.3813L40.4671 25.0329L31 34.5Z" fill="#F8F8F8" />
  <path fill-rule="evenodd" clip-rule="evenodd" d="M34.5 65.125C17.5863 65.125 3.875 51.4137 3.875 34.5C3.875 17.5863 17.5863 3.875 34.5 3.875C51.4137 3.875 65.125 17.5863 65.125 34.5C65.125 51.4137 51.4137 65.125 34.5 65.125ZM34.5 61.375C49.3427 61.375 61.375 49.3427 61.375 34.5C61.375 19.6573 49.3427 7.625 34.5 7.625C19.6573 7.625 7.625 19.6573 7.625 34.5C7.625 49.3427 19.6573 61.375 34.5 61.375Z" fill="#F8F8F8" />
</svg>