<svg width="62" height="63" viewBox="0 0 62 63" fill="none" xmlns="http://www.w3.org/2000/svg">
<path d="M26.3958 31.458L35.8629 40.9251L33.2112 43.5767L21.0925 31.458L33.2112 19.3393L35.8629 21.9909L26.3958 31.458Z" fill="white"/>
<path fill-rule="evenodd" clip-rule="evenodd" d="M31.3691 62.083C14.4554 62.083 0.744141 48.3717 0.744141 31.458C0.744141 14.5443 14.4554 0.833008 31.3691 0.833008C48.2829 0.833008 61.9941 14.5443 61.9941 31.458C61.9941 48.3717 48.2829 62.083 31.3691 62.083ZM31.3691 58.333C46.2118 58.333 58.2441 46.3007 58.2441 31.458C58.2441 16.6154 46.2118 4.58301 31.3691 4.58301C16.5265 4.58301 4.49414 16.6154 4.49414 31.458C4.49414 46.3007 16.5265 58.333 31.3691 58.333Z" fill="white"/>
</svg>
