<svg width="65" height="65" viewBox="0 0 65 65" fill="none" xmlns="http://www.w3.org/2000/svg">
<mask id="path-1-inside-1_2111_324" fill="white">
<path fill-rule="evenodd" clip-rule="evenodd" d="M32.625 0.101562C50.2981 0.101562 64.625 14.4284 64.625 32.1016C64.625 49.7747 50.2981 64.1016 32.625 64.1016C14.9519 64.1016 0.625 49.7747 0.625 32.1016C0.625 14.4284 14.9519 0.101562 32.625 0.101562ZM32.6249 5.91974C18.1651 5.91974 6.44312 17.6417 6.44312 32.1016C6.44312 46.5614 18.1651 58.2834 32.6249 58.2834C47.0848 58.2834 58.8068 46.5614 58.8068 32.1016C58.8068 17.6417 47.0848 5.91974 32.6249 5.91974ZM31.773 18.4082L27.659 22.5222L37.2383 32.1016L27.659 41.6809L31.773 45.795L45.4664 32.1016L31.773 18.4082Z"/>
</mask>
<path fill-rule="evenodd" clip-rule="evenodd" d="M32.625 0.101562C50.2981 0.101562 64.625 14.4284 64.625 32.1016C64.625 49.7747 50.2981 64.1016 32.625 64.1016C14.9519 64.1016 0.625 49.7747 0.625 32.1016C0.625 14.4284 14.9519 0.101562 32.625 0.101562ZM32.6249 5.91974C18.1651 5.91974 6.44312 17.6417 6.44312 32.1016C6.44312 46.5614 18.1651 58.2834 32.6249 58.2834C47.0848 58.2834 58.8068 46.5614 58.8068 32.1016C58.8068 17.6417 47.0848 5.91974 32.6249 5.91974ZM31.773 18.4082L27.659 22.5222L37.2383 32.1016L27.659 41.6809L31.773 45.795L45.4664 32.1016L31.773 18.4082Z" fill="#252525"/>
<path d="M27.659 22.5222L26.9518 21.8151L26.2447 22.5222L26.9518 23.2293L27.659 22.5222ZM31.773 18.4082L32.4801 17.7011L31.773 16.9939L31.0659 17.7011L31.773 18.4082ZM37.2383 32.1016L37.9454 32.8087L38.6525 32.1016L37.9454 31.3945L37.2383 32.1016ZM27.659 41.6809L26.9518 40.9738L26.2447 41.6809L26.9518 42.388L27.659 41.6809ZM31.773 45.795L31.0659 46.5021L31.773 47.2092L32.4801 46.5021L31.773 45.795ZM45.4664 32.1016L46.1735 32.8087L46.8806 32.1016L46.1735 31.3945L45.4664 32.1016ZM65.625 32.1016C65.625 13.8762 50.8504 -0.898438 32.625 -0.898438V1.10156C49.7458 1.10156 63.625 14.9807 63.625 32.1016H65.625ZM32.625 65.1016C50.8504 65.1016 65.625 50.327 65.625 32.1016H63.625C63.625 49.2224 49.7458 63.1016 32.625 63.1016V65.1016ZM-0.375 32.1016C-0.375 50.327 14.3996 65.1016 32.625 65.1016V63.1016C15.5042 63.1016 1.625 49.2224 1.625 32.1016H-0.375ZM32.625 -0.898438C14.3996 -0.898438 -0.375 13.8762 -0.375 32.1016H1.625C1.625 14.9807 15.5042 1.10156 32.625 1.10156V-0.898438ZM7.44312 32.1016C7.44312 18.194 18.7174 6.91974 32.6249 6.91974V4.91974C17.6128 4.91974 5.44312 17.0895 5.44312 32.1016H7.44312ZM32.6249 57.2834C18.7174 57.2834 7.44312 46.0091 7.44312 32.1016H5.44312C5.44312 47.1137 17.6128 59.2834 32.6249 59.2834V57.2834ZM57.8068 32.1016C57.8068 46.0091 46.5325 57.2834 32.6249 57.2834V59.2834C47.637 59.2834 59.8068 47.1137 59.8068 32.1016H57.8068ZM32.6249 6.91974C46.5325 6.91974 57.8068 18.194 57.8068 32.1016H59.8068C59.8068 17.0895 47.637 4.91974 32.6249 4.91974V6.91974ZM28.3661 23.2293L32.4801 19.1153L31.0659 17.7011L26.9518 21.8151L28.3661 23.2293ZM37.9454 31.3945L28.3661 21.8151L26.9518 23.2293L36.5312 32.8087L37.9454 31.3945ZM28.3661 42.388L37.9454 32.8087L36.5312 31.3945L26.9518 40.9738L28.3661 42.388ZM32.4801 45.0879L28.3661 40.9738L26.9518 42.388L31.0659 46.5021L32.4801 45.0879ZM44.7593 31.3945L31.0659 45.0879L32.4801 46.5021L46.1735 32.8087L44.7593 31.3945ZM31.0659 19.1153L44.7593 32.8087L46.1735 31.3945L32.4801 17.7011L31.0659 19.1153Z" fill="white" mask="url(#path-1-inside-1_2111_324)"/>
</svg>
