<svg width="76" height="87" viewBox="0 0 76 87" fill="none" xmlns="http://www.w3.org/2000/svg">
<path d="M38.0162 0.03125C17.5264 0.03125 0.761963 16.4852 0.761963 36.9751V47.8409C0.761963 48.1514 0.761963 48.1514 0.761963 48.4618C0.761963 48.7723 0.761963 49.3932 0.761963 49.7036C0.761963 58.3963 7.59191 65.2262 16.2846 65.2262C18.1473 65.2262 19.3891 63.9844 19.3891 62.1217V37.2855C19.3891 35.4228 18.1473 34.181 16.2846 34.181C12.8696 34.181 9.45463 35.4228 6.97101 37.2855V36.6646C6.97101 19.9002 20.9414 6.2403 38.0162 6.2403C55.0911 6.2403 69.0615 19.9002 69.0615 36.9751V37.2855C66.5779 35.4228 63.1629 34.181 59.7479 34.181C57.8852 34.181 56.6434 35.4228 56.6434 37.2855V62.1217C56.6434 63.9844 57.8852 65.2262 59.7479 65.2262C61.9211 65.2262 64.0942 64.6053 65.957 63.9844C62.8524 70.5039 57.2643 75.4712 50.4343 78.2652C50.4343 77.9548 50.4343 77.9548 50.4343 77.6443C50.4343 75.7816 49.1925 74.5398 47.3298 74.5398H38.0162C36.1535 74.5398 34.9117 75.7816 34.9117 77.6443V83.8534C34.9117 85.7161 36.1535 86.9579 38.0162 86.9579C58.5061 86.9579 75.2705 70.8144 75.2705 50.9454V47.8409V40.39V36.9751C75.2705 16.4852 58.5061 0.03125 38.0162 0.03125Z" fill="white"/>
</svg>
