<svg width="40" height="41" viewBox="0 0 40 41" fill="none" xmlns="http://www.w3.org/2000/svg">
<path d="M7.30464 32.8535C6.45314 32.002 6.45314 30.6215 7.30464 29.77L28.8896 8.18501C29.7411 7.33351 31.1216 7.33351 31.9731 8.18501C32.8246 9.03652 32.8246 10.4171 31.9731 11.2686L10.3882 32.8535C9.5367 33.705 8.15614 33.705 7.30464 32.8535Z" fill="#B93229"/>
<path d="M7.70973 8.43294C8.56124 7.58144 9.94179 7.58144 10.7933 8.43294L32.3782 30.0179C33.2297 30.8694 33.2297 32.2499 32.3782 33.1014C31.5267 33.953 30.1462 33.953 29.2947 33.1014L7.70973 11.5165C6.85823 10.665 6.85823 9.28445 7.70973 8.43294Z" fill="#B93229"/>
</svg>
