<svg width="2466" height="61" viewBox="0 0 2466 61" fill="none" xmlns="http://www.w3.org/2000/svg">
<g clip-path="url(#clip0_19_170)">
<path d="M60.3106 11.0461C43.7415 11.0461 30.2223 19.6966 30.2223 30.3101C30.2223 40.9237 43.7415 49.5742 60.3106 49.5742C76.8797 49.5742 90.3989 40.9237 90.3989 30.3101C90.3989 19.6966 76.8797 11.0461 60.3106 11.0461ZM68.6395 14.6172C71.3012 15.1274 73.7966 15.8815 76.0368 16.8353C77.9666 17.8334 79.0978 19.009 79.0978 20.2844C79.0978 22.8574 74.4842 25.0866 67.8965 26.0625C67.4418 21.094 66.2218 16.8464 64.5804 14.1292C66 14.2401 67.353 14.4065 68.6395 14.6172ZM60.3106 13.9629C62.806 13.9629 64.902 19.253 65.4898 26.362C63.8374 26.5172 62.1073 26.6059 60.3106 26.6059C58.514 26.6059 56.7728 26.5172 55.1314 26.362C55.7192 19.2419 57.8264 13.9629 60.3106 13.9629ZM44.5844 16.8353C46.8247 15.8815 49.32 15.1384 51.9817 14.6172C53.2571 14.4065 54.6212 14.2401 56.0408 14.1292C54.3994 16.8464 53.1795 21.1051 52.7248 26.0625C46.137 25.0755 41.5234 22.8574 41.5234 20.2844C41.5234 19.009 42.6547 17.8223 44.5844 16.8353ZM32.8951 30.3101C32.8951 26.4396 35.1353 22.8796 38.8728 20.0626C38.8617 20.1957 38.8506 20.3288 38.8506 20.4619C38.8506 24.2437 44.5511 27.4932 52.5584 28.7908C52.5362 29.3342 52.5362 29.8776 52.5362 30.4321C52.5362 37.1308 53.8893 43.053 55.9521 46.5687C42.9097 45.3155 32.8951 38.4949 32.8951 30.3101ZM60.976 46.7794H59.6452C57.0057 45.7702 54.9539 38.8165 54.9539 30.4321C54.9539 29.9885 54.965 29.556 54.9761 29.1235C56.684 29.3009 58.4696 29.4007 60.3106 29.4007C62.1516 29.4007 63.9372 29.3009 65.6451 29.1235C65.6562 29.556 65.6673 29.9996 65.6673 30.4321C65.6562 38.8165 63.6045 45.7702 60.976 46.7794ZM64.6692 46.5798C66.732 43.0641 68.085 37.1418 68.085 30.4432C68.085 29.8887 68.0739 29.3453 68.0628 28.8019C76.0701 27.5043 81.7706 24.2548 81.7706 20.4729C81.7706 20.3399 81.7595 20.2068 81.7484 20.0737C85.4859 22.8907 87.7261 26.4507 87.7261 30.3212C87.7261 38.4949 77.7115 45.3155 64.6692 46.5798Z" fill="#919191"/>
</g>
<path d="M227.407 18.805C220.864 16.8142 212.625 15.4494 203.514 14.9921C201.381 14.8866 199.2 14.8303 196.991 14.8233H196.458C194.243 14.8303 192.069 14.8866 189.936 14.9921C180.825 15.4494 172.586 16.8071 166.043 18.805C156.668 21.6541 150.776 25.7905 150.776 30.3913C150.776 34.2886 155.006 37.8482 161.992 40.5847C164.831 41.6891 168.12 42.667 171.769 43.4619C174.739 44.1161 177.945 44.6508 181.33 45.0588C186.142 45.6357 191.328 45.9522 196.728 45.9522C202.129 45.9522 207.308 45.6357 212.127 45.0588C215.519 44.6508 218.718 44.1091 221.688 43.4619C225.337 42.6599 228.626 41.6891 231.464 40.5847C238.45 37.8552 242.681 34.2886 242.681 30.3913C242.674 25.7905 236.782 21.6541 227.407 18.805ZM169.851 34.7951C167.94 36.202 165.427 36.4834 163.273 35.4915C159.237 33.6343 156.897 31.4113 156.897 29.0336C156.897 26.0438 160.587 23.3143 166.68 21.225C173.292 18.9598 182.743 17.4473 193.37 17.18C193.516 17.1729 193.654 17.1729 193.793 17.1729C194.437 17.1589 195.074 17.1518 195.724 17.1448C195.288 17.2151 194.873 17.3277 194.471 17.4754C194.464 17.4754 194.457 17.4754 194.457 17.4825C194.326 17.5387 194.187 17.588 194.063 17.6513C194.056 17.6443 194.049 17.6443 194.042 17.6372C192.45 18.2844 190.289 19.7758 189.59 20.2682L189.472 20.3526C189.403 20.4019 189.362 20.43 189.362 20.43L172.364 32.9308L169.851 34.7951ZM212.805 39.9093C207.889 40.5565 202.447 40.9224 196.728 40.9224C191.009 40.9224 185.567 40.5636 180.652 39.9093C176.158 39.0863 178.325 35.991 179.502 34.6614C179.516 34.6473 179.523 34.6333 179.537 34.6192C179.821 34.2956 180.042 34.0916 180.084 34.0564C180.091 34.0494 180.091 34.0494 180.091 34.0494C180.852 33.2615 181.635 32.4806 182.431 31.6998C185.062 29.118 187.721 26.7121 190.359 24.5032C191.176 23.8208 191.993 23.1525 192.803 22.5053C192.803 22.5053 192.803 22.5053 192.81 22.4983C192.816 22.4912 192.816 22.4912 192.823 22.4842C192.865 22.449 192.948 22.3787 193.073 22.2872C193.696 21.8159 195.288 20.7325 196.721 20.7396C198.155 20.7325 199.747 21.8159 200.37 22.2872C200.405 22.3083 200.432 22.3294 200.453 22.3505C200.481 22.3716 200.509 22.3927 200.523 22.4068C200.557 22.4279 200.578 22.456 200.599 22.4701C200.613 22.4772 200.619 22.4842 200.626 22.4912C200.633 22.4983 200.64 22.5053 200.64 22.5053C201.45 23.1525 202.267 23.8208 203.091 24.5032C205.729 26.7121 208.388 29.118 211.019 31.6998C211.815 32.4806 212.597 33.2615 213.359 34.0494C213.359 34.0494 213.359 34.0494 213.366 34.0564C213.373 34.0634 213.38 34.0705 213.387 34.0775C213.456 34.1408 213.657 34.3378 213.899 34.6122C215.076 35.9206 217.347 39.0792 212.805 39.9093ZM230.176 35.4915C228.023 36.4834 225.51 36.202 223.599 34.7951L221.072 32.9379L204.074 20.4371C204.074 20.4371 204.054 20.423 204.019 20.3949L203.97 20.3526L203.853 20.2682C203.153 19.7758 201 18.2844 199.401 17.6372C199.394 17.6443 199.387 17.6443 199.38 17.6513C199.255 17.595 199.124 17.5387 198.999 17.4895C198.985 17.4825 198.979 17.4825 198.972 17.4754C198.57 17.3207 198.155 17.2081 197.725 17.1448C198.376 17.1518 199.013 17.1589 199.657 17.1729C199.802 17.1729 199.941 17.18 200.079 17.18C210.714 17.4402 220.158 18.9527 226.77 21.225C232.863 23.3143 236.553 26.0438 236.553 29.0336C236.553 31.4113 234.206 33.6343 230.176 35.4915Z" fill="#919191"/>
<path d="M382.541 29.0315C382.399 28.3679 382.156 27.7044 381.812 27.0478C381.323 26.1174 380.634 25.2033 379.75 24.3147C376.919 21.5399 373.251 19.6978 369.588 18.2755C361.751 15.3197 352.758 14.1063 344.331 13.9578C342.285 13.93 340.144 13.9509 338.107 14.0506C335.831 14.155 333.557 14.3453 331.295 14.6237C324.727 15.4497 317.943 17.0088 312.156 19.8509C310.581 20.6304 308.987 21.5817 307.579 22.635C306.873 23.1709 306.089 23.8298 305.472 24.4655C303.76 26.2404 302.653 28.1986 302.681 30.5372C302.693 31.0662 302.767 31.5905 302.904 32.101C303.377 33.8921 304.551 35.4465 305.867 36.7156C306.98 37.7852 308.356 38.7944 309.973 39.7318C310.936 40.2909 311.927 40.806 312.936 41.2723C322.072 45.3974 332.55 46.7709 342.67 46.8289C346.338 46.8312 350.006 46.6271 353.649 46.1932C359.335 45.5041 364.887 44.3047 369.978 42.3233C372.493 41.3373 374.704 40.2167 376.613 38.9592C376.994 38.7086 377.367 38.4487 377.731 38.1773C378.265 37.7829 378.778 37.3606 379.267 36.9128C380.012 36.2284 380.641 35.5208 381.149 34.7992C381.694 34.0243 382.098 33.2378 382.353 32.4443C382.72 31.3145 382.785 30.173 382.541 29.0315ZM338.705 16.2779C344.241 16.0297 349.89 16.2826 355.366 17.1689L345.647 19.7558C345.148 19.8903 344.793 19.9785 344.401 19.9785C343.995 19.9785 343.543 19.8834 342.888 19.6583L334.176 16.6167C335.682 16.4589 337.192 16.3452 338.705 16.2779ZM321.395 19.1989C323.14 18.6375 325.017 18.1433 326.993 17.728C327.745 17.5702 328.513 17.4264 329.29 17.2918L342.313 23.0039C342.881 23.2475 343.475 23.5352 344.167 23.5445C344.761 23.5421 345.308 23.3473 345.83 23.1825L360.813 18.2918C362.143 18.6305 363.414 19.0017 364.618 19.4101L353.503 26.5559C351.932 27.5861 351.371 27.6974 349.837 27.6974H334.522C333.387 27.7485 332.22 27.4933 331.499 26.9736L320.594 19.4634C320.859 19.3753 321.123 19.2871 321.395 19.1989ZM313.764 38.1634C311.233 36.5625 308.982 34.7436 308.122 31.869C308.003 31.4281 307.938 30.9757 307.929 30.5187C307.906 28.4932 308.869 26.8065 310.356 25.2729C310.892 24.7254 311.574 24.1546 312.186 23.693C313.411 22.7812 314.794 21.9598 316.163 21.287C316.606 21.0689 317.063 20.8578 317.537 20.6513L325.325 27.2961C325.724 27.6232 326.133 28.0176 326.123 28.4793C326.13 28.818 325.833 29.2055 325.279 29.5976L313.931 38.2631C313.862 38.2237 313.836 38.2098 313.764 38.1634ZM352.208 44.0425C350.313 44.2675 348.408 44.4207 346.501 44.5065C339.229 44.822 331.824 44.2652 324.824 42.5298L339.09 38.8548C339.645 38.7109 340.069 38.5949 340.696 38.5879C340.935 38.5926 341.171 38.6204 341.403 38.6738C342.243 38.8872 342.969 39.1958 343.779 39.4673L355.598 43.5576C354.489 43.7455 353.357 43.9079 352.208 44.0425ZM366.395 40.7016C364.604 41.3999 362.639 42.0147 360.53 42.5414C360.298 42.5994 360.064 42.6551 359.83 42.7108L359.465 42.553L342.918 35.3537C342.222 35.0707 341.55 34.6879 340.726 34.6832C340.141 34.6925 339.594 34.8944 339.083 35.0591L320.534 41.2677C319.223 40.8152 317.991 40.3234 316.841 39.7944C316.636 39.7016 316.435 39.6041 316.235 39.5067L331.1 30.7832C332.427 29.9526 333.571 29.8505 334.926 29.8806H350.433C351.208 29.8853 352.027 29.8783 352.73 30.0732C353.445 30.2751 354.141 30.695 354.809 31.0871L369.149 39.4974C368.282 39.9197 367.365 40.3234 366.395 40.7016ZM377.147 32.1682C376.664 33.6415 375.674 34.9199 374.465 36.0289C374.04 36.4163 373.595 36.7806 373.131 37.1216C372.544 37.5532 371.947 37.9453 371.319 38.3188L360.087 29.7391C359.514 29.3238 359.257 28.9758 359.252 28.6139C359.25 28.1614 359.651 27.7717 360.043 27.4515L367.95 20.7024C370.444 21.8206 372.924 23.2173 374.887 25.1453C376.1 26.3773 376.957 27.6394 377.311 29.2171C377.523 30.2031 377.465 31.1892 377.147 32.1682Z" fill="#919191"/>
<g clip-path="url(#clip1_19_170)">
<path d="M473.073 51.8777C483.133 51.8777 492.061 48.3622 497.592 42.95L492.607 42.9699C487.9 46.9322 481.008 49.4248 473.202 49.4248C458.634 49.4248 447.274 40.7454 447.274 30.0402C447.274 17.6864 458.644 10.6556 473.202 10.6556C474.126 10.6556 474.871 11.0826 474.315 11.8869C471.286 15.5315 462.666 27.2596 461.097 29.8018C457.999 34.8069 458.068 40.9738 465.665 41.4108H497.602C499.231 41.4108 499.648 40.6461 500.234 39.8516C502.369 36.9618 503.461 33.5755 503.451 30.0501C503.441 20.8444 496.966 13.9525 487.443 10.5562L485.973 12.7608C493.888 15.6805 499.121 21.5892 499.121 30.0501C499.121 31.5198 498.903 32.9498 498.496 34.3302C498.138 35.5219 497.453 36.5348 496.142 36.5348H470.66C467.393 36.5348 468.654 33.1683 469.866 31.5298C471.623 28.3817 481.226 15.2932 483.54 12.8502C484.126 11.9565 485.785 10.0994 483.5 9.39436C480.253 8.61977 476.738 8.22254 473.073 8.22254C456.291 8.21261 442.695 16.8324 442.686 30.0402C442.676 43.377 456.291 51.8777 473.073 51.8777Z" fill="#919191"/>
</g>
<g clip-path="url(#clip2_19_170)">
<path d="M622.649 23.9893L605.552 23.9917C605.117 23.9917 604.832 23.8629 604.832 23.2624V20.7244C604.832 19.9927 604.439 19.6061 603.724 19.6061H584.149C583.417 19.6061 583.041 20.0194 583.041 20.7171V23.2551C583.041 23.7899 582.788 23.9844 582.319 23.9844L571.114 23.9868C570.256 23.9868 569.755 24.3953 569.497 24.9325L564.04 35.595C563.969 35.7311 563.928 35.8891 563.928 36.0496C563.928 36.4701 564.203 37.0171 564.968 37.0171L582.316 37.0147C582.851 37.0147 583.038 37.2578 583.038 37.744V40.2795C583.038 41.0453 583.481 41.3905 584.149 41.3905H603.721C604.387 41.3905 604.832 41.0672 604.832 40.2868L604.83 37.7513C604.83 37.2335 605.049 37.022 605.549 37.022L616.431 37.0195C617.179 37.0195 617.719 36.8226 618.096 36.1249L623.49 25.5865C623.61 25.3579 623.687 25.2291 623.687 24.9592C623.687 24.2397 623.07 23.9893 622.649 23.9893ZM618.339 28.2363L615.738 33.3244C615.575 33.621 615.286 33.6307 615.082 33.6307H602.178C601.643 33.6307 601.448 33.8714 601.448 34.3576V37.2845C601.448 37.7683 601.234 38.0041 600.714 38.0041H587.156C586.702 38.0041 586.425 37.8437 586.425 37.2772V34.3527C586.425 33.8179 586.179 33.6283 585.693 33.6283H569.869C569.48 33.6283 569.213 33.3852 569.213 33.0448C569.213 32.9452 569.237 32.8552 569.281 32.7701L571.882 27.6844C571.982 27.507 572.145 27.3781 572.536 27.3781L585.693 27.3805C586.148 27.3805 586.43 27.1982 586.43 26.6464V23.7194C586.43 23.2016 586.656 22.995 587.156 22.995L600.712 22.9926C601.198 22.9926 601.441 23.2089 601.441 23.7267V26.6512C601.441 27.1545 601.674 27.3757 602.178 27.3757H617.748C618.244 27.3757 618.407 27.7014 618.407 27.9616C618.407 28.0564 618.383 28.1512 618.339 28.2363Z" fill="#919191"/>
</g>
<g clip-path="url(#clip3_19_170)">
<path d="M714.567 46.0671C731.325 46.0671 744.897 39.0977 744.897 30.51C744.897 21.9223 731.325 14.9457 714.567 14.9457C697.816 14.9457 684.237 21.9151 684.237 30.5028C684.237 39.0905 697.816 46.0671 714.567 46.0671ZM720.263 38.4216C719.767 39.5868 718.889 42.0969 716.897 43.0895C716.286 43.3772 715.531 43.5282 714.876 43.5498C714.725 43.5714 714.624 43.5498 714.588 43.5498C708.986 43.5498 703.778 42.7874 699.412 41.4496C699.377 41.428 699.276 41.3921 699.276 41.3921C698.837 41.2554 698.629 41.0684 698.629 40.8383C698.629 40.6441 698.722 40.493 698.88 40.342C698.938 40.2845 699.031 40.2053 699.146 40.0903C700.139 39.2488 703.203 37.0479 708.892 34.8398C710.906 34.0774 713.409 33.1209 716.034 32.5599C717.588 32.265 723.291 31.4091 720.263 38.4216ZM735.619 22.7495C735.712 22.5553 735.871 22.3898 736.137 22.3898C736.288 22.3683 736.46 22.4114 736.748 22.5984C740.308 24.7921 742.437 27.5324 742.437 30.5028C742.437 35.8755 735.547 40.4787 725.708 42.4997C725.075 42.6364 724.658 42.6364 724.507 42.4638C724.413 42.3487 724.37 42.1976 724.507 41.9891C724.564 41.874 724.643 41.7805 724.773 41.6438C730.138 35.3145 734.231 25.9716 735.374 23.2601C735.446 23.0372 735.533 22.8645 735.619 22.7495ZM708.964 22.5409C709.46 21.3757 710.338 18.8656 712.33 17.873C712.941 17.571 713.697 17.4343 714.351 17.4127H714.653C720.234 17.4127 725.449 18.1967 729.807 19.5129C729.843 19.5129 729.944 19.5489 729.98 19.5704C730.383 19.7071 730.591 19.8941 730.591 20.1242C730.591 20.3328 730.476 20.4695 730.34 20.6205C730.282 20.6781 730.189 20.7716 730.074 20.8723C729.059 21.7138 726.039 23.9146 720.328 26.0939C718.314 26.8779 715.811 27.8129 713.186 28.3955C711.632 28.7047 705.936 29.5678 708.964 22.5409ZM703.469 18.506C704.102 18.3693 704.598 18.3693 704.728 18.5419C704.821 18.6354 704.864 18.808 704.728 19.0166C704.67 19.1317 704.591 19.2252 704.476 19.3762C699.103 25.7055 695.018 35.0484 693.874 37.7384C693.781 37.9326 693.702 38.1196 693.623 38.2346C693.508 38.4288 693.356 38.5799 693.105 38.5943C692.968 38.5943 692.781 38.5583 692.472 38.3857C688.912 36.192 686.718 33.4517 686.718 30.4813C686.747 25.1301 693.637 20.5198 703.469 18.506Z" fill="#919191"/>
<path d="M714.567 14.9457C697.816 14.9457 684.237 21.8936 684.237 30.4813C684.237 39.0689 697.816 46.0168 714.567 46.0168C731.325 46.0168 744.897 39.0474 744.897 30.4813C744.897 21.8936 731.325 14.9457 714.567 14.9457ZM735.648 40.6297C730.045 43.4995 722.565 45.089 714.574 45.089C706.583 45.089 699.118 43.4923 693.515 40.6297C688.12 37.8534 685.164 34.2644 685.164 30.4956C685.164 26.7268 688.135 23.1307 693.522 20.3544C699.125 17.4631 706.605 15.8951 714.596 15.8951C722.586 15.8951 730.059 17.4775 735.669 20.3544C741.071 23.1307 744.027 26.7268 744.027 30.4885C744.027 34.2501 741.049 37.8534 735.648 40.6297Z" fill="#919191"/>
</g>
<g clip-path="url(#clip4_19_170)">
<path d="M836.019 30.2383L837.343 29.4268L854.256 41.001L836.019 30.2383ZM835.037 29.5976L833.798 28.8715L835.208 6.79077L835.037 29.5976ZM833.542 29.5122L827.947 34.1675L834.653 30.1955L833.542 29.5122Z" fill="#919191"/>
<path d="M835.379 0.256226C818.722 0.256226 805.226 13.7524 805.226 30.4091C805.226 47.0658 818.722 60.562 835.379 60.562C852.035 60.562 865.531 47.0658 865.531 30.4091C865.531 13.7524 852.035 0.256226 835.379 0.256226ZM835.379 58.8963C828.502 58.8963 822.053 56.59 817.227 52.4044C812.572 48.3043 808.941 41.7698 808.045 34.8509C810.18 48.0481 821.583 58.0848 835.379 58.0848C850.669 58.0848 863.054 45.6991 863.054 30.4091C863.054 24.0454 860.705 17.8525 857.075 13.1972C860.705 16.016 863.866 24.0027 863.866 30.4091C863.908 46.1689 851.138 58.8963 835.379 58.8963ZM832.773 28.2309L835.208 3.24589H835.421L835.678 29.5549L839.863 27.035L835.678 3.24589C850.54 3.37401 862.542 15.5035 862.542 30.3664C862.542 35.1498 861.303 39.6343 859.125 43.5636L840.29 27.8038L838.496 28.8288L858.997 43.8199C858.954 43.9053 858.911 43.9907 858.826 44.0761L835.763 30.7935V35.4488L858.655 44.2897C853.914 52.1909 845.244 57.4869 835.379 57.4869C825.513 57.4869 816.843 52.1909 812.102 44.3324L834.994 35.4488V30.7508L811.931 43.9907C811.888 43.9053 811.846 43.8199 811.76 43.7344L832.175 28.7861L830.382 27.7611L811.589 43.4355C809.454 39.5489 808.215 35.1071 808.215 30.3237C808.215 15.5462 820.046 3.54485 834.738 3.20318L831.065 27.2486L832.773 28.2309ZM835.379 1.87918C819.661 1.87918 806.891 14.6493 806.891 30.3664C806.891 36.7728 809.198 42.7948 812.743 48.0481C813.938 50.3117 815.22 51.6784 816.971 53.5149C810.18 48.0908 805.781 39.7197 805.781 30.3664C805.781 14.0087 819.021 0.768739 835.379 0.768739C851.736 0.768739 865.232 14.6066 864.72 30.3664C864.336 14.991 850.882 1.87918 835.379 1.87918Z" fill="#919191"/>
</g>
<g clip-path="url(#clip5_19_170)">
<path fill-rule="evenodd" clip-rule="evenodd" d="M948.536 0.641766C946.401 4.47358 944.267 8.30568 942.133 12.1381L939.197 17.4037C937.205 20.9778 935.213 24.5522 933.221 28.1269L932.008 30.3027L932.56 31.2921C932.864 31.836 934.62 34.9751 936.463 38.2667C938.307 41.5589 941.155 46.6476 942.793 49.5758C945.556 54.5114 947.578 58.1245 948.617 59.9787L949.045 60.7409L956.135 60.7397L963.225 60.7384L963.521 60.2073C964.079 59.2026 967.203 53.6161 974.26 41.0004C975.669 38.4843 977.59 35.0474 978.531 33.3639L980.24 30.3033L978.501 27.1776C976.058 22.7859 966.832 6.19787 964.959 2.82908L963.399 0.0230713H948.879L948.536 0.641766ZM965.069 4.00873C967.458 8.28171 969.845 12.555 972.232 16.8287C977.281 25.8587 979.665 30.1343 979.693 30.2085C979.724 30.2862 979.03 30.296 973.338 30.296H966.95L966.695 29.8499C966.555 29.6043 966.064 28.7559 965.604 27.9646C963.987 25.1872 961.07 20.1671 959.4 17.2888C958.472 15.6904 957.615 14.2178 957.496 14.016L957.28 13.6496L957.45 13.2503C957.544 13.0303 958.049 11.8998 958.573 10.739C960.352 6.79954 961.989 3.08737 961.989 2.99256C961.989 2.97372 961.826 2.95914 961.629 2.95974L961.269 2.96218L960.167 4.90213C959.561 5.96996 957.466 9.65295 955.512 13.0874L948.04 26.2204C946.785 28.4265 945.759 30.2455 945.759 30.2632C945.759 30.2814 946.374 30.2966 947.126 30.2972L948.492 30.2984L949.205 31.5777C949.869 32.7689 954.756 41.506 955.731 43.2448C955.97 43.6727 956.185 44.0221 956.208 44.0221C956.23 44.0221 957.336 42.0797 958.666 39.7052L962.501 32.8571L963.919 30.3245L965.429 30.3087C966.259 30.3008 966.938 30.3075 966.938 30.3245C966.938 30.3416 965.159 33.4435 962.985 37.2177L958.287 45.3744L955.467 50.2668L952.316 55.7342L951.238 57.6042L950.851 57.6213C950.551 57.6346 950.47 57.6213 950.494 57.5641C950.511 57.5228 951.576 55.1258 952.861 52.2365C953.647 50.4727 954.431 48.7076 955.212 46.9412C955.222 46.9084 948.309 34.8244 946.034 30.9001L945.7 30.3245L939.112 30.296L932.524 30.2668L934.195 27.2742C935.114 25.6284 936.056 23.9449 936.287 23.5335C936.519 23.122 937.57 21.2441 938.623 19.3606C941.826 13.6319 943.999 9.74776 944.981 7.99439C945.495 7.07668 946.53 5.22424 947.283 3.87928C948.034 2.53371 948.778 1.20637 948.935 0.929842L949.22 0.425405H963.067L965.069 4.00812M956.556 17.9956C956.718 18.2873 958.295 21.1037 960.06 24.2531C961.825 27.4031 963.309 30.0614 963.356 30.1617L963.444 30.3434L962.205 32.5495C961.524 33.7638 959.937 36.5954 958.679 38.8428C957.889 40.2588 957.095 41.6728 956.297 43.085L956.201 43.2412L954.97 41.0423C953.194 37.8643 951.415 34.688 949.633 31.5133C949.27 30.8691 948.985 30.3124 948.999 30.2753C949.013 30.2388 950.379 27.7999 952.032 24.8566L955.613 18.4836C955.927 17.9215 956.202 17.4626 956.223 17.4626C956.245 17.4638 956.394 17.7033 956.556 17.9956Z" fill="#919191"/>
</g>
<g clip-path="url(#clip6_19_170)">
<path fill-rule="evenodd" clip-rule="evenodd" d="M1073.64 0.160123C1067.26 0.984239 1061.66 3.46267 1057.2 7.4307C1056.82 7.76375 1056.4 8.13569 1056.25 8.25725C1056.11 8.3788 1055.53 8.97622 1054.97 9.58458C1041.2 24.4807 1045.48 48.2779 1063.56 57.3238C1083.88 67.4915 1107.73 52.4605 1107.32 29.742C1107.28 27.2885 1107.23 26.7403 1106.87 24.6533C1104.43 10.6403 1092 0.225153 1077.46 0.023986C1075.4 -0.00457855 1074.73 0.0197317 1073.64 0.160123ZM1080.37 1.48321C1098.6 3.71488 1110.12 21.4741 1104.71 38.9908C1101.99 47.7972 1094.69 55.0824 1085.82 57.8586C1071.66 62.2885 1056.55 55.4008 1050.54 41.7835C1046.56 32.7504 1047.79 20.9101 1053.49 13.476C1053.53 13.4262 1053.79 13.0786 1054.08 12.7042C1060.17 4.66541 1070.47 0.270127 1080.37 1.4826M1075.64 2.94486C1057.99 3.95312 1045.85 21.2061 1050.93 38.0901C1056.18 55.5382 1076.71 63.067 1092 53.1521C1092.72 52.6878 1093.1 52.4186 1093.91 51.7944C1095.63 50.4683 1097.57 48.5095 1098.82 46.826C1099.04 46.5264 1099.25 46.2608 1099.28 46.2359C1099.47 46.0809 1101.03 43.5308 1101.45 42.7048C1110.5 24.6745 1097.88 3.47178 1077.78 2.95154C1076.93 2.93027 1075.97 2.92663 1075.64 2.94486ZM1079.5 5.43726C1100.39 7.4076 1109.58 33.1169 1094.68 47.9169C1081.05 61.4601 1058.33 55.2932 1052.99 36.603C1052.2 33.8638 1051.96 28.9574 1052.47 26.3465L1052.7 25.1535C1055.05 12.9357 1066.86 4.24485 1079.5 5.43787M1075.19 8.15575C1074.26 8.24144 1072.88 8.47421 1071.83 8.72096C1069.81 9.19805 1069.79 9.35485 1071.65 11.0323C1073.56 12.7534 1075.27 14.6849 1076.51 16.516C1077.3 17.6866 1077.3 17.7012 1076.82 17.7012C1076.05 17.7012 1075.36 17.3134 1074.12 16.186C1071.79 14.0522 1067.93 11.327 1066.72 10.9624C1066.04 10.7576 1063.62 12.3942 1061.57 14.4387C1060.06 15.946 1059.92 16.2395 1060.58 16.575C1062.76 17.6823 1068.46 21.7859 1068.46 22.2514C1068.46 22.7996 1067.15 22.5826 1065.42 21.7476C1061.91 20.0599 1058.57 18.9908 1057.91 19.3463C1057.47 19.5816 1056.11 22.8397 1055.62 24.835C1054.96 27.5079 1055 27.6313 1056.79 27.9783C1063.94 29.3676 1068.21 33.0397 1069.42 38.8292C1069.68 40.1164 1069.59 40.6056 1069.03 40.8676C1068.56 41.0845 1068.42 41.0365 1065.44 39.6344L1063.82 38.8747H1056.91L1056.64 39.1403C1056.14 39.6478 1056.19 39.7669 1057.71 41.6674C1058.45 42.5998 1059.15 43.561 1059.81 44.5487C1061.02 46.3963 1060.76 46.2359 1062.51 46.2359C1064.17 46.2359 1063.9 46.3234 1065.83 45.1857L1067.06 44.4637L1077.65 44.4393C1089.97 44.412 1088.64 44.2838 1088.64 45.4981C1088.64 46.6947 1088.96 46.7543 1091.32 45.9976C1093.24 45.382 1096.05 43.563 1096.24 42.8172C1096.5 41.7798 1091.97 39.1689 1089.45 38.9063C1088.78 38.8358 1088.67 38.9665 1088.62 39.8891C1088.58 40.7959 1088.44 40.9648 1087.76 40.9648C1087.36 40.9648 1087.22 40.9235 1087.05 40.746C1086.61 40.306 1086.61 40.2835 1087.31 37.5425C1089.92 27.3201 1088.66 18.9124 1083.55 12.3973C1082.73 11.3586 1079.91 8.52344 1079.46 8.2931C1079.09 8.10652 1076.59 8.02569 1075.19 8.15575ZM1082.28 33.0713C1084.02 33.8766 1084.47 36.0481 1083.18 37.4556C1081.44 39.3616 1078.37 38.1728 1078.37 35.5935C1078.37 33.5368 1080.42 32.2131 1082.28 33.0713Z" fill="#919191"/>
</g>
<g clip-path="url(#clip7_19_170)">
<path fill-rule="evenodd" clip-rule="evenodd" d="M1193.13 0.771819C1191.93 1.18145 1190.48 1.90407 1189.89 2.37751C1189.3 2.85095 1187.76 3.71275 1186.48 4.29194C1183.81 5.50259 1183.65 6.00155 1185.22 8.3092C1186.8 10.6375 1188.03 11.1146 1189.28 9.87721C1190.15 9.00265 1192.14 9.10536 1192.65 10.0516C1193.14 10.9754 1192.25 11.4027 1190.12 11.2623C1187.4 11.0836 1186.75 12.0785 1188.23 14.1497C1189.51 15.9365 1190.4 16.2665 1191.89 15.5038C1193.43 14.7113 1193.79 14.986 1193.04 16.3772C1192.15 18.0272 1191.88 17.9725 1185.63 14.879C1177.24 10.7256 1173.04 10.7749 1170.71 15.0541C1169.87 16.6038 1171.05 18.1731 1172.85 17.8874C1174.27 17.6619 1174.45 17.7367 1174.82 18.6963C1175.08 19.3874 1175.52 19.7544 1176.09 19.7544C1176.57 19.7544 1177.63 20.1604 1178.43 20.657L1179.9 21.5589L1177.27 22.0901C1172.01 23.1512 1170.68 23.7991 1169.67 25.7864C1167.87 29.3309 1168.97 31.5479 1172.02 30.519C1173.29 30.0887 1173.97 30.0334 1174.34 30.3312C1174.66 30.5919 1177.22 30.7214 1181.08 30.6716C1187.68 30.5853 1188.9 30.8296 1191.03 32.6686C1192.03 33.531 1192.03 33.5335 1191.28 34.8073C1186.13 43.5329 1185.17 45.688 1185.02 48.8769C1184.94 50.5986 1184.85 52.0068 1184.82 52.0074C1183.56 52.0196 1177.7 53.3718 1177.03 53.8046C1176.12 54.3965 1175.79 55.5944 1175.54 59.171L1175.44 60.4886L1184.56 60.5604L1193.68 60.6321L1193.53 57.792L1193.39 54.9514L1198.12 49.6749L1202.84 44.3983L1205.95 46.7114C1210.94 50.4108 1211.54 50.7749 1213.15 51.1092C1215.03 51.4981 1215.4 52.2925 1213.86 52.6328C1209.75 53.542 1209.16 54.1887 1208.71 58.2558L1208.45 60.6746L1216.13 60.6588L1223.81 60.643L1225.66 58.666C1226.67 57.5781 1227.51 56.4495 1227.51 56.156C1227.51 55.2504 1222.43 45.7269 1220.04 42.1612C1217.3 38.06 1217.3 38.5414 1220.02 35.8703C1223.92 32.0366 1223.87 30.891 1219.37 21.2951C1216.03 14.174 1215.5 12.2669 1216.34 10.2747C1217.03 8.63557 1218.59 8.25693 1218.59 9.72953C1218.59 13.3335 1224.37 20.2479 1225.66 18.1798C1225.9 17.7908 1224.24 11.0143 1223.21 8.17975C1221.73 4.12055 1216.51 3.40279 1213.59 6.85788L1212.47 8.18096L1210.85 6.61296C1209.97 5.74994 1209.14 4.64079 1209.01 4.14851C1208.84 3.47268 1208.01 2.95548 1205.63 2.04142C1199.82 -0.189042 1196.81 -0.493528 1193.13 0.771819ZM1199.77 1.81959C1204.67 3.0588 1206.83 4.05005 1207.12 5.19142C1207.26 5.77304 1208.55 7.45895 1209.98 8.93762C1212.5 11.5425 1212.6 11.7145 1212.94 14.3807C1213.82 21.1802 1213.83 21.1736 1208.87 22.4C1203.87 23.6374 1203.93 24.0501 1210.34 32.0852C1216.4 39.6943 1220.9 46.3383 1223.6 51.695L1225.56 55.5938L1224.2 57.2554L1222.85 58.9176L1219.85 58.6873C1218.2 58.5608 1216 58.4575 1214.96 58.4575C1213.08 58.4575 1213.06 58.4454 1213.24 57.2457C1213.43 55.942 1213.91 55.7366 1220.01 54.343C1223.35 53.5809 1223.32 53.1828 1219.46 47.056C1210.25 32.4304 1203.62 26.7424 1184.51 17.0779C1180.09 14.845 1178.83 14.3837 1176.64 14.2087C1172.95 13.9139 1173.31 13.1798 1177.05 13.3682C1179.97 13.5146 1180.36 13.6647 1189.1 18.0552C1200.19 23.6271 1199.85 23.5863 1201.87 19.5533C1204.56 14.185 1204.44 13.1232 1200.52 8.1682C1197.6 4.46089 1194.27 4.07315 1187.95 6.69986C1186.6 7.26082 1185.77 7.17391 1185.77 6.47013C1185.77 6.28598 1186.55 5.82895 1187.5 5.45518C1188.44 5.08141 1189.67 4.36001 1190.23 3.85192C1191.39 2.79808 1194.74 1.49991 1196.93 1.25681C1197.16 1.23067 1198.44 1.48411 1199.77 1.81959ZM1191.99 3.22229C1190.89 3.66534 1190.43 4.39161 1190.94 4.89362C1191.46 5.41872 1194.69 4.12116 1194.69 3.38334C1194.69 2.75857 1193.35 2.67835 1191.99 3.22229ZM1218.43 27.8023C1219.18 29.5612 1218.43 30.7858 1215.78 32.1387C1213.64 33.2266 1213.5 33.1597 1210.43 29.5861C1207.32 25.9536 1207.39 25.4765 1211.23 24.2494C1213.46 23.5359 1214.3 23.0594 1214.64 22.324C1215.1 21.3067 1216.52 23.3536 1218.43 27.8023ZM1186.77 27.7944C1187.47 28.5663 1187.4 28.5797 1182.18 28.7018C1176.45 28.8355 1175.24 27.9282 1180.42 27.3769C1184.94 26.895 1186.01 26.9655 1186.77 27.7944ZM1195.67 33.9917C1196.34 34.4834 1196.16 34.845 1193.24 38.9303C1188.38 45.7111 1187.28 48.0303 1187.6 50.8083C1187.92 53.5912 1187.71 53.8076 1183.94 54.4488C1180.36 55.0577 1179.82 55.3483 1179.49 56.8415C1179.18 58.2618 1178.08 58.4916 1178.08 57.1357C1178.08 55.2881 1179.09 54.5296 1182.23 54.0391C1187.03 53.2874 1186.98 53.3293 1186.88 49.904C1186.78 46.6987 1188.68 42.0955 1192.63 35.9815C1194.38 33.2867 1194.55 33.1755 1195.67 33.9917Z" fill="#919191"/>
</g>
<g clip-path="url(#clip8_19_170)">
<path d="M1332.54 9.81128C1331.18 16.0796 1330.63 18.9412 1329.4 23.4381C1328.18 27.9349 1327.5 31.7504 1326 33.7944C1324.91 35.2934 1323.14 36.2473 1321.23 36.3835C1319.46 36.5198 1317.55 36.5198 1315.78 36.3835C1313.87 36.2473 1312.1 35.2934 1311.01 33.7944C1309.51 31.8867 1308.69 27.7987 1307.6 23.4381C1306.51 19.0775 1305.83 16.0796 1304.47 9.81128L1302.42 9.94755C1301.6 9.94755 1300.92 10.0838 1300.24 10.2201C1300.24 10.2201 1301.06 23.0293 1301.47 28.48C1301.88 34.2033 1302.56 43.742 1303.1 51.1005C1303.1 51.1005 1304.33 51.2368 1306.24 51.373C1308.15 51.5093 1309.24 51.5093 1309.24 51.5093C1310.05 48.2389 1311.14 43.8783 1312.23 41.9705C1312.92 40.8804 1314.14 40.199 1315.5 40.199C1316.46 40.0628 1317.41 40.0628 1318.5 40.0628C1319.46 40.0628 1320.41 40.0628 1321.5 40.199C1322.86 40.199 1324.09 40.8804 1324.77 41.9705C1326 43.8783 1326.95 48.2389 1327.77 51.5093C1327.77 51.5093 1328.72 51.5093 1330.77 51.373C1332.81 51.2368 1333.9 51.1005 1333.9 51.1005C1334.58 43.8783 1335.26 34.2033 1335.54 28.48C1335.94 23.0293 1336.76 10.2201 1336.76 10.2201C1336.08 10.0838 1335.4 10.0838 1334.58 9.94755L1332.54 9.81128Z" fill="#919191"/>
<path d="M1348.62 17.4423C1347.8 9.26624 1342.35 7.63102 1337.58 6.81341C1334.45 6.40461 1331.31 6.13207 1328.18 5.9958C1325.72 5.85953 1320.14 5.72327 1318.5 5.72327C1316.87 5.72327 1311.14 5.85953 1308.83 5.9958C1305.56 5.9958 1302.42 6.26834 1299.29 6.81341C1294.52 7.63102 1289.07 9.4025 1288.25 17.4423C1287.98 20.1677 1287.98 22.893 1287.98 25.6184C1287.98 29.2976 1288.25 32.9769 1288.8 36.6561C1289.07 39.7903 1289.75 42.7882 1290.57 45.9223C1291.79 49.4653 1292.88 50.5554 1294.11 51.5093C1296.29 53.0083 1298.61 53.8259 1301.2 54.2347C1312.64 55.4611 1324.09 55.4611 1335.54 54.2347C1338.12 53.8259 1340.44 53.0083 1342.62 51.5093C1343.98 50.4192 1345.07 49.4653 1346.16 45.9223C1346.98 42.9244 1347.66 39.7903 1347.94 36.6561C1348.34 32.9769 1348.62 29.2976 1348.75 25.6184C1348.89 22.893 1348.75 20.1677 1348.62 17.4423ZM1345.62 31.0691C1345.48 35.566 1344.8 39.9265 1343.71 44.2871C1343.3 46.3311 1342.21 48.1026 1340.71 49.6016C1338.67 51.2368 1336.22 52.1907 1333.76 52.3269C1323.54 53.4171 1313.32 53.4171 1303.1 52.3269C1300.51 52.1907 1298.2 51.2368 1296.15 49.6016C1294.66 48.1026 1293.7 46.3311 1293.16 44.2871C1292.07 39.9265 1291.52 35.566 1291.25 31.0691C1290.98 26.5723 1290.98 21.9392 1291.38 17.4423C1292.2 12.2641 1294.66 9.81131 1300.11 8.85743C1303.1 8.31236 1306.24 8.03982 1309.24 7.90356C1311.82 7.76729 1316.05 7.63102 1318.5 7.63102C1320.95 7.63102 1325.18 7.63102 1327.77 7.90356C1330.77 8.03982 1333.9 8.31236 1336.9 8.85743C1342.35 9.81131 1344.8 12.4004 1345.48 17.4423C1345.76 21.9392 1345.89 26.5723 1345.62 31.0691Z" fill="#919191"/>
</g>
<g clip-path="url(#clip9_19_170)">
<path d="M1439.25 0.426697C1422.75 0.426697 1409.29 13.885 1409.29 30.3878C1409.29 46.8906 1422.75 60.3488 1439.25 60.3488C1455.76 60.3488 1469.22 46.8906 1469.22 30.3878C1469.2 13.885 1455.75 0.426697 1439.25 0.426697ZM1439.25 56.8891C1424.65 56.8891 1412.75 44.9877 1412.75 30.3878C1412.75 15.7878 1424.65 3.8864 1439.25 3.8864C1453.85 3.8864 1465.76 15.7878 1465.76 30.3878C1465.76 44.9877 1453.84 56.8891 1439.25 56.8891Z" fill="#919191"/>
<path d="M1430.67 50.6386C1422.8 47.2827 1417.26 39.4637 1417.26 30.3878C1417.26 28.0813 1417.62 25.8555 1418.29 23.7567L1430.67 50.6386ZM1445.36 51.515C1443.42 52.0801 1441.36 52.38 1439.24 52.38C1437.12 52.38 1435.08 52.0801 1433.14 51.515L1439.24 37.2726L1445.36 51.515ZM1460.22 23.7682C1460.89 25.8555 1461.25 28.0813 1461.25 30.3878C1461.25 39.4637 1455.7 47.2827 1447.83 50.627L1460.22 23.7682Z" fill="#919191"/>
<path d="M1450.34 11.4055C1453.02 12.9855 1455.34 15.1074 1457.15 17.633L1446.2 40.9168L1442.51 32.0254H1436L1432.31 40.9168L1421.36 17.633C1423.17 15.1074 1425.48 12.9739 1428.17 11.4055L1435.85 29.3383H1442.66L1450.34 11.4055Z" fill="#919191"/>
<path d="M1439.25 8.39557C1441.4 8.39557 1443.49 8.70694 1445.45 9.28356L1439.25 24.1949L1433.06 9.28356C1435.02 8.70694 1437.1 8.39557 1439.25 8.39557Z" fill="#919191"/>
</g>
<path d="M1589.76 28.284C1589.62 27.6139 1589.41 26.9542 1589.15 26.3205C1588.89 25.7023 1588.56 25.105 1588.19 24.544C1587.81 23.9882 1587.38 23.4687 1586.91 22.996C1586.44 22.5233 1585.92 22.0922 1585.36 21.7182C1584.8 21.339 1584.21 21.0169 1583.58 20.7572C1582.96 20.4923 1582.3 20.2845 1581.62 20.1494C1580.93 20.0092 1580.22 19.9365 1579.52 19.9365C1578.81 19.9365 1578.1 20.0092 1577.41 20.1494C1576.74 20.2845 1576.08 20.4923 1575.45 20.7572C1574.83 21.0169 1574.23 21.3442 1573.67 21.7182C1573.46 21.8584 1573.26 22.0143 1573.05 22.1701C1572.85 22.0143 1572.65 21.8636 1572.44 21.7182C1571.88 21.339 1571.28 21.0169 1570.66 20.7572C1570.03 20.4923 1569.37 20.2845 1568.7 20.1494C1568.01 20.0092 1567.3 19.9365 1566.59 19.9365C1565.89 19.9365 1565.17 20.0092 1564.49 20.1494C1563.82 20.2845 1563.16 20.4923 1562.53 20.7572C1561.91 21.0169 1561.31 21.3442 1560.75 21.7182C1560.53 21.8688 1560.31 22.0298 1560.09 22.1961C1559.88 22.0298 1559.66 21.8688 1559.45 21.7182C1558.88 21.339 1558.29 21.0169 1557.67 20.7572C1557.04 20.4923 1556.38 20.2845 1555.71 20.1494C1555.02 20.0092 1554.31 19.9365 1553.6 19.9365C1552.89 19.9365 1552.18 20.0092 1551.5 20.1494C1550.83 20.2845 1550.17 20.4923 1549.53 20.7572C1548.92 21.0169 1548.32 21.3442 1547.76 21.7182C1547.53 21.8688 1547.32 22.0246 1547.11 22.1909C1546.91 22.0246 1546.69 21.8688 1546.47 21.7182C1545.91 21.339 1545.32 21.0169 1544.69 20.7572C1544.06 20.4923 1543.4 20.2845 1542.73 20.1494C1542.04 20.0092 1541.33 19.9365 1540.63 19.9365C1539.92 19.9365 1539.21 20.0092 1538.52 20.1494C1537.85 20.2845 1537.19 20.4923 1536.56 20.7572C1535.94 21.0169 1535.34 21.3442 1534.78 21.7182C1534.23 22.0922 1533.71 22.5233 1533.23 22.996C1532.76 23.4687 1532.33 23.9882 1531.96 24.544C1531.6 25.105 1531.28 25.7023 1531.02 26.3205C1530.75 26.949 1530.54 27.6087 1530.41 28.284C1530.27 28.9697 1530.2 29.6813 1530.2 30.3878C1530.2 31.0942 1530.27 31.8059 1530.41 32.4915C1530.54 33.1616 1530.75 33.8213 1531.02 34.4499C1531.28 35.068 1531.6 35.6654 1531.98 36.2264C1532.35 36.777 1532.78 37.3016 1533.25 37.7743C1533.73 38.247 1534.25 38.6782 1534.8 39.0522C1535.36 39.4314 1535.96 39.7534 1536.58 40.0132C1537.21 40.2781 1537.87 40.4859 1538.54 40.6209C1539.23 40.7612 1539.94 40.8339 1540.65 40.8339C1541.35 40.8339 1542.06 40.7612 1542.75 40.6209C1543.42 40.4859 1544.08 40.2781 1544.71 40.0132C1545.33 39.7534 1545.93 39.4262 1546.49 39.0522C1546.71 38.9015 1546.93 38.7457 1547.13 38.5795C1547.34 38.7457 1547.56 38.9015 1547.78 39.0522C1548.34 39.4314 1548.93 39.7534 1549.55 40.0132C1550.18 40.2781 1550.84 40.4859 1551.51 40.6209C1552.2 40.7612 1552.91 40.8339 1553.62 40.8339C1554.32 40.8339 1555.04 40.7612 1555.72 40.6209C1556.39 40.4859 1557.05 40.2781 1557.68 40.0132C1558.3 39.7534 1558.9 39.4262 1559.46 39.0522C1559.68 38.9015 1559.9 38.7405 1560.12 38.5743C1560.33 38.7405 1560.55 38.9015 1560.77 39.0522C1561.33 39.4314 1561.92 39.7534 1562.55 40.0132C1563.17 40.2781 1563.83 40.4859 1564.51 40.6209C1565.2 40.7612 1565.91 40.8339 1566.61 40.8339C1567.32 40.8339 1568.03 40.7612 1568.72 40.6209C1569.39 40.4859 1570.05 40.2781 1570.68 40.0132C1571.3 39.7534 1571.9 39.4262 1572.46 39.0522C1572.67 38.9119 1572.87 38.7561 1573.08 38.6003C1573.28 38.7561 1573.48 38.9067 1573.69 39.0522C1574.25 39.4314 1574.85 39.7534 1575.47 40.0132C1576.1 40.2781 1576.76 40.4859 1577.43 40.6209C1578.11 40.7612 1578.83 40.8339 1579.53 40.8339C1580.24 40.8339 1580.95 40.7612 1581.64 40.6209C1582.31 40.4859 1582.97 40.2781 1583.6 40.0132C1584.22 39.7534 1584.82 39.4262 1585.38 39.0522C1585.93 38.6782 1586.45 38.247 1586.92 37.7743C1587.4 37.3016 1587.83 36.7822 1588.2 36.2264C1588.58 35.6654 1588.9 35.0732 1589.16 34.4499C1589.43 33.8213 1589.64 33.1616 1589.77 32.4864C1589.91 31.7955 1589.98 31.089 1589.98 30.3826C1589.97 29.6813 1589.9 28.9697 1589.76 28.284ZM1536.09 23.6349C1536.52 23.3389 1536.98 23.0895 1537.47 22.8817C1537.96 22.674 1538.48 22.5129 1538.99 22.409C1539.53 22.3 1540.09 22.2428 1540.64 22.2428C1541.19 22.2428 1541.74 22.3 1542.28 22.409C1542.8 22.5181 1543.32 22.674 1543.8 22.8817C1544.29 23.0843 1544.76 23.3389 1545.19 23.6349C1545.28 23.6973 1545.37 23.7648 1545.47 23.8323C1545.28 24.0609 1545.1 24.2998 1544.94 24.544C1544.56 25.105 1544.24 25.6972 1543.98 26.3205C1543.72 26.949 1543.51 27.6087 1543.37 28.284C1543.23 28.9697 1543.16 29.6813 1543.16 30.3878C1543.16 31.0942 1543.23 31.8059 1543.37 32.4915C1543.51 33.1616 1543.72 33.8213 1543.98 34.4499C1544.24 35.068 1544.57 35.6654 1544.94 36.2264C1545.11 36.4705 1545.29 36.7095 1545.47 36.938C1545.38 37.0056 1545.29 37.0731 1545.19 37.1406C1544.75 37.4367 1544.29 37.686 1543.8 37.8938C1543.31 38.1016 1542.8 38.2626 1542.28 38.3665C1541.74 38.4756 1541.19 38.5327 1540.64 38.5327C1540.09 38.5327 1539.53 38.4756 1538.99 38.3665C1538.47 38.2574 1537.96 38.1016 1537.47 37.8938C1536.98 37.6912 1536.52 37.4367 1536.09 37.1406C1535.65 36.8497 1535.25 36.5121 1534.88 36.1485C1534.51 35.7797 1534.18 35.3745 1533.89 34.9433C1533.59 34.507 1533.34 34.0447 1533.14 33.5616C1532.93 33.0681 1532.77 32.5539 1532.66 32.0344C1532.55 31.4994 1532.5 30.9436 1532.5 30.393C1532.5 29.8424 1532.55 29.2865 1532.66 28.7515C1532.77 28.2269 1532.93 27.7126 1533.14 27.2243C1533.34 26.7412 1533.59 26.2737 1533.89 25.8426C1534.18 25.4115 1534.52 25.0063 1534.88 24.6375C1535.25 24.2635 1535.65 23.9258 1536.09 23.6349ZM1546.86 34.9433C1546.56 34.507 1546.31 34.0447 1546.11 33.5616C1545.9 33.0681 1545.74 32.5539 1545.63 32.0344C1545.52 31.4994 1545.47 30.9436 1545.47 30.393C1545.47 29.8424 1545.52 29.2865 1545.63 28.7515C1545.74 28.2269 1545.9 27.7126 1546.11 27.2243C1546.31 26.7412 1546.56 26.2737 1546.86 25.8426C1546.94 25.7179 1547.04 25.5933 1547.13 25.4686C1547.22 25.5933 1547.31 25.7179 1547.4 25.8426C1547.7 26.2789 1547.94 26.7412 1548.15 27.2243C1548.36 27.7178 1548.52 28.2321 1548.63 28.7515C1548.73 29.2865 1548.79 29.8424 1548.79 30.393C1548.79 30.9436 1548.73 31.4994 1548.63 32.0344C1548.52 32.5591 1548.36 33.0733 1548.15 33.5616C1547.95 34.0447 1547.7 34.5122 1547.4 34.9433C1547.32 35.068 1547.22 35.1927 1547.13 35.3173C1547.04 35.1979 1546.94 35.0732 1546.86 34.9433ZM1549.31 36.2316C1549.68 35.6706 1550.01 35.0784 1550.27 34.4551C1550.53 33.8265 1550.74 33.1668 1550.87 32.4915C1551.01 31.8059 1551.09 31.0942 1551.09 30.3878C1551.09 29.6813 1551.01 28.9697 1550.87 28.284C1550.74 27.6139 1550.53 26.9542 1550.27 26.3205C1550.01 25.7023 1549.68 25.105 1549.31 24.544C1549.14 24.2998 1548.96 24.0609 1548.78 23.8323C1548.87 23.7648 1548.96 23.6973 1549.06 23.6349C1549.49 23.3389 1549.95 23.0895 1550.44 22.8817C1550.93 22.674 1551.45 22.5129 1551.97 22.409C1552.5 22.3 1553.06 22.2428 1553.61 22.2428C1554.16 22.2428 1554.71 22.3 1555.25 22.409C1555.77 22.5181 1556.29 22.674 1556.78 22.8817C1557.26 23.0843 1557.73 23.3389 1558.16 23.6349C1558.26 23.7025 1558.35 23.77 1558.45 23.8427C1558.27 24.0713 1558.09 24.305 1557.93 24.544C1557.55 25.105 1557.23 25.6972 1556.97 26.3205C1556.7 26.949 1556.49 27.6087 1556.36 28.284C1556.22 28.9697 1556.15 29.6813 1556.15 30.3878C1556.15 31.0942 1556.22 31.8059 1556.36 32.4915C1556.49 33.1616 1556.7 33.8213 1556.97 34.4499C1557.23 35.068 1557.55 35.6654 1557.93 36.2264C1558.09 36.4705 1558.27 36.7043 1558.45 36.9328C1558.35 37.0056 1558.26 37.0731 1558.16 37.1406C1557.72 37.4367 1557.26 37.686 1556.78 37.8938C1556.28 38.1016 1555.77 38.2626 1555.25 38.3665C1554.71 38.4756 1554.16 38.5327 1553.61 38.5327C1553.06 38.5327 1552.5 38.4756 1551.97 38.3665C1551.44 38.2574 1550.93 38.1016 1550.44 37.8938C1549.95 37.6912 1549.49 37.4367 1549.06 37.1406C1548.96 37.0783 1548.86 37.0107 1548.78 36.938C1548.96 36.7147 1549.14 36.4757 1549.31 36.2316ZM1559.85 34.9433C1559.55 34.507 1559.3 34.0447 1559.09 33.5616C1558.88 33.0681 1558.72 32.5539 1558.62 32.0344C1558.51 31.4994 1558.45 30.9436 1558.45 30.393C1558.45 29.8424 1558.51 29.2865 1558.62 28.7515C1558.73 28.2269 1558.88 27.7126 1559.09 27.2243C1559.29 26.7412 1559.55 26.2737 1559.85 25.8426C1559.93 25.7179 1560.02 25.5985 1560.1 25.479C1560.19 25.5985 1560.28 25.7179 1560.36 25.8426C1560.66 26.2789 1560.91 26.7412 1561.12 27.2243C1561.33 27.7178 1561.49 28.2321 1561.59 28.7515C1561.7 29.2865 1561.76 29.8424 1561.76 30.393C1561.76 30.9436 1561.7 31.4994 1561.59 32.0344C1561.48 32.5591 1561.33 33.0733 1561.12 33.5616C1560.92 34.0447 1560.66 34.5122 1560.36 34.9433C1560.28 35.068 1560.19 35.1875 1560.1 35.307C1560.02 35.1875 1559.93 35.068 1559.85 34.9433ZM1562.28 36.2316C1562.66 35.6706 1562.98 35.0784 1563.24 34.4551C1563.5 33.8265 1563.71 33.1668 1563.84 32.4915C1563.99 31.8059 1564.06 31.0942 1564.06 30.3878C1564.06 29.6813 1563.99 28.9697 1563.84 28.284C1563.71 27.6139 1563.5 26.9542 1563.24 26.3205C1562.98 25.7023 1562.65 25.105 1562.28 24.544C1562.12 24.2998 1561.94 24.0661 1561.76 23.8375C1561.85 23.7648 1561.95 23.6973 1562.05 23.6297C1562.48 23.3337 1562.95 23.0843 1563.43 22.8765C1563.92 22.6688 1564.44 22.5077 1564.96 22.4038C1565.49 22.2948 1566.05 22.2376 1566.6 22.2376C1567.15 22.2376 1567.7 22.2948 1568.24 22.4038C1568.76 22.5129 1569.28 22.6688 1569.77 22.8765C1570.25 23.0791 1570.72 23.3337 1571.15 23.6297C1571.23 23.6869 1571.31 23.744 1571.39 23.8012C1571.2 24.0401 1571.02 24.2843 1570.85 24.5388C1570.47 25.0998 1570.15 25.692 1569.89 26.3153C1569.62 26.9438 1569.41 27.6035 1569.28 28.2788C1569.14 28.9645 1569.07 29.6761 1569.07 30.3826C1569.07 31.089 1569.14 31.8007 1569.28 32.4864C1569.41 33.1564 1569.62 33.8161 1569.89 34.4447C1570.15 35.0628 1570.47 35.6602 1570.85 36.2212C1571.02 36.4757 1571.2 36.7199 1571.4 36.9588C1571.31 37.0211 1571.23 37.0783 1571.15 37.1354C1570.71 37.4315 1570.25 37.6808 1569.77 37.8886C1569.27 38.0964 1568.76 38.2574 1568.24 38.3613C1567.7 38.4704 1567.15 38.5275 1566.6 38.5275C1566.05 38.5275 1565.49 38.4704 1564.96 38.3613C1564.43 38.2522 1563.92 38.0964 1563.43 37.8886C1562.95 37.686 1562.48 37.4315 1562.05 37.1354C1561.95 37.0679 1561.85 37.0004 1561.76 36.9276C1561.94 36.7095 1562.11 36.4705 1562.28 36.2316ZM1572.76 34.9433C1572.47 34.507 1572.22 34.0447 1572.01 33.5616C1571.8 33.0681 1571.64 32.5539 1571.54 32.0344C1571.43 31.4994 1571.37 30.9436 1571.37 30.393C1571.37 29.8424 1571.43 29.2865 1571.54 28.7515C1571.65 28.2269 1571.8 27.7126 1572.01 27.2243C1572.21 26.7412 1572.47 26.2737 1572.76 25.8426C1572.86 25.7023 1572.96 25.5673 1573.06 25.4322C1573.16 25.5673 1573.26 25.7023 1573.36 25.8426C1573.65 26.2789 1573.9 26.7412 1574.11 27.2243C1574.32 27.7178 1574.48 28.2321 1574.58 28.7515C1574.69 29.2865 1574.75 29.8424 1574.75 30.393C1574.75 30.9436 1574.69 31.4994 1574.58 32.0344C1574.47 32.5591 1574.32 33.0733 1574.11 33.5616C1573.91 34.0447 1573.65 34.5122 1573.36 34.9433C1573.26 35.0836 1573.16 35.2187 1573.06 35.3537C1572.96 35.2187 1572.86 35.0836 1572.76 34.9433ZM1575.26 36.2316C1575.64 35.6706 1575.96 35.0784 1576.22 34.4551C1576.49 33.8265 1576.7 33.1668 1576.83 32.4915C1576.97 31.8059 1577.04 31.0942 1577.04 30.3878C1577.04 29.6813 1576.97 28.9697 1576.83 28.284C1576.7 27.6139 1576.49 26.9542 1576.22 26.3205C1575.96 25.7023 1575.64 25.105 1575.26 24.544C1575.09 24.2894 1574.91 24.0453 1574.72 23.8064C1574.8 23.7492 1574.88 23.6869 1574.97 23.6297C1575.4 23.3337 1575.87 23.0843 1576.35 22.8765C1576.84 22.6688 1577.36 22.5077 1577.88 22.4038C1578.41 22.2948 1578.97 22.2376 1579.52 22.2376C1580.07 22.2376 1580.62 22.2948 1581.16 22.4038C1581.68 22.5129 1582.2 22.6688 1582.69 22.8765C1583.17 23.0791 1583.64 23.3337 1584.07 23.6297C1584.5 23.9206 1584.9 24.2583 1585.27 24.6271C1585.64 24.9959 1585.97 25.4011 1586.26 25.8322C1586.56 26.2685 1586.81 26.7309 1587.02 27.2139C1587.23 27.7074 1587.39 28.2217 1587.49 28.7411C1587.6 29.2762 1587.66 29.832 1587.66 30.3826C1587.66 30.9332 1587.6 31.489 1587.49 32.024C1587.38 32.5487 1587.23 33.0629 1587.02 33.5512C1586.82 34.0343 1586.56 34.5018 1586.26 34.933C1585.97 35.3641 1585.64 35.7693 1585.27 36.1381C1584.91 36.5069 1584.5 36.8393 1584.07 37.1302C1583.63 37.4263 1583.17 37.6756 1582.69 37.8834C1582.19 38.0912 1581.68 38.2522 1581.16 38.3561C1580.62 38.4652 1580.07 38.5223 1579.52 38.5223C1578.97 38.5223 1578.41 38.4652 1577.88 38.3561C1577.35 38.247 1576.84 38.0912 1576.35 37.8834C1575.87 37.6808 1575.4 37.4263 1574.97 37.1302C1574.88 37.0731 1574.8 37.0159 1574.72 36.9536C1574.91 36.7303 1575.09 36.4861 1575.26 36.2316Z" fill="#919191"/>
<g clip-path="url(#clip10_19_170)">
<path fill-rule="evenodd" clip-rule="evenodd" d="M1673.19 0.641766C1671.05 4.47358 1668.92 8.30568 1666.79 12.1381L1663.85 17.4037C1661.86 20.9778 1659.87 24.5522 1657.87 28.1269L1656.66 30.3027L1657.21 31.2921C1657.52 31.836 1659.27 34.9751 1661.12 38.2667C1662.96 41.5589 1665.81 46.6476 1667.45 49.5758C1670.21 54.5114 1672.23 58.1245 1673.27 59.9787L1673.7 60.7409L1680.79 60.7397L1687.88 60.7384L1688.17 60.2073C1688.73 59.2026 1691.86 53.6161 1698.91 41.0004C1700.32 38.4843 1702.24 35.0474 1703.18 33.3639L1704.89 30.3033L1703.15 27.1776C1700.71 22.7859 1691.49 6.19787 1689.61 2.82908L1688.05 0.0230713H1673.53L1673.19 0.641766ZM1689.72 4.00873C1692.11 8.28171 1694.5 12.555 1696.89 16.8287C1701.93 25.8587 1704.32 30.1343 1704.35 30.2085C1704.38 30.2862 1703.68 30.296 1697.99 30.296H1691.6L1691.35 29.8499C1691.21 29.6043 1690.72 28.7559 1690.26 27.9646C1688.64 25.1872 1685.72 20.1671 1684.05 17.2888C1683.12 15.6904 1682.27 14.2178 1682.15 14.016L1681.93 13.6496L1682.1 13.2503C1682.2 13.0303 1682.7 11.8998 1683.23 10.739C1685.01 6.79954 1686.64 3.08737 1686.64 2.99256C1686.64 2.97372 1686.48 2.95914 1686.28 2.95974L1685.92 2.96218L1684.82 4.90213C1684.21 5.96996 1682.12 9.65295 1680.17 13.0874L1672.69 26.2204C1671.44 28.4265 1670.41 30.2455 1670.41 30.2632C1670.41 30.2814 1671.03 30.2966 1671.78 30.2972L1673.15 30.2984L1673.86 31.5777C1674.52 32.7689 1679.41 41.506 1680.38 43.2448C1680.62 43.6727 1680.84 44.0221 1680.86 44.0221C1680.88 44.0221 1681.99 42.0797 1683.32 39.7052L1687.15 32.8571L1688.57 30.3245L1690.08 30.3087C1690.91 30.3008 1691.59 30.3075 1691.59 30.3245C1691.59 30.3416 1689.81 33.4435 1687.64 37.2177L1682.94 45.3744L1680.12 50.2668L1676.97 55.7342L1675.89 57.6042L1675.5 57.6213C1675.2 57.6346 1675.12 57.6213 1675.15 57.5641C1675.16 57.5228 1676.23 55.1258 1677.51 52.2365C1678.3 50.4727 1679.08 48.7076 1679.86 46.9412C1679.88 46.9084 1672.96 34.8244 1670.69 30.9001L1670.35 30.3245L1663.77 30.296L1657.18 30.2668L1658.85 27.2742C1659.77 25.6284 1660.71 23.9449 1660.94 23.5335C1661.17 23.122 1662.22 21.2441 1663.28 19.3606C1666.48 13.6319 1668.65 9.74776 1669.63 7.99439C1670.15 7.07668 1671.18 5.22424 1671.94 3.87928C1672.69 2.53371 1673.43 1.20637 1673.59 0.929842L1673.87 0.425405H1687.72L1689.72 4.00812M1681.21 17.9956C1681.37 18.2873 1682.95 21.1037 1684.71 24.2531C1686.48 27.4031 1687.96 30.0614 1688.01 30.1617L1688.1 30.3434L1686.86 32.5495C1686.18 33.7638 1684.59 36.5954 1683.33 38.8428C1682.54 40.2588 1681.75 41.6728 1680.95 43.085L1680.85 43.2412L1679.62 41.0423C1677.85 37.8643 1676.07 34.688 1674.29 31.5133C1673.92 30.8691 1673.64 30.3124 1673.65 30.2753C1673.67 30.2388 1675.03 27.7999 1676.69 24.8566L1680.27 18.4836C1680.58 17.9215 1680.86 17.4626 1680.88 17.4626C1680.9 17.4638 1681.05 17.7033 1681.21 17.9956Z" fill="#919191"/>
</g>
<g clip-path="url(#clip11_19_170)">
<path fill-rule="evenodd" clip-rule="evenodd" d="M1798.3 0.160123C1791.92 0.984239 1786.31 3.46267 1781.85 7.4307C1781.47 7.76375 1781.05 8.13569 1780.91 8.25725C1780.76 8.3788 1780.18 8.97622 1779.62 9.58458C1765.85 24.4807 1770.13 48.2779 1788.21 57.3238C1808.53 67.4915 1832.38 52.4605 1831.97 29.742C1831.93 27.2885 1831.88 26.7403 1831.52 24.6533C1829.09 10.6403 1816.65 0.225153 1802.11 0.023986C1800.05 -0.00457855 1799.38 0.0197317 1798.3 0.160123ZM1805.02 1.48321C1823.25 3.71488 1834.77 21.4741 1829.36 38.9908C1826.64 47.7972 1819.35 55.0824 1810.47 57.8586C1796.32 62.2885 1781.2 55.4008 1775.2 41.7835C1771.21 32.7504 1772.44 20.9101 1778.14 13.476C1778.18 13.4262 1778.45 13.0786 1778.73 12.7042C1784.82 4.66541 1795.12 0.270127 1805.02 1.4826M1800.29 2.94486C1782.64 3.95312 1770.51 21.2061 1775.59 38.0901C1780.83 55.5382 1801.36 63.067 1816.65 53.1521C1817.37 52.6878 1817.75 52.4186 1818.56 51.7944C1820.28 50.4683 1822.22 48.5095 1823.47 46.826C1823.69 46.5264 1823.9 46.2608 1823.93 46.2359C1824.12 46.0809 1825.68 43.5308 1826.1 42.7048C1835.16 24.6745 1822.53 3.47178 1802.43 2.95154C1801.58 2.93027 1800.62 2.92663 1800.29 2.94486ZM1804.16 5.43726C1825.04 7.4076 1834.23 33.1169 1819.34 47.9169C1805.71 61.4601 1782.98 55.2932 1777.64 36.603C1776.86 33.8638 1776.61 28.9574 1777.12 26.3465L1777.35 25.1535C1779.7 12.9357 1791.51 4.24485 1804.16 5.43787M1799.84 8.15575C1798.92 8.24144 1797.53 8.47421 1796.49 8.72096C1794.46 9.19805 1794.45 9.35485 1796.31 11.0323C1798.21 12.7534 1799.92 14.6849 1801.16 16.516C1801.95 17.6866 1801.96 17.7012 1801.48 17.7012C1800.7 17.7012 1800.01 17.3134 1798.78 16.186C1796.44 14.0522 1792.58 11.327 1791.37 10.9624C1790.7 10.7576 1788.27 12.3942 1786.22 14.4387C1784.71 15.946 1784.57 16.2395 1785.23 16.575C1787.42 17.6823 1793.12 21.7859 1793.12 22.2514C1793.12 22.7996 1791.81 22.5826 1790.07 21.7476C1786.57 20.0599 1783.22 18.9908 1782.56 19.3463C1782.12 19.5816 1780.76 22.8397 1780.27 24.835C1779.61 27.5079 1779.66 27.6313 1781.44 27.9783C1788.59 29.3676 1792.86 33.0397 1794.07 38.8292C1794.34 40.1164 1794.24 40.6056 1793.68 40.8676C1793.21 41.0845 1793.07 41.0365 1790.09 39.6344L1788.48 38.8747H1781.56L1781.3 39.1403C1780.79 39.6478 1780.84 39.7669 1782.36 41.6674C1783.1 42.5998 1783.8 43.561 1784.46 44.5487C1785.67 46.3963 1785.41 46.2359 1787.16 46.2359C1788.83 46.2359 1788.55 46.3234 1790.48 45.1857L1791.71 44.4637L1802.3 44.4393C1814.62 44.412 1813.29 44.2838 1813.29 45.4981C1813.29 46.6947 1813.61 46.7543 1815.97 45.9976C1817.89 45.382 1820.7 43.563 1820.89 42.8172C1821.15 41.7798 1816.62 39.1689 1814.11 38.9063C1813.43 38.8358 1813.32 38.9665 1813.28 39.8891C1813.23 40.7959 1813.1 40.9648 1812.41 40.9648C1812.01 40.9648 1811.88 40.9235 1811.7 40.746C1811.26 40.306 1811.26 40.2835 1811.96 37.5425C1814.57 27.3201 1813.31 18.9124 1808.2 12.3973C1807.39 11.3586 1804.56 8.52344 1804.11 8.2931C1803.75 8.10652 1801.25 8.02569 1799.84 8.15575ZM1806.93 33.0713C1808.67 33.8766 1809.12 36.0481 1807.83 37.4556C1806.09 39.3616 1803.02 38.1728 1803.02 35.5935C1803.02 33.5368 1805.07 32.2131 1806.93 33.0713Z" fill="#919191"/>
</g>
<g clip-path="url(#clip12_19_170)">
<path fill-rule="evenodd" clip-rule="evenodd" d="M1917.78 0.771819C1916.59 1.18145 1915.13 1.90407 1914.54 2.37751C1913.95 2.85095 1912.42 3.71275 1911.14 4.29194C1908.46 5.50259 1908.3 6.00155 1909.87 8.3092C1911.45 10.6375 1912.69 11.1146 1913.93 9.87721C1914.81 9.00265 1916.79 9.10536 1917.3 10.0516C1917.8 10.9754 1916.9 11.4027 1914.77 11.2623C1912.05 11.0836 1911.4 12.0785 1912.89 14.1497C1914.16 15.9365 1915.06 16.2665 1916.54 15.5038C1918.08 14.7113 1918.44 14.986 1917.69 16.3772C1916.81 18.0272 1916.54 17.9725 1910.29 14.879C1901.9 10.7256 1897.7 10.7749 1895.37 15.0541C1894.52 16.6038 1895.7 18.1731 1897.5 17.8874C1898.92 17.6619 1899.1 17.7367 1899.47 18.6963C1899.73 19.3874 1900.18 19.7544 1900.75 19.7544C1901.23 19.7544 1902.28 20.1604 1903.09 20.657L1904.55 21.5589L1901.92 22.0901C1896.66 23.1512 1895.33 23.7991 1894.32 25.7864C1892.52 29.3309 1893.62 31.5479 1896.67 30.519C1897.94 30.0887 1898.63 30.0334 1898.99 30.3312C1899.31 30.5919 1901.88 30.7214 1905.73 30.6716C1912.33 30.5853 1913.55 30.8296 1915.68 32.6686C1916.68 33.531 1916.68 33.5335 1915.93 34.8073C1910.78 43.5329 1909.82 45.688 1909.68 48.8769C1909.6 50.5986 1909.5 52.0068 1909.47 52.0074C1908.21 52.0196 1902.35 53.3718 1901.68 53.8046C1900.78 54.3965 1900.44 55.5944 1900.19 59.171L1900.1 60.4886L1909.21 60.5604L1918.33 60.6321L1918.19 57.792L1918.05 54.9514L1922.77 49.6749L1927.49 44.3983L1930.61 46.7114C1935.59 50.4108 1936.19 50.7749 1937.81 51.1092C1939.69 51.4981 1940.05 52.2925 1938.51 52.6328C1934.4 53.542 1933.81 54.1887 1933.37 58.2558L1933.1 60.6746L1940.78 60.6588L1948.46 60.643L1950.31 58.666C1951.33 57.5781 1952.16 56.4495 1952.16 56.156C1952.16 55.2504 1947.08 45.7269 1944.7 42.1612C1941.95 38.06 1941.96 38.5414 1944.68 35.8703C1948.58 32.0366 1948.52 30.891 1944.02 21.2951C1940.68 14.174 1940.16 12.2669 1940.99 10.2747C1941.68 8.63557 1943.25 8.25693 1943.25 9.72953C1943.25 13.3335 1949.03 20.2479 1950.31 18.1798C1950.55 17.7908 1948.89 11.0143 1947.86 8.17975C1946.38 4.12055 1941.16 3.40279 1938.24 6.85788L1937.12 8.18096L1935.51 6.61296C1934.62 5.74994 1933.79 4.64079 1933.67 4.14851C1933.5 3.47268 1932.67 2.95548 1930.28 2.04142C1924.47 -0.189042 1921.46 -0.493528 1917.78 0.771819ZM1924.42 1.81959C1929.33 3.0588 1931.49 4.05005 1931.77 5.19142C1931.91 5.77304 1933.2 7.45895 1934.64 8.93762C1937.16 11.5425 1937.25 11.7145 1937.6 14.3807C1938.48 21.1802 1938.48 21.1736 1933.52 22.4C1928.52 23.6374 1928.58 24.0501 1934.99 32.0852C1941.06 39.6943 1945.55 46.3383 1948.25 51.695L1950.21 55.5938L1948.86 57.2554L1947.5 58.9176L1944.5 58.6873C1942.85 58.5608 1940.65 58.4575 1939.61 58.4575C1937.73 58.4575 1937.72 58.4454 1937.89 57.2457C1938.08 55.942 1938.56 55.7366 1944.66 54.343C1948 53.5809 1947.97 53.1828 1944.11 47.056C1934.91 32.4304 1928.27 26.7424 1909.16 17.0779C1904.75 14.845 1903.48 14.3837 1901.29 14.2087C1897.6 13.9139 1897.96 13.1798 1901.7 13.3682C1904.62 13.5146 1905.01 13.6647 1913.75 18.0552C1924.85 23.6271 1924.5 23.5863 1926.53 19.5533C1929.22 14.185 1929.09 13.1232 1925.18 8.1682C1922.25 4.46089 1918.92 4.07315 1912.6 6.69986C1911.25 7.26082 1910.43 7.17391 1910.43 6.47013C1910.43 6.28598 1911.2 5.82895 1912.15 5.45518C1913.1 5.08141 1914.33 4.36001 1914.88 3.85192C1916.04 2.79808 1919.39 1.49991 1921.59 1.25681C1921.82 1.23067 1923.09 1.48411 1924.42 1.81959ZM1916.65 3.22229C1915.54 3.66534 1915.08 4.39161 1915.59 4.89362C1916.12 5.41872 1919.34 4.12116 1919.34 3.38334C1919.34 2.75857 1918 2.67835 1916.65 3.22229ZM1943.08 27.8023C1943.84 29.5612 1943.09 30.7858 1940.43 32.1387C1938.29 33.2266 1938.15 33.1597 1935.09 29.5861C1931.97 25.9536 1932.04 25.4765 1935.88 24.2494C1938.11 23.5359 1938.95 23.0594 1939.29 22.324C1939.76 21.3067 1941.17 23.3536 1943.08 27.8023ZM1911.42 27.7944C1912.12 28.5663 1912.05 28.5797 1906.84 28.7018C1901.11 28.8355 1899.9 27.9282 1905.07 27.3769C1909.59 26.895 1910.67 26.9655 1911.42 27.7944ZM1920.32 33.9917C1921 34.4834 1920.82 34.845 1917.89 38.9303C1913.03 45.7111 1911.93 48.0303 1912.25 50.8083C1912.58 53.5912 1912.36 53.8076 1908.6 54.4488C1905.02 55.0577 1904.48 55.3483 1904.15 56.8415C1903.83 58.2618 1902.73 58.4916 1902.73 57.1357C1902.73 55.2881 1903.75 54.5296 1906.88 54.0391C1911.68 53.2874 1911.64 53.3293 1911.53 49.904C1911.43 46.6987 1913.33 42.0955 1917.29 35.9815C1919.03 33.2867 1919.2 33.1755 1920.32 33.9917Z" fill="#919191"/>
</g>
<g clip-path="url(#clip13_19_170)">
<path d="M2057.19 9.81128C2055.83 16.0796 2055.28 18.9412 2054.06 23.4381C2052.83 27.9349 2052.15 31.7504 2050.65 33.7944C2049.56 35.2934 2047.79 36.2473 2045.88 36.3835C2044.11 36.5198 2042.2 36.5198 2040.43 36.3835C2038.52 36.2473 2036.75 35.2934 2035.66 33.7944C2034.16 31.8867 2033.34 27.7987 2032.25 23.4381C2031.16 19.0775 2030.48 16.0796 2029.12 9.81128L2027.08 9.94755C2026.26 9.94755 2025.58 10.0838 2024.9 10.2201C2024.9 10.2201 2025.71 23.0293 2026.12 28.48C2026.53 34.2033 2027.21 43.742 2027.76 51.1005C2027.76 51.1005 2028.98 51.2368 2030.89 51.373C2032.8 51.5093 2033.89 51.5093 2033.89 51.5093C2034.71 48.2389 2035.8 43.8783 2036.89 41.9705C2037.57 40.8804 2038.79 40.199 2040.16 40.199C2041.11 40.0628 2042.07 40.0628 2043.16 40.0628C2044.11 40.0628 2045.06 40.0628 2046.15 40.199C2047.52 40.199 2048.74 40.8804 2049.42 41.9705C2050.65 43.8783 2051.6 48.2389 2052.42 51.5093C2052.42 51.5093 2053.38 51.5093 2055.42 51.373C2057.46 51.2368 2058.55 51.1005 2058.55 51.1005C2059.23 43.8783 2059.92 34.2033 2060.19 28.48C2060.6 23.0293 2061.42 10.2201 2061.42 10.2201C2060.73 10.0838 2060.05 10.0838 2059.23 9.94755L2057.19 9.81128Z" fill="#919191"/>
<path d="M2073.27 17.4423C2072.45 9.26624 2067 7.63102 2062.23 6.81341C2059.1 6.40461 2055.96 6.13207 2052.83 5.9958C2050.38 5.85953 2044.79 5.72327 2043.16 5.72327C2041.52 5.72327 2035.8 5.85953 2033.48 5.9958C2030.21 5.9958 2027.08 6.26834 2023.94 6.81341C2019.17 7.63102 2013.72 9.4025 2012.9 17.4423C2012.63 20.1677 2012.63 22.893 2012.63 25.6184C2012.63 29.2976 2012.9 32.9769 2013.45 36.6561C2013.72 39.7903 2014.4 42.7882 2015.22 45.9223C2016.45 49.4653 2017.54 50.5554 2018.76 51.5093C2020.94 53.0083 2023.26 53.8259 2025.85 54.2347C2037.3 55.4611 2048.74 55.4611 2060.19 54.2347C2062.78 53.8259 2065.09 53.0083 2067.27 51.5093C2068.64 50.4192 2069.73 49.4653 2070.82 45.9223C2071.64 42.9244 2072.32 39.7903 2072.59 36.6561C2073 32.9769 2073.27 29.2976 2073.41 25.6184C2073.54 22.893 2073.41 20.1677 2073.27 17.4423ZM2070.27 31.0691C2070.14 35.566 2069.45 39.9265 2068.36 44.2871C2067.96 46.3311 2066.87 48.1026 2065.37 49.6016C2063.32 51.2368 2060.87 52.1907 2058.42 52.3269C2048.2 53.4171 2037.98 53.4171 2027.76 52.3269C2025.17 52.1907 2022.85 51.2368 2020.81 49.6016C2019.31 48.1026 2018.35 46.3311 2017.81 44.2871C2016.72 39.9265 2016.17 35.566 2015.9 31.0691C2015.63 26.5723 2015.63 21.9392 2016.04 17.4423C2016.86 12.2641 2019.31 9.81131 2024.76 8.85743C2027.76 8.31236 2030.89 8.03982 2033.89 7.90356C2036.48 7.76729 2040.7 7.63102 2043.16 7.63102C2045.61 7.63102 2049.83 7.63102 2052.42 7.90356C2055.42 8.03982 2058.55 8.31236 2061.55 8.85743C2067 9.81131 2069.45 12.4004 2070.14 17.4423C2070.41 21.9392 2070.54 26.5723 2070.27 31.0691Z" fill="#919191"/>
</g>
<g clip-path="url(#clip14_19_170)">
<path d="M2163.91 0.426697C2147.4 0.426697 2133.95 13.885 2133.95 30.3878C2133.95 46.8906 2147.4 60.3488 2163.91 60.3488C2180.41 60.3488 2193.87 46.8906 2193.87 30.3878C2193.86 13.885 2180.4 0.426697 2163.91 0.426697ZM2163.91 56.8891C2149.31 56.8891 2137.41 44.9877 2137.41 30.3878C2137.41 15.7878 2149.31 3.8864 2163.91 3.8864C2178.51 3.8864 2190.41 15.7878 2190.41 30.3878C2190.41 44.9877 2178.5 56.8891 2163.91 56.8891Z" fill="#919191"/>
<path d="M2155.33 50.6386C2147.45 47.2827 2141.92 39.4637 2141.92 30.3878C2141.92 28.0813 2142.27 25.8555 2142.94 23.7567L2155.33 50.6386ZM2170.01 51.515C2168.07 52.0801 2166.02 52.38 2163.9 52.38C2161.77 52.38 2159.73 52.0801 2157.8 51.515L2163.9 37.2726L2170.01 51.515ZM2184.87 23.7682C2185.54 25.8555 2185.9 28.0813 2185.9 30.3878C2185.9 39.4637 2180.35 47.2827 2172.49 50.627L2184.87 23.7682Z" fill="#919191"/>
<path d="M2174.99 11.4055C2177.68 12.9855 2180 15.1074 2181.81 17.633L2170.85 40.9168L2167.16 32.0254H2160.66L2156.97 40.9168L2146.01 17.633C2147.82 15.1074 2150.14 12.9739 2152.83 11.4055L2160.51 29.3383H2167.31L2174.99 11.4055Z" fill="#919191"/>
<path d="M2163.91 8.39557C2166.05 8.39557 2168.14 8.70694 2170.1 9.28356L2163.91 24.1949L2157.71 9.28356C2159.68 8.70694 2161.75 8.39557 2163.91 8.39557Z" fill="#919191"/>
</g>
<g clip-path="url(#clip15_19_170)">
<path d="M2314.41 28.284C2314.27 27.6139 2314.07 26.9542 2313.8 26.3205C2313.54 25.7023 2313.21 25.105 2312.84 24.544C2312.47 23.9882 2312.03 23.4687 2311.56 22.996C2311.09 22.5233 2310.57 22.0922 2310.01 21.7182C2309.45 21.339 2308.86 21.0169 2308.24 20.7572C2307.61 20.4923 2306.95 20.2845 2306.27 20.1494C2305.58 20.0092 2304.88 19.9365 2304.17 19.9365C2303.46 19.9365 2302.75 20.0092 2302.07 20.1494C2301.4 20.2845 2300.74 20.4923 2300.1 20.7572C2299.48 21.0169 2298.89 21.3442 2298.33 21.7182C2298.11 21.8584 2297.91 22.0143 2297.71 22.1701C2297.51 22.0143 2297.3 21.8636 2297.09 21.7182C2296.53 21.339 2295.94 21.0169 2295.31 20.7572C2294.68 20.4923 2294.03 20.2845 2293.35 20.1494C2292.66 20.0092 2291.95 19.9365 2291.25 19.9365C2290.54 19.9365 2289.83 20.0092 2289.14 20.1494C2288.47 20.2845 2287.81 20.4923 2287.18 20.7572C2286.56 21.0169 2285.96 21.3442 2285.4 21.7182C2285.18 21.8688 2284.96 22.0298 2284.75 22.1961C2284.53 22.0298 2284.32 21.8688 2284.1 21.7182C2283.54 21.339 2282.95 21.0169 2282.32 20.7572C2281.69 20.4923 2281.03 20.2845 2280.36 20.1494C2279.67 20.0092 2278.96 19.9365 2278.25 19.9365C2277.55 19.9365 2276.84 20.0092 2276.15 20.1494C2275.48 20.2845 2274.82 20.4923 2274.19 20.7572C2273.57 21.0169 2272.97 21.3442 2272.41 21.7182C2272.19 21.8688 2271.97 22.0246 2271.77 22.1909C2271.56 22.0246 2271.34 21.8688 2271.12 21.7182C2270.56 21.339 2269.97 21.0169 2269.35 20.7572C2268.72 20.4923 2268.06 20.2845 2267.38 20.1494C2266.7 20.0092 2265.99 19.9365 2265.28 19.9365C2264.57 19.9365 2263.86 20.0092 2263.18 20.1494C2262.51 20.2845 2261.85 20.4923 2261.21 20.7572C2260.59 21.0169 2260 21.3442 2259.44 21.7182C2258.88 22.0922 2258.36 22.5233 2257.89 22.996C2257.41 23.4687 2256.98 23.9882 2256.61 24.544C2256.25 25.105 2255.93 25.7023 2255.67 26.3205C2255.4 26.949 2255.2 27.6087 2255.06 28.284C2254.92 28.9697 2254.85 29.6813 2254.85 30.3878C2254.85 31.0942 2254.92 31.8059 2255.06 32.4915C2255.2 33.1616 2255.4 33.8213 2255.67 34.4499C2255.93 35.068 2256.26 35.6654 2256.63 36.2264C2257 36.777 2257.44 37.3016 2257.91 37.7743C2258.38 38.247 2258.9 38.6782 2259.46 39.0522C2260.02 39.4314 2260.61 39.7534 2261.23 40.0132C2261.86 40.2781 2262.52 40.4859 2263.2 40.6209C2263.88 40.7612 2264.59 40.8339 2265.3 40.8339C2266.01 40.8339 2266.72 40.7612 2267.4 40.6209C2268.07 40.4859 2268.73 40.2781 2269.37 40.0132C2269.99 39.7534 2270.58 39.4262 2271.14 39.0522C2271.36 38.9015 2271.58 38.7457 2271.79 38.5795C2272 38.7457 2272.21 38.9015 2272.43 39.0522C2272.99 39.4314 2273.58 39.7534 2274.21 40.0132C2274.84 40.2781 2275.5 40.4859 2276.17 40.6209C2276.85 40.7612 2277.56 40.8339 2278.27 40.8339C2278.98 40.8339 2279.69 40.7612 2280.37 40.6209C2281.04 40.4859 2281.7 40.2781 2282.34 40.0132C2282.96 39.7534 2283.55 39.4262 2284.11 39.0522C2284.34 38.9015 2284.56 38.7405 2284.77 38.5743C2284.98 38.7405 2285.2 38.9015 2285.42 39.0522C2285.98 39.4314 2286.58 39.7534 2287.2 40.0132C2287.83 40.2781 2288.49 40.4859 2289.16 40.6209C2289.85 40.7612 2290.56 40.8339 2291.27 40.8339C2291.97 40.8339 2292.69 40.7612 2293.37 40.6209C2294.04 40.4859 2294.7 40.2781 2295.33 40.0132C2295.95 39.7534 2296.55 39.4262 2297.11 39.0522C2297.32 38.9119 2297.53 38.7561 2297.73 38.6003C2297.93 38.7561 2298.13 38.9067 2298.35 39.0522C2298.91 39.4314 2299.5 39.7534 2300.12 40.0132C2300.75 40.2781 2301.41 40.4859 2302.08 40.6209C2302.77 40.7612 2303.48 40.8339 2304.19 40.8339C2304.89 40.8339 2305.6 40.7612 2306.29 40.6209C2306.96 40.4859 2307.62 40.2781 2308.25 40.0132C2308.87 39.7534 2309.47 39.4262 2310.03 39.0522C2310.59 38.6782 2311.1 38.247 2311.58 37.7743C2312.05 37.3016 2312.48 36.7822 2312.86 36.2264C2313.23 35.6654 2313.56 35.0732 2313.82 34.4499C2314.08 33.8213 2314.29 33.1616 2314.42 32.4864C2314.56 31.7955 2314.64 31.089 2314.64 30.3826C2314.62 29.6813 2314.55 28.9697 2314.41 28.284ZM2260.74 23.6349C2261.18 23.3389 2261.64 23.0895 2262.12 22.8817C2262.61 22.674 2263.13 22.5129 2263.65 22.409C2264.18 22.3 2264.74 22.2428 2265.29 22.2428C2265.84 22.2428 2266.4 22.3 2266.93 22.409C2267.46 22.5181 2267.97 22.674 2268.46 22.8817C2268.94 23.0843 2269.41 23.3389 2269.84 23.6349C2269.93 23.6973 2270.03 23.7648 2270.12 23.8323C2269.93 24.0609 2269.76 24.2998 2269.6 24.544C2269.22 25.105 2268.89 25.6972 2268.63 26.3205C2268.37 26.949 2268.16 27.6087 2268.03 28.284C2267.89 28.9697 2267.81 29.6813 2267.81 30.3878C2267.81 31.0942 2267.89 31.8059 2268.03 32.4915C2268.16 33.1616 2268.37 33.8213 2268.63 34.4499C2268.89 35.068 2269.22 35.6654 2269.6 36.2264C2269.76 36.4705 2269.94 36.7095 2270.13 36.938C2270.03 37.0056 2269.94 37.0731 2269.84 37.1406C2269.4 37.4367 2268.94 37.686 2268.46 37.8938C2267.96 38.1016 2267.45 38.2626 2266.93 38.3665C2266.4 38.4756 2265.84 38.5327 2265.29 38.5327C2264.74 38.5327 2264.18 38.4756 2263.65 38.3665C2263.12 38.2574 2262.61 38.1016 2262.12 37.8938C2261.64 37.6912 2261.18 37.4367 2260.74 37.1406C2260.31 36.8497 2259.9 36.5121 2259.53 36.1485C2259.17 35.7797 2258.83 35.3745 2258.54 34.9433C2258.25 34.507 2258 34.0447 2257.79 33.5616C2257.58 33.0681 2257.42 32.5539 2257.32 32.0344C2257.21 31.4994 2257.15 30.9436 2257.15 30.393C2257.15 29.8424 2257.21 29.2865 2257.32 28.7515C2257.42 28.2269 2257.58 27.7126 2257.79 27.2243C2257.99 26.7412 2258.25 26.2737 2258.54 25.8426C2258.83 25.4115 2259.17 25.0063 2259.53 24.6375C2259.9 24.2635 2260.31 23.9258 2260.74 23.6349ZM2271.51 34.9433C2271.22 34.507 2270.97 34.0447 2270.76 33.5616C2270.55 33.0681 2270.39 32.5539 2270.29 32.0344C2270.18 31.4994 2270.12 30.9436 2270.12 30.393C2270.12 29.8424 2270.18 29.2865 2270.29 28.7515C2270.4 28.2269 2270.55 27.7126 2270.76 27.2243C2270.96 26.7412 2271.22 26.2737 2271.51 25.8426C2271.6 25.7179 2271.69 25.5933 2271.78 25.4686C2271.88 25.5933 2271.96 25.7179 2272.05 25.8426C2272.35 26.2789 2272.6 26.7412 2272.81 27.2243C2273.01 27.7178 2273.17 28.2321 2273.28 28.7515C2273.39 29.2865 2273.44 29.8424 2273.44 30.393C2273.44 30.9436 2273.39 31.4994 2273.28 32.0344C2273.17 32.5591 2273.01 33.0733 2272.81 33.5616C2272.6 34.0447 2272.35 34.5122 2272.05 34.9433C2271.97 35.068 2271.88 35.1927 2271.78 35.3173C2271.69 35.1979 2271.6 35.0732 2271.51 34.9433ZM2273.96 36.2316C2274.34 35.6706 2274.66 35.0784 2274.92 34.4551C2275.18 33.8265 2275.39 33.1668 2275.53 32.4915C2275.67 31.8059 2275.74 31.0942 2275.74 30.3878C2275.74 29.6813 2275.67 28.9697 2275.53 28.284C2275.39 27.6139 2275.18 26.9542 2274.92 26.3205C2274.66 25.7023 2274.33 25.105 2273.96 24.544C2273.79 24.2998 2273.62 24.0609 2273.43 23.8323C2273.52 23.7648 2273.62 23.6973 2273.71 23.6349C2274.15 23.3389 2274.61 23.0895 2275.09 22.8817C2275.58 22.674 2276.1 22.5129 2276.62 22.409C2277.15 22.3 2277.71 22.2428 2278.26 22.2428C2278.81 22.2428 2279.37 22.3 2279.9 22.409C2280.43 22.5181 2280.94 22.674 2281.43 22.8817C2281.91 23.0843 2282.38 23.3389 2282.81 23.6349C2282.91 23.7025 2283.01 23.77 2283.1 23.8427C2282.92 24.0713 2282.74 24.305 2282.58 24.544C2282.2 25.105 2281.88 25.6972 2281.62 26.3205C2281.36 26.949 2281.15 27.6087 2281.01 28.284C2280.87 28.9697 2280.8 29.6813 2280.8 30.3878C2280.8 31.0942 2280.87 31.8059 2281.01 32.4915C2281.15 33.1616 2281.36 33.8213 2281.62 34.4499C2281.88 35.068 2282.21 35.6654 2282.58 36.2264C2282.75 36.4705 2282.92 36.7043 2283.11 36.9328C2283.01 37.0056 2282.91 37.0731 2282.81 37.1406C2282.37 37.4367 2281.91 37.686 2281.43 37.8938C2280.94 38.1016 2280.42 38.2626 2279.9 38.3665C2279.37 38.4756 2278.81 38.5327 2278.26 38.5327C2277.71 38.5327 2277.15 38.4756 2276.62 38.3665C2276.09 38.2574 2275.58 38.1016 2275.09 37.8938C2274.61 37.6912 2274.15 37.4367 2273.71 37.1406C2273.62 37.0783 2273.52 37.0107 2273.43 36.938C2273.62 36.7147 2273.79 36.4757 2273.96 36.2316ZM2284.5 34.9433C2284.2 34.507 2283.95 34.0447 2283.75 33.5616C2283.54 33.0681 2283.38 32.5539 2283.27 32.0344C2283.16 31.4994 2283.11 30.9436 2283.11 30.393C2283.11 29.8424 2283.16 29.2865 2283.27 28.7515C2283.38 28.2269 2283.54 27.7126 2283.75 27.2243C2283.95 26.7412 2284.2 26.2737 2284.5 25.8426C2284.58 25.7179 2284.67 25.5985 2284.76 25.479C2284.85 25.5985 2284.93 25.7179 2285.02 25.8426C2285.31 26.2789 2285.56 26.7412 2285.77 27.2243C2285.98 27.7178 2286.14 28.2321 2286.24 28.7515C2286.35 29.2865 2286.41 29.8424 2286.41 30.393C2286.41 30.9436 2286.35 31.4994 2286.24 32.0344C2286.13 32.5591 2285.98 33.0733 2285.77 33.5616C2285.57 34.0447 2285.31 34.5122 2285.02 34.9433C2284.93 35.068 2284.85 35.1875 2284.76 35.307C2284.67 35.1875 2284.58 35.068 2284.5 34.9433ZM2286.93 36.2316C2287.31 35.6706 2287.63 35.0784 2287.89 34.4551C2288.16 33.8265 2288.36 33.1668 2288.5 32.4915C2288.64 31.8059 2288.71 31.0942 2288.71 30.3878C2288.71 29.6813 2288.64 28.9697 2288.5 28.284C2288.36 27.6139 2288.16 26.9542 2287.89 26.3205C2287.63 25.7023 2287.3 25.105 2286.93 24.544C2286.77 24.2998 2286.59 24.0661 2286.41 23.8375C2286.5 23.7648 2286.6 23.6973 2286.7 23.6297C2287.14 23.3337 2287.6 23.0843 2288.08 22.8765C2288.58 22.6688 2289.09 22.5077 2289.61 22.4038C2290.14 22.2948 2290.7 22.2376 2291.25 22.2376C2291.8 22.2376 2292.36 22.2948 2292.89 22.4038C2293.42 22.5129 2293.93 22.6688 2294.42 22.8765C2294.9 23.0791 2295.37 23.3337 2295.8 23.6297C2295.88 23.6869 2295.97 23.744 2296.05 23.8012C2295.85 24.0401 2295.67 24.2843 2295.5 24.5388C2295.12 25.0998 2294.8 25.692 2294.54 26.3153C2294.27 26.9438 2294.07 27.6035 2293.93 28.2788C2293.79 28.9645 2293.72 29.6761 2293.72 30.3826C2293.72 31.089 2293.79 31.8007 2293.93 32.4864C2294.07 33.1564 2294.27 33.8161 2294.54 34.4447C2294.8 35.0628 2295.13 35.6602 2295.5 36.2212C2295.67 36.4757 2295.85 36.7199 2296.05 36.9588C2295.97 37.0211 2295.88 37.0783 2295.8 37.1354C2295.37 37.4315 2294.9 37.6808 2294.42 37.8886C2293.93 38.0964 2293.41 38.2574 2292.89 38.3613C2292.36 38.4704 2291.8 38.5275 2291.25 38.5275C2290.7 38.5275 2290.14 38.4704 2289.61 38.3613C2289.09 38.2522 2288.57 38.0964 2288.08 37.8886C2287.6 37.686 2287.14 37.4315 2286.7 37.1354C2286.6 37.0679 2286.5 37.0004 2286.41 36.9276C2286.59 36.7095 2286.76 36.4705 2286.93 36.2316ZM2297.42 34.9433C2297.12 34.507 2296.87 34.0447 2296.66 33.5616C2296.46 33.0681 2296.3 32.5539 2296.19 32.0344C2296.08 31.4994 2296.03 30.9436 2296.03 30.393C2296.03 29.8424 2296.08 29.2865 2296.19 28.7515C2296.3 28.2269 2296.46 27.7126 2296.66 27.2243C2296.87 26.7412 2297.12 26.2737 2297.42 25.8426C2297.51 25.7023 2297.61 25.5673 2297.71 25.4322C2297.82 25.5673 2297.92 25.7023 2298.01 25.8426C2298.31 26.2789 2298.55 26.7412 2298.76 27.2243C2298.97 27.7178 2299.13 28.2321 2299.24 28.7515C2299.34 29.2865 2299.4 29.8424 2299.4 30.393C2299.4 30.9436 2299.34 31.4994 2299.24 32.0344C2299.13 32.5591 2298.97 33.0733 2298.76 33.5616C2298.56 34.0447 2298.31 34.5122 2298.01 34.9433C2297.92 35.0836 2297.82 35.2187 2297.71 35.3537C2297.61 35.2187 2297.51 35.0836 2297.42 34.9433ZM2299.92 36.2316C2300.29 35.6706 2300.62 35.0784 2300.88 34.4551C2301.14 33.8265 2301.35 33.1668 2301.48 32.4915C2301.62 31.8059 2301.7 31.0942 2301.7 30.3878C2301.7 29.6813 2301.62 28.9697 2301.48 28.284C2301.35 27.6139 2301.14 26.9542 2300.88 26.3205C2300.62 25.7023 2300.29 25.105 2299.92 24.544C2299.74 24.2894 2299.56 24.0453 2299.37 23.8064C2299.45 23.7492 2299.54 23.6869 2299.62 23.6297C2300.06 23.3337 2300.52 23.0843 2301 22.8765C2301.49 22.6688 2302.01 22.5077 2302.53 22.4038C2303.06 22.2948 2303.62 22.2376 2304.17 22.2376C2304.72 22.2376 2305.28 22.2948 2305.81 22.4038C2306.34 22.5129 2306.85 22.6688 2307.34 22.8765C2307.82 23.0791 2308.29 23.3337 2308.72 23.6297C2309.15 23.9206 2309.56 24.2583 2309.93 24.6271C2310.29 24.9959 2310.63 25.4011 2310.92 25.8322C2311.21 26.2685 2311.46 26.7309 2311.67 27.2139C2311.88 27.7074 2312.04 28.2217 2312.14 28.7411C2312.25 29.2762 2312.31 29.832 2312.31 30.3826C2312.31 30.9332 2312.25 31.489 2312.14 32.024C2312.03 32.5487 2311.88 33.0629 2311.67 33.5512C2311.47 34.0343 2311.21 34.5018 2310.92 34.933C2310.63 35.3641 2310.29 35.7693 2309.93 36.1381C2309.56 36.5069 2309.15 36.8393 2308.72 37.1302C2308.28 37.4263 2307.82 37.6756 2307.34 37.8834C2306.85 38.0912 2306.33 38.2522 2305.81 38.3561C2305.28 38.4652 2304.72 38.5223 2304.17 38.5223C2303.62 38.5223 2303.06 38.4652 2302.53 38.3561C2302 38.247 2301.49 38.0912 2301 37.8834C2300.52 37.6808 2300.06 37.4263 2299.62 37.1302C2299.54 37.0731 2299.45 37.0159 2299.37 36.9536C2299.56 36.7303 2299.74 36.4861 2299.92 36.2316Z" fill="#919191"/>
</g>
<path d="M2405.4 57.8392C2390.24 57.8392 2377.95 45.5475 2377.95 30.3878C2377.95 15.228 2390.24 2.93633 2405.4 2.93633C2420.56 2.93633 2432.85 15.228 2432.85 30.3878C2432.85 45.5475 2420.56 57.8392 2405.4 57.8392ZM2405.4 1.48865C2389.43 1.48865 2376.5 14.4222 2376.5 30.3878C2376.5 46.3533 2389.43 59.2869 2405.4 59.2869C2421.37 59.2869 2434.3 46.3533 2434.3 30.3878C2434.3 14.4222 2421.35 1.48865 2405.4 1.48865ZM2405.4 58.0714C2409.14 58.0714 2412.76 57.3338 2416.18 55.8998C2419.47 54.5068 2422.43 52.5128 2424.97 49.9725C2427.51 47.4322 2429.51 44.4686 2430.9 41.1771C2432.35 37.7628 2433.07 34.1435 2433.07 30.4014C2433.07 26.6593 2432.33 23.0401 2430.9 19.6257C2429.51 16.3343 2427.51 13.3706 2424.97 10.8303C2422.43 8.29004 2419.47 6.29606 2416.18 4.903C2412.76 3.45532 2409.14 2.73147 2405.4 2.73147C2401.66 2.73147 2398.04 3.46897 2394.62 4.903C2391.33 6.29606 2388.37 8.29004 2385.83 10.8303C2383.29 13.3706 2381.29 16.3343 2379.9 19.6257C2378.45 23.0401 2377.73 26.6593 2377.73 30.4014C2377.73 34.1435 2378.47 37.7628 2379.9 41.1771C2381.29 44.4686 2383.29 47.4322 2385.83 49.9725C2388.37 52.5128 2391.33 54.5068 2394.62 55.8998C2398.04 57.3338 2401.66 58.0714 2405.4 58.0714ZM2405.4 1.72082C2409.27 1.72082 2413.02 2.47198 2416.56 3.9743C2419.97 5.42199 2423.05 7.48426 2425.67 10.1201C2428.3 12.756 2430.37 15.8153 2431.81 19.2296C2433.3 22.7669 2434.07 26.5227 2434.07 30.3878C2434.07 34.2528 2433.32 38.0086 2431.81 41.5459C2430.37 44.9602 2428.3 48.0195 2425.67 50.6554C2423.03 53.2913 2419.97 55.3535 2416.56 56.8012C2413.02 58.2899 2409.27 59.0547 2405.4 59.0547C2401.54 59.0547 2397.78 58.3035 2394.24 56.8012C2390.83 55.3535 2387.75 53.2913 2385.13 50.6554C2382.51 48.0195 2380.43 44.9602 2378.99 41.5459C2377.5 38.0086 2376.73 34.2528 2376.73 30.3878C2376.73 26.5227 2377.5 22.7669 2378.99 19.2296C2380.43 15.8153 2382.5 12.756 2385.13 10.1201C2387.77 7.48426 2390.83 5.42199 2394.24 3.9743C2397.77 2.47198 2401.52 1.72082 2405.4 1.72082Z" fill="#919191"/>
<path d="M2388.37 12.7287C2388.01 12.4282 2387.45 12.4146 2387.21 12.715L2385.08 15.2553L2386.39 16.3616L2388.49 13.8486C2388.77 13.5208 2388.77 13.0565 2388.37 12.7287ZM2390.95 15.665C2391.25 15.3099 2391.2 14.7636 2390.77 14.4086C2390.39 14.0944 2389.83 14.1764 2389.58 14.4768L2387.35 17.14L2388.74 18.3009L2390.95 15.665Z" fill="#919191"/>
<path d="M2405.4 2.93634C2390.24 2.93634 2377.95 15.228 2377.95 30.3878C2377.95 45.5475 2390.24 57.8392 2405.4 57.8392C2420.56 57.8392 2432.85 45.5475 2432.85 30.3878C2432.85 15.228 2420.56 2.93634 2405.4 2.93634ZM2401.19 3.94699H2403.38L2405.36 9.12315L2407.33 3.94699H2409.51V11.1991H2408.06V6.13218L2406.15 11.1991H2404.57L2402.65 6.13218V11.1991H2401.21L2401.19 3.94699ZM2382.89 15.8836L2386.43 11.6634C2387.17 10.7894 2388.19 10.0928 2389.16 10.9123C2389.46 11.1718 2389.58 11.2537 2389.95 11.9093C2390.04 12.1414 2390.1 12.5785 2389.94 12.9882C2390.79 12.4692 2391.69 12.6331 2392.28 13.2067C2393.18 14.0808 2393.04 15.0914 2392.19 16.1021L2388.46 20.5544L2382.89 15.8836ZM2405.4 48.798C2395.24 48.798 2386.99 40.5625 2386.99 30.3878C2386.99 20.2266 2395.23 11.9776 2405.4 11.9776C2415.56 11.9776 2423.81 20.213 2423.81 30.3878C2423.8 40.5489 2415.56 48.798 2405.4 48.798ZM2422.42 20.2949L2421.17 18.7926L2423.55 15.2144L2423.54 15.2007L2419.58 16.8942L2418.32 15.4056L2422.46 9.92894L2423.51 11.1991L2420.91 14.6817L2424.94 12.8926L2426.08 14.2583L2423.59 17.8776L2427.48 15.9655L2428.54 17.2357L2422.42 20.2949Z" fill="#919191"/>
<path d="M2388.08 30.3878H2405.39V13.0838C2395.84 13.0838 2388.08 20.8276 2388.08 30.3878ZM2405.4 30.3878V47.6917C2414.96 47.6917 2422.7 39.948 2422.7 30.3878H2405.4Z" fill="#919191"/>
<defs>
<clipPath id="clip0_19_170">
<rect width="60.7755" height="60.7755" fill="white" transform="translate(30.0005)"/>
</clipPath>
<clipPath id="clip1_19_170">
<rect width="60.7755" height="60.7755" fill="white" transform="translate(442.686)"/>
</clipPath>
<clipPath id="clip2_19_170">
<rect width="60.7755" height="60.7755" fill="white" transform="translate(563.461)"/>
</clipPath>
<clipPath id="clip3_19_170">
<rect width="60.7755" height="60.7755" fill="white" transform="translate(684.237)"/>
</clipPath>
<clipPath id="clip4_19_170">
<rect width="60.7755" height="60.7755" fill="white" transform="translate(805.012)"/>
</clipPath>
<clipPath id="clip5_19_170">
<rect width="60.7755" height="60.7755" fill="white" transform="translate(925.788)"/>
</clipPath>
<clipPath id="clip6_19_170">
<rect width="60.7755" height="60.7755" fill="white" transform="translate(1046.56)"/>
</clipPath>
<clipPath id="clip7_19_170">
<rect width="60.7755" height="60.7755" fill="white" transform="translate(1167.34)"/>
</clipPath>
<clipPath id="clip8_19_170">
<rect width="60.7755" height="60.7755" fill="white" transform="translate(1288.11)"/>
</clipPath>
<clipPath id="clip9_19_170">
<rect width="60.7755" height="60.7755" fill="white" transform="translate(1408.89)"/>
</clipPath>
<clipPath id="clip10_19_170">
<rect width="60.7755" height="60.7755" fill="white" transform="translate(1650.44)"/>
</clipPath>
<clipPath id="clip11_19_170">
<rect width="60.7755" height="60.7755" fill="white" transform="translate(1771.22)"/>
</clipPath>
<clipPath id="clip12_19_170">
<rect width="60.7755" height="60.7755" fill="white" transform="translate(1891.99)"/>
</clipPath>
<clipPath id="clip13_19_170">
<rect width="60.7755" height="60.7755" fill="white" transform="translate(2012.77)"/>
</clipPath>
<clipPath id="clip14_19_170">
<rect width="60.7755" height="60.7755" fill="white" transform="translate(2133.54)"/>
</clipPath>
<clipPath id="clip15_19_170">
<rect width="60.7755" height="60.7755" fill="white" transform="translate(2254.32)"/>
</clipPath>
</defs>
</svg>
