<svg width="42" height="42" viewBox="0 0 42 42" fill="none" xmlns="http://www.w3.org/2000/svg">
  <path d="M38.5 22.5C38.5 23.0523 38.0523 23.5 37.5 23.5H24.5C23.9477 23.5 23.5 23.9477 23.5 24.5V37.5C23.5 38.0523 23.0523 38.5 22.5 38.5H19.5C18.9477 38.5 18.5 38.0523 18.5 37.5V24.5C18.5 23.9477 18.0523 23.5 17.5 23.5H4.5C3.94772 23.5 3.5 23.0523 3.5 22.5V19.5C3.5 18.9477 3.94772 18.5 4.5 18.5H17.5C18.0523 18.5 18.5 18.0523 18.5 17.5V4.5C18.5 3.94772 18.9477 3.5 19.5 3.5H22.5C23.0523 3.5 23.5 3.94772 23.5 4.5V17.5C23.5 18.0523 23.9477 18.5 24.5 18.5H37.5C38.0523 18.5 38.5 18.9477 38.5 19.5V22.5Z" fill="#9B0000" />
</svg>