<svg width="163" height="22" viewBox="0 0 163 22" fill="none" xmlns="http://www.w3.org/2000/svg">
<path d="M21 10.4974V20.9975H10.5C9.455 20.9993 8.41583 20.8423 7.41797 20.5321L8.69851 18.7041L9.21701 17.9589L9.5932 17.4235H17.4261V10.4974C17.4261 10.3551 17.4261 10.2152 17.4116 10.0729C17.3971 9.93064 17.3946 9.83178 17.3801 9.73289C17.3729 9.6399 17.3608 9.54732 17.344 9.45557V9.34944C17.3295 9.26501 17.3126 9.17821 17.2933 9.09382C17.2881 9.05449 17.279 9.01578 17.2669 8.97807C17.2521 8.8966 17.2327 8.81613 17.209 8.73686C17.1824 8.62834 17.1559 8.52709 17.1197 8.42336C17.0931 8.32859 17.0618 8.23523 17.0256 8.1436C16.9974 8.05669 16.9643 7.97134 16.9268 7.88798C16.8954 7.81564 16.8641 7.74091 16.8352 7.66854C16.5946 7.13188 16.2859 6.62851 15.9164 6.17092C15.8375 6.07446 15.7572 5.98523 15.6752 5.90323C15.5231 5.73394 15.3622 5.57292 15.1929 5.4209C14.8847 5.13656 14.5513 4.88068 14.1968 4.65641C14.0281 4.54549 13.8496 4.4466 13.6712 4.35258C13.6595 4.3427 13.6452 4.33605 13.6302 4.33328C13.5627 4.29949 13.4951 4.26335 13.4252 4.23199C13.307 4.17891 13.184 4.12347 13.0635 4.07522C12.7658 3.95877 12.4614 3.8605 12.1519 3.781C11.9136 3.72204 11.672 3.67695 11.4284 3.64597C11.3754 3.64597 11.3223 3.6339 11.2644 3.62426C11.2066 3.6146 11.086 3.60497 10.9919 3.60256C10.8304 3.58809 10.664 3.58326 10.5096 3.58326C9.37494 3.5804 8.25694 3.85647 7.254 4.38719C6.25106 4.91786 5.39395 5.68697 4.75801 6.62674C4.63036 6.80891 4.5144 6.99902 4.41079 7.19587C4.14177 7.69291 3.93447 8.22098 3.79339 8.76825C3.7351 8.99058 3.68919 9.21601 3.65593 9.44351C3.60053 9.79204 3.57311 10.1445 3.57394 10.4974C3.57394 10.6083 3.57394 10.7216 3.57394 10.8326C3.57394 10.9435 3.57394 11.0159 3.59082 11.1051C3.61128 11.3478 3.64428 11.5893 3.6897 11.8286L2.86254 13.0079L1.74357 14.6164L1.20579 15.3856C0.46465 13.9758 0.0540277 12.4156 0.00497658 10.8235C-0.0440569 9.2313 0.269786 7.64887 0.922736 6.19596C1.57568 4.74304 2.55063 3.4577 3.77377 2.43729C4.99691 1.41689 6.43616 0.688142 7.98259 0.306251C9.52899 -0.0756579 11.1421 -0.100708 12.6996 0.232979C14.2571 0.56667 15.7183 1.25036 16.9726 2.2323C18.2267 3.21421 19.2412 4.46866 19.9388 5.90059C20.6366 7.33252 20.9995 8.90445 21 10.4974Z" fill="url(#paint0_linear_3786_424)"/>
<path d="M15.1929 10.4974V15.1904H11.6165V10.4974C11.6165 10.2766 11.551 10.0607 11.4283 9.87709C11.3057 9.69347 11.1313 9.55037 10.9272 9.46585C10.7232 9.38133 10.4987 9.35923 10.2822 9.40231C10.0655 9.4454 9.86661 9.55173 9.71044 9.70789C9.5543 9.86404 9.44794 10.063 9.40486 10.2796C9.36177 10.4962 9.38389 10.7207 9.46838 10.9248C9.55291 11.1287 9.69603 11.3032 9.87962 11.4258C10.0632 11.5485 10.2791 11.614 10.5 11.614C10.6824 11.6135 10.8619 11.5689 11.0233 11.4838L8.68164 14.8214L8.44049 15.1904L6.87781 17.426L5.33199 19.6326L4.36737 21H0L3.57394 15.8994L4.70015 14.286L5.80946 12.7089L6.13986 12.2266C5.85894 11.5151 5.75611 10.7457 5.84031 9.98541C5.92451 9.22514 6.19316 8.49692 6.62295 7.86413C7.05273 7.23135 7.63057 6.71315 8.30631 6.35458C8.98197 5.99605 9.73501 5.80801 10.5 5.80685C10.8762 5.80532 11.2511 5.84989 11.6165 5.9395C12.6367 6.18938 13.5435 6.77433 14.192 7.6007C14.8404 8.42707 15.1929 9.44705 15.1929 10.4974Z" fill="url(#paint1_linear_3786_424)"/>
<path d="M33.246 1.42672C32.9705 1.4388 32.6962 1.46825 32.4242 1.51495C31.4034 1.64492 30.4343 2.03333 29.6124 2.64198C28.8696 3.21201 28.2917 3.96315 27.937 4.82063C27.5561 5.74218 27.3659 6.72899 27.3785 7.72345C27.3437 9.17168 27.7722 10.5943 28.6047 11.791C29.1593 12.5486 29.9201 13.1378 30.8002 13.4911L27 21.1351H30.338L33.8493 14.0578H39.1776V21.1351H42.1111V1.40785H33.9715L33.246 1.42672ZM39.1713 4.13432V11.3755H34.0871C33.9007 11.3755 33.6889 11.3755 33.4448 11.3755C33.2286 11.3594 33.0139 11.3257 32.8031 11.2747C32.2571 11.1661 31.7549 10.9035 31.3587 10.5191C31.0057 10.1603 30.7362 9.73071 30.569 9.2598C30.4102 8.79061 30.3279 8.29963 30.325 7.80532C30.3274 7.31499 30.4097 6.82811 30.569 6.36334C30.7356 5.8921 31.0048 5.46229 31.3587 5.10398C31.7544 4.71762 32.2561 4.45283 32.8031 4.34216C33.0135 4.28899 33.2282 4.25318 33.4448 4.23506C33.6697 4.23506 33.8815 4.20356 34.0871 4.20356L39.1713 4.13432Z" fill="white"/>
<path d="M46.0531 21.1351H49.1722V4.10107H60.0162V21.1351H63.1353V1.40785H46.0531V21.1351Z" fill="white"/>
<path d="M80.9403 2.0948C79.3103 1.22676 77.4788 0.771484 75.6179 0.771484C73.757 0.771484 71.9266 1.22676 70.2966 2.0948C68.8251 2.98134 67.6558 4.26445 66.9302 5.78605C66.1209 7.50681 65.7224 9.38168 65.7666 11.2715C65.7224 13.1613 66.1209 15.0362 66.9302 16.7569C67.6558 18.2785 68.8251 19.5617 70.2966 20.4483C71.9266 21.3162 73.757 21.7715 75.6179 21.7715C77.4788 21.7715 79.3103 21.3162 80.9403 20.4483C82.4152 19.5672 83.5879 18.2826 84.3066 16.7569C85.116 15.0362 85.5133 13.1613 85.4703 11.2715C85.5133 9.38168 85.116 7.50681 84.3066 5.78605C83.5879 4.26049 82.4152 2.97573 80.9403 2.0948ZM81.513 15.3229C81.075 16.423 80.3052 17.3707 79.3035 18.0431C78.2066 18.721 76.9185 19.0515 75.6179 18.9885C74.3116 19.0217 73.0246 18.6794 71.9198 18.0046C70.9147 17.3432 70.1404 16.404 69.6978 15.31C69.1817 14.0237 68.9349 12.6509 68.9723 11.2715C68.9485 9.87827 69.2043 8.49382 69.7239 7.19441C70.163 6.0946 70.9316 5.14725 71.9334 4.47419C73.0314 3.80113 74.3195 3.47529 75.6179 3.54171C76.9207 3.50117 78.2055 3.84189 79.3035 4.51925C80.303 5.18305 81.0727 6.12181 81.513 7.21369C82.0258 8.50748 82.2703 9.88642 82.2307 11.2715C82.2669 12.6543 82.0224 14.0306 81.513 15.3229Z" fill="white"/>
<path d="M101.207 3.1784C100.054 2.24472 98.6342 1.66515 97.1323 1.51502C96.635 1.44972 96.1332 1.41389 95.6314 1.40785C95.1117 1.40785 94.7556 1.40785 94.5652 1.40785H88.1015V21.1351H94.5394C94.7298 21.1351 95.0849 21.1351 95.6057 21.1351C96.1074 21.129 96.6081 21.093 97.1065 21.0278C98.6062 20.8796 100.025 20.3046 101.18 19.3773C102.302 18.4365 103.161 17.2435 103.682 15.9056C104.257 14.4243 104.542 12.8546 104.524 11.2747C104.554 9.69602 104.276 8.12589 103.708 6.64372C103.186 5.30856 102.327 4.11801 101.207 3.1784ZM100.911 14.4502C100.642 15.3867 100.15 16.2499 99.4698 16.9704C98.791 17.6628 97.8939 18.1232 96.915 18.281C96.5196 18.337 96.1231 18.3727 95.7233 18.388C95.2764 18.388 94.8877 18.388 94.5652 18.388H91.1681V4.12351H95.6908C96.0929 4.13269 96.4939 4.17273 96.8892 4.24321C97.8536 4.38481 98.7418 4.82785 99.416 5.50326C100.097 6.22551 100.594 7.08784 100.871 8.02357C101.495 10.12 101.495 12.3411 100.871 14.4376L100.911 14.4502Z" fill="white"/>
<path d="M120.534 10.0028C119.71 9.41533 118.734 9.054 117.713 8.95758C117.43 8.91842 117.146 8.89318 116.86 8.88197H110.796V4.13432H121.23V1.40785H107.812V21.1351H116.905C117.187 21.1238 117.467 21.0983 117.745 21.0596C118.743 20.9844 119.7 20.6466 120.511 20.0834C121.32 19.5201 121.953 18.7534 122.338 17.8673C122.734 16.9646 122.932 15.994 122.922 15.015C122.933 14.0352 122.732 13.0639 122.332 12.1625C121.935 11.3065 121.317 10.5627 120.534 10.0028ZM119.261 17.0739C119.055 17.4137 118.77 17.7036 118.428 17.9218C118.088 18.14 117.699 18.2807 117.293 18.3333C117.083 18.371 116.86 18.3962 116.636 18.4151C116.414 18.434 116.19 18.4151 115.981 18.4151H110.764V11.5643H116.636C116.857 11.5773 117.076 11.6068 117.293 11.6526C117.698 11.7059 118.087 11.847 118.428 12.0651C118.769 12.2833 119.054 12.5728 119.261 12.9118C119.631 13.5457 119.825 14.2601 119.825 14.9866C119.825 15.7131 119.631 16.4276 119.261 17.0614V17.0739Z" fill="white"/>
<path d="M140.077 2.0948C138.447 1.22676 136.616 0.771484 134.755 0.771484C132.893 0.771484 131.063 1.22676 129.433 2.0948C127.959 2.97892 126.786 4.26258 126.061 5.78605C125.254 7.50781 124.857 9.38202 124.896 11.2715C124.857 13.1611 125.254 15.0352 126.061 16.7569C126.786 18.2804 127.959 19.564 129.433 20.4483C131.063 21.3162 132.893 21.7715 134.755 21.7715C136.616 21.7715 138.447 21.3162 140.077 20.4483C141.55 19.5655 142.722 18.2813 143.443 16.7569C144.247 15.0347 144.643 13.1605 144.601 11.2715C144.643 9.38246 144.247 7.50836 143.443 5.78605C142.722 4.2617 141.55 2.97749 140.077 2.0948ZM140.649 15.3229C140.209 16.4217 139.44 17.3687 138.441 18.0431C137.343 18.7202 136.055 19.0506 134.755 18.9885C133.447 19.02 132.158 18.6777 131.05 18.0046C130.047 17.3414 129.274 16.4028 128.828 15.31C128.311 14.0237 128.065 12.6509 128.103 11.2715C128.084 9.87816 128.342 8.49426 128.862 7.19441C129.297 6.09328 130.067 5.14516 131.07 4.47419C132.168 3.80036 133.456 3.47441 134.755 3.54171C136.057 3.50239 137.342 3.84299 138.441 4.51925C139.437 5.18504 140.207 6.12324 140.649 7.21369C141.167 8.5001 141.418 9.87232 141.387 11.2523C141.42 12.6428 141.169 14.0259 140.649 15.3229Z" fill="white"/>
<path d="M162.427 4.80497C162.06 3.94624 161.465 3.1944 160.701 2.62425C159.859 2.01826 158.869 1.62971 157.825 1.49605C157.546 1.44974 157.264 1.42026 156.982 1.40785H147.889V21.1351H150.884V14.0509H156.232C156.422 14.0509 156.672 14.0509 156.969 14.0509C157.264 14.0509 157.555 14.0005 157.825 13.969C158.869 13.8353 159.859 13.4469 160.701 12.8408C161.464 12.2692 162.059 11.5178 162.427 10.66C162.818 9.73114 163.012 8.73714 162.999 7.73569C163.016 6.73186 162.821 5.73516 162.427 4.80497ZM159.701 9.16003C159.536 9.63322 159.262 10.0644 158.898 10.4206C158.496 10.8067 157.981 11.0699 157.422 11.1769C157.206 11.2269 156.985 11.2606 156.765 11.2777C156.527 11.2777 156.317 11.2777 156.106 11.2777H150.872V4.1179H156.106C156.296 4.1179 156.507 4.1179 156.765 4.14953C156.987 4.16853 157.207 4.20438 157.422 4.25663C157.982 4.36621 158.496 4.63147 158.898 5.01927C159.263 5.37489 159.537 5.8062 159.701 6.27972C159.862 6.74525 159.944 7.23259 159.944 7.72306C159.942 8.21126 159.859 8.69612 159.701 9.16003Z" fill="white"/>
<defs>
<linearGradient id="paint0_linear_3786_424" x1="5.89628" y1="19.3236" x2="18.8943" y2="3.83387" gradientUnits="userSpaceOnUse">
<stop stop-color="#FFD16C"/>
<stop offset="0.22" stop-color="#FFC861"/>
<stop offset="0.61" stop-color="#FFB145"/>
<stop offset="1" stop-color="#FF9522"/>
</linearGradient>
<linearGradient id="paint1_linear_3786_424" x1="4.26581" y1="19.7873" x2="13.6697" y2="8.58073" gradientUnits="userSpaceOnUse">
<stop stop-color="#FFD16C"/>
<stop offset="0.22" stop-color="#FFC861"/>
<stop offset="0.61" stop-color="#FFB145"/>
<stop offset="1" stop-color="#FF9522"/>
</linearGradient>
</defs>
</svg>
