<svg width="98" height="15" viewBox="0 0 98 15" fill="none" xmlns="http://www.w3.org/2000/svg">
<path d="M12.6258 7.26656V13.5795H6.31286C5.6846 13.5806 5.05982 13.4862 4.45989 13.2997L5.22978 12.2007L5.54151 11.7526L5.76769 11.4307H10.477V7.26656C10.477 7.18103 10.477 7.09693 10.4683 7.01137C10.4596 6.92583 10.4581 6.86639 10.4494 6.80693C10.445 6.75103 10.4378 6.69537 10.4277 6.64021V6.5764C10.4189 6.52563 10.4088 6.47345 10.3972 6.42271C10.394 6.39907 10.3886 6.37579 10.3813 6.35312C10.3724 6.30414 10.3608 6.25576 10.3465 6.2081C10.3305 6.14285 10.3146 6.08197 10.2928 6.01961C10.2768 5.96263 10.258 5.9065 10.2363 5.85142C10.2193 5.79916 10.1994 5.74785 10.1769 5.69773C10.158 5.65424 10.1392 5.60931 10.1218 5.56579C9.97712 5.24314 9.7915 4.9405 9.56934 4.66539C9.52192 4.60739 9.47364 4.55374 9.42438 4.50444C9.33292 4.40266 9.23614 4.30585 9.13437 4.21445C8.94907 4.0435 8.74865 3.88966 8.53552 3.75482C8.43408 3.68813 8.32674 3.62868 8.21952 3.57215C8.21244 3.56621 8.20385 3.56221 8.19482 3.56055C8.15427 3.54023 8.11361 3.5185 8.07162 3.49965C8.00052 3.46773 7.92656 3.4344 7.85415 3.40539C7.67516 3.33538 7.49216 3.2763 7.30605 3.2285C7.16276 3.19305 7.0175 3.16594 6.87108 3.14731C6.83918 3.14731 6.80728 3.14006 6.77247 3.13427C6.73769 3.12846 6.66518 3.12266 6.60863 3.12122C6.51151 3.11252 6.41147 3.10961 6.31866 3.10961C5.63647 3.1079 4.9643 3.27387 4.3613 3.59296C3.75831 3.91201 3.24299 4.37442 2.86065 4.93943C2.7839 5.04896 2.71418 5.16326 2.65188 5.28161C2.49014 5.58045 2.36551 5.89793 2.28069 6.22697C2.24564 6.36064 2.21804 6.49618 2.19805 6.63295C2.16474 6.8425 2.14825 7.05438 2.14875 7.26656C2.14875 7.33325 2.14875 7.4014 2.14875 7.46809C2.14875 7.5348 2.14875 7.57829 2.1589 7.63194C2.1712 7.77788 2.19104 7.92305 2.21835 8.06693L1.72104 8.77597L1.04828 9.74304L0.724956 10.2055C0.27936 9.35787 0.0324829 8.41986 0.00299205 7.46263C-0.0264882 6.50537 0.162202 5.55397 0.554774 4.68044C0.947343 3.8069 1.53351 3.03412 2.26889 2.42063C3.00428 1.80714 3.86959 1.36899 4.79935 1.13939C5.72908 0.909774 6.6989 0.894713 7.63535 1.09533C8.57174 1.29596 9.45026 1.70701 10.2044 2.29738C10.9584 2.88773 11.5683 3.64194 11.9878 4.50285C12.4073 5.36377 12.6254 6.30886 12.6258 7.26656Z" fill="url(#paint0_linear_3822_2269)"/>
<path d="M9.13437 7.26661V10.0881H6.98417V7.26661C6.98417 7.13383 6.94479 7.00403 6.87103 6.89364C6.79727 6.78324 6.69242 6.6972 6.56975 6.64639C6.44709 6.59557 6.31212 6.58228 6.18191 6.60819C6.05167 6.63409 5.93207 6.69802 5.83818 6.7919C5.7443 6.88579 5.68036 7.00543 5.65445 7.13564C5.62855 7.26586 5.64185 7.40083 5.69264 7.52352C5.74347 7.64616 5.82952 7.75102 5.93989 7.82479C6.05029 7.89855 6.18008 7.93792 6.31286 7.93792C6.42252 7.93762 6.53048 7.91077 6.62748 7.85964L5.21964 9.8663L5.07465 10.0881L4.13512 11.4322L3.20574 12.7589L2.62578 13.581H0L2.14875 10.5144L2.82586 9.54441L3.4928 8.59617L3.69145 8.3062C3.52255 7.87844 3.46073 7.41588 3.51135 6.95876C3.56198 6.50166 3.7235 6.06384 3.98189 5.68339C4.24029 5.30294 4.5877 4.99139 4.99398 4.77581C5.4002 4.56025 5.85295 4.44719 6.31286 4.4465C6.53904 4.44558 6.76448 4.47238 6.98417 4.52625C7.5975 4.67648 8.14275 5.02817 8.53259 5.52501C8.92243 6.02184 9.13437 6.63509 9.13437 7.26661Z" fill="url(#paint1_linear_3822_2269)"/>
<path d="M19.9884 1.81292C19.8228 1.82018 19.6578 1.83788 19.4943 1.86596C18.8806 1.94411 18.2979 2.17762 17.8038 2.54356C17.3572 2.88628 17.0098 3.33788 16.7965 3.85343C16.5675 4.40749 16.4532 5.00078 16.4607 5.59868C16.4398 6.46939 16.6974 7.32474 17.1979 8.04423C17.5314 8.49972 17.9888 8.85392 18.5179 9.06636L16.2332 13.6621H18.2401L20.3511 9.40707H23.5546V13.6621H25.3184V1.80157H20.4246L19.9884 1.81292ZM23.5509 3.4408V7.79437H20.4941C20.3821 7.79437 20.2547 7.79437 20.1079 7.79437C19.978 7.7847 19.8489 7.76447 19.7221 7.7338C19.3938 7.6685 19.092 7.51059 18.8537 7.27947C18.6415 7.06379 18.4794 6.8055 18.379 6.52237C18.2835 6.24028 18.234 5.9451 18.2323 5.6479C18.2337 5.3531 18.2831 5.06038 18.379 4.78095C18.4791 4.49762 18.6409 4.23921 18.8537 4.02378C19.0916 3.7915 19.3933 3.63229 19.7221 3.56576C19.8486 3.53379 19.9777 3.51226 20.1079 3.50137C20.2432 3.50137 20.3705 3.48243 20.4941 3.48243L23.5509 3.4408Z" fill="white"/>
<path d="M27.6884 13.6621H29.5637V3.42081H36.0834V13.6621H37.9587V1.80157H27.6884V13.6621Z" fill="white"/>
<path d="M48.6635 2.21458C47.6835 1.6927 46.5824 1.41897 45.4635 1.41897C44.3447 1.41897 43.2442 1.6927 42.2642 2.21458C41.3795 2.7476 40.6765 3.51904 40.2403 4.43386C39.7537 5.46843 39.5141 6.59565 39.5407 7.73189C39.5141 8.86805 39.7537 9.99527 40.2403 11.0298C40.6765 11.9447 41.3795 12.7162 42.2642 13.2492C43.2442 13.771 44.3447 14.0447 45.4635 14.0447C46.5824 14.0447 47.6835 13.771 48.6635 13.2492C49.5502 12.7195 50.2553 11.9471 50.6875 11.0298C51.174 9.99527 51.4129 8.86805 51.3871 7.73189C51.4129 6.59565 51.174 5.46843 50.6875 4.43386C50.2553 3.51665 49.5502 2.74422 48.6635 2.21458ZM49.0078 10.1677C48.7445 10.8291 48.2817 11.3989 47.6794 11.8031C47.02 12.2107 46.2455 12.4094 45.4635 12.3715C44.6782 12.3915 43.9044 12.1857 43.2402 11.78C42.6358 11.3823 42.1703 10.8176 41.9042 10.1599C41.5939 9.38656 41.4455 8.56121 41.468 7.73189C41.4537 6.89422 41.6075 6.06185 41.9199 5.28061C42.1839 4.61937 42.646 4.0498 43.2483 3.64514C43.9085 3.24048 44.6829 3.04457 45.4635 3.08451C46.2468 3.06013 47.0193 3.26498 47.6794 3.67223C48.2803 4.07132 48.7431 4.63573 49.0078 5.2922C49.3161 6.07006 49.4631 6.89912 49.4393 7.73189C49.4611 8.56326 49.3141 9.39073 49.0078 10.1677Z" fill="white"/>
<path d="M60.8484 2.86607C60.1555 2.30472 59.3016 1.95626 58.3986 1.866C58.0996 1.82675 57.7979 1.8052 57.4962 1.80157C57.1838 1.80157 56.9696 1.80157 56.8552 1.80157H52.969V13.6621H56.8397C56.9541 13.6621 57.1676 13.6621 57.4807 13.6621C57.7824 13.6584 58.0834 13.6368 58.3831 13.5976C59.2848 13.5085 60.1379 13.1628 60.8322 12.6053C61.507 12.0397 62.0234 11.3224 62.3366 10.518C62.682 9.62742 62.8537 8.68367 62.843 7.73377C62.8605 6.78464 62.6935 5.84064 62.3521 4.94952C62.0383 4.14678 61.5218 3.43099 60.8484 2.86607ZM60.6706 9.64299C60.509 10.206 60.2127 10.725 59.8039 11.1582C59.3959 11.5745 58.8565 11.8513 58.2679 11.9462C58.0302 11.9798 57.7918 12.0013 57.5514 12.0105C57.2828 12.0105 57.0491 12.0105 56.8552 12.0105H54.8127V3.4343H57.5319C57.7737 3.43982 58.0147 3.46389 58.2524 3.50626C58.8322 3.5914 59.3662 3.85777 59.7716 4.26384C60.181 4.69808 60.48 5.21654 60.6464 5.77912C61.0214 7.03952 61.0214 8.37493 60.6464 9.6354L60.6706 9.64299Z" fill="white"/>
<path d="M72.4684 6.96911C71.973 6.61588 71.3863 6.39864 70.7721 6.34067C70.6022 6.31713 70.4311 6.30196 70.2592 6.29521H66.6136V3.4408H72.8866V1.80157H64.8193V13.6621H70.2867C70.4559 13.6553 70.6244 13.64 70.7915 13.6167C71.3917 13.5715 71.9669 13.3684 72.4543 13.0298C72.9409 12.6912 73.3216 12.2302 73.5531 11.6974C73.7908 11.1547 73.9102 10.5712 73.9042 9.98253C73.9109 9.39345 73.7901 8.8095 73.5491 8.26756C73.3108 7.75293 72.9389 7.30574 72.4684 6.96911ZM71.7031 11.2204C71.5789 11.4247 71.4078 11.599 71.2024 11.7302C70.9976 11.8614 70.764 11.946 70.5197 11.9776C70.3935 12.0003 70.2592 12.0155 70.125 12.0268C69.9914 12.0381 69.8565 12.0268 69.7309 12.0268H66.5941V7.90792H70.125C70.2579 7.9157 70.3895 7.93347 70.5197 7.96096C70.7633 7.99306 70.9969 8.07788 71.2024 8.20901C71.4071 8.34019 71.5783 8.51424 71.7031 8.71806C71.9253 9.09917 72.0421 9.52866 72.0421 9.96548C72.0421 10.4023 71.9253 10.8318 71.7031 11.2129V11.2204Z" fill="white"/>
<path d="M84.2178 2.21458C83.2379 1.6927 82.1374 1.41897 81.0186 1.41897C79.8991 1.41897 78.7987 1.6927 77.8187 2.21458C76.9327 2.74614 76.2269 3.51791 75.7914 4.43386C75.3062 5.46903 75.0673 6.59585 75.0911 7.73189C75.0673 8.86792 75.3062 9.99468 75.7914 11.0298C76.2269 11.9458 76.9327 12.7176 77.8187 13.2492C78.7987 13.771 79.8991 14.0447 81.0186 14.0447C82.1374 14.0447 83.2379 13.771 84.2178 13.2492C85.1039 12.7184 85.8083 11.9463 86.2418 11.0298C86.725 9.99441 86.9631 8.86759 86.938 7.73189C86.9631 6.59612 86.725 5.46936 86.2418 4.43386C85.8083 3.51738 85.1039 2.74528 84.2178 2.21458ZM84.5622 10.1677C84.2975 10.8283 83.8354 11.3977 83.2345 11.8031C82.5743 12.2102 81.7999 12.4089 81.0186 12.3715C80.2319 12.3905 79.4568 12.1847 78.7905 11.78C78.1876 11.3813 77.7228 10.8169 77.4546 10.1599C77.1443 9.38656 76.9959 8.56121 77.0191 7.73189C77.0075 6.89415 77.1627 6.06211 77.475 5.28061C77.7371 4.61858 78.1998 4.04854 78.8028 3.64514C79.4629 3.24001 80.2374 3.04404 81.0186 3.08451C81.8012 3.06086 82.5737 3.26564 83.2345 3.67223C83.8333 4.07252 84.2961 4.63659 84.5622 5.2922C84.8732 6.06562 85.0243 6.89064 85.0059 7.7203C85.0256 8.55631 84.8746 9.38788 84.5622 10.1677Z" fill="white"/>
<path d="M97.6552 3.84401C97.435 3.32772 97.0773 2.87569 96.618 2.5329C96.1115 2.16857 95.5161 1.93496 94.8884 1.8546C94.7207 1.82675 94.5516 1.80903 94.3819 1.80157H88.9148V13.6621H90.7158V9.40291H93.9306C94.0451 9.40291 94.1953 9.40291 94.3738 9.40291C94.5516 9.40291 94.7261 9.3726 94.8884 9.35365C95.5161 9.27329 96.1115 9.03974 96.618 8.67534C97.0767 8.33171 97.4343 7.87994 97.6552 7.36424C97.8903 6.80576 98.0075 6.20814 97.9994 5.60604C98.0095 5.00251 97.8923 4.40327 97.6552 3.84401ZM96.0165 6.46239C95.9175 6.74689 95.7525 7.00613 95.5336 7.22027C95.2918 7.45239 94.9827 7.61063 94.6466 7.67496C94.5166 7.70508 94.3839 7.72533 94.2512 7.73559C94.1084 7.73559 93.9818 7.73559 93.8552 7.73559H90.7084V3.43092H93.8552C93.9697 3.43092 94.0963 3.43092 94.2512 3.44994C94.3846 3.46137 94.5173 3.48292 94.6466 3.51433C94.9833 3.58022 95.2918 3.7397 95.5336 3.97285C95.7532 4.18666 95.9182 4.44598 96.0165 4.73067C96.1135 5.01056 96.1627 5.30356 96.1627 5.59844C96.1613 5.89196 96.1115 6.18347 96.0165 6.46239Z" fill="white"/>
<defs>
<linearGradient id="paint0_linear_3822_2269" x1="3.545" y1="12.5731" x2="11.3597" y2="3.26029" gradientUnits="userSpaceOnUse">
<stop stop-color="#FFD16C"/>
<stop offset="0.22" stop-color="#FFC861"/>
<stop offset="0.61" stop-color="#FFB145"/>
<stop offset="1" stop-color="#FF9522"/>
</linearGradient>
<linearGradient id="paint1_linear_3822_2269" x1="2.56472" y1="12.8519" x2="8.21856" y2="6.11423" gradientUnits="userSpaceOnUse">
<stop stop-color="#FFD16C"/>
<stop offset="0.22" stop-color="#FFC861"/>
<stop offset="0.61" stop-color="#FFB145"/>
<stop offset="1" stop-color="#FF9522"/>
</linearGradient>
</defs>
</svg>
