<svg width="163" height="22" viewBox="0 0 163 22" fill="none" xmlns="http://www.w3.org/2000/svg">
<path d="M21 10.6117V21.1119H10.5C9.455 21.1137 8.41583 20.9567 7.41797 20.6465L8.69851 18.8184L9.21701 18.0732L9.5932 17.5379H17.4261V10.6117C17.4261 10.4695 17.4261 10.3296 17.4116 10.1873C17.3971 10.045 17.3946 9.94615 17.3801 9.84725C17.3729 9.75426 17.3608 9.66168 17.344 9.56993V9.46381C17.3295 9.37937 17.3126 9.29258 17.2933 9.20818C17.2881 9.16886 17.279 9.13015 17.2669 9.09243C17.2521 9.01097 17.2327 8.9305 17.209 8.85122C17.1824 8.7427 17.1559 8.64145 17.1197 8.53772C17.0931 8.44295 17.0618 8.34959 17.0256 8.25797C16.9974 8.17105 16.9643 8.0857 16.9268 8.00234C16.8954 7.93001 16.8641 7.85528 16.8352 7.7829C16.5946 7.24624 16.2859 6.74288 15.9164 6.28529C15.8375 6.18883 15.7572 6.0996 15.6752 6.0176C15.5231 5.84831 15.3622 5.68728 15.1929 5.53526C14.8847 5.25092 14.5513 4.99505 14.1968 4.77078C14.0281 4.65986 13.8496 4.56096 13.6712 4.46694C13.6595 4.45707 13.6452 4.45042 13.6302 4.44765C13.5627 4.41386 13.4951 4.37771 13.4252 4.34636C13.307 4.29327 13.184 4.23783 13.0635 4.18958C12.7658 4.07313 12.4614 3.97486 12.1519 3.89537C11.9136 3.83641 11.672 3.79131 11.4284 3.76033C11.3754 3.76033 11.3223 3.74827 11.2644 3.73863C11.2066 3.72897 11.086 3.71933 10.9919 3.71692C10.8304 3.70246 10.664 3.69763 10.5096 3.69763C9.37494 3.69477 8.25694 3.97083 7.254 4.50156C6.25106 5.03223 5.39395 5.80134 4.75801 6.7411C4.63036 6.92328 4.5144 7.11339 4.41079 7.31023C4.14177 7.80727 3.93447 8.33534 3.79339 8.88262C3.7351 9.10495 3.68919 9.33038 3.65593 9.55787C3.60053 9.90641 3.57311 10.2588 3.57394 10.6117C3.57394 10.7227 3.57394 10.836 3.57394 10.9469C3.57394 11.0579 3.57394 11.1302 3.59082 11.2194C3.61128 11.4622 3.64428 11.7036 3.6897 11.943L2.86254 13.1223L1.74357 14.7308L1.20579 15.5C0.46465 14.0901 0.0540277 12.53 0.00497658 10.9378C-0.0440569 9.34566 0.269786 7.76324 0.922736 6.31032C1.57568 4.8574 2.55063 3.57206 3.77377 2.55166C4.99691 1.53126 6.43616 0.802507 7.98259 0.420616C9.52899 0.0387067 11.1421 0.0136562 12.6996 0.347344C14.2571 0.681035 15.7183 1.36473 16.9726 2.34666C18.2267 3.32857 19.2412 4.58302 19.9388 6.01495C20.6366 7.44689 20.9995 9.01882 21 10.6117Z" fill="url(#paint0_linear_3786_430)"/>
<path d="M15.1929 10.6118V15.3048H11.6165V10.6118C11.6165 10.391 11.551 10.1751 11.4283 9.99146C11.3057 9.80783 11.1313 9.66473 10.9272 9.58021C10.7232 9.49569 10.4987 9.47359 10.2822 9.51668C10.0655 9.55977 9.86661 9.6661 9.71044 9.82225C9.5543 9.9784 9.44794 10.1774 9.40486 10.394C9.36177 10.6106 9.38389 10.835 9.46838 11.0391C9.55291 11.2431 9.69603 11.4175 9.87962 11.5402C10.0632 11.6629 10.2791 11.7284 10.5 11.7284C10.6824 11.7279 10.8619 11.6832 11.0233 11.5982L8.68164 14.9358L8.44049 15.3048L6.87781 17.5403L5.33199 19.747L4.36737 21.1144H0L3.57394 16.0138L4.70015 14.4004L5.80946 12.8232L6.13986 12.3409C5.85894 11.6294 5.75611 10.8601 5.84031 10.0998C5.92451 9.3395 6.19316 8.61129 6.62295 7.9785C7.05273 7.34571 7.63057 6.82752 8.30631 6.46894C8.98197 6.11041 9.73501 5.92237 10.5 5.92121C10.8762 5.91969 11.2511 5.96426 11.6165 6.05386C12.6367 6.30374 13.5435 6.8887 14.192 7.71506C14.8404 8.54143 15.1929 9.56142 15.1929 10.6118Z" fill="url(#paint1_linear_3786_430)"/>
<path d="M33.246 1.54087C32.9705 1.55295 32.6962 1.5824 32.4242 1.6291C31.4034 1.75907 30.4343 2.14748 29.6124 2.75613C28.8696 3.32616 28.2917 4.0773 27.937 4.93478C27.5561 5.85633 27.3659 6.84314 27.3785 7.8376C27.3437 9.28583 27.7722 10.7085 28.6047 11.9052C29.1593 12.6628 29.9201 13.2519 30.8002 13.6053L27 21.2493H30.338L33.8493 14.172H39.1776V21.2493H42.1111V1.522H33.9715L33.246 1.54087ZM39.1713 4.24847V11.4896H34.0871C33.9007 11.4896 33.6889 11.4896 33.4448 11.4896C33.2286 11.4735 33.0139 11.4399 32.8031 11.3889C32.2571 11.2803 31.7549 11.0176 31.3587 10.6332C31.0057 10.2745 30.7362 9.84486 30.569 9.37395C30.4102 8.90476 30.3279 8.41379 30.325 7.91947C30.3274 7.42914 30.4097 6.94226 30.569 6.47749C30.7356 6.00625 31.0048 5.57644 31.3587 5.21813C31.7544 4.83177 32.2561 4.56698 32.8031 4.45632C33.0135 4.40314 33.2282 4.36733 33.4448 4.34921C33.6697 4.34921 33.8815 4.31772 34.0871 4.31772L39.1713 4.24847Z" fill="#252525"/>
<path d="M46.0531 21.2493H49.1722V4.21522H60.0162V21.2493H63.1353V1.522H46.0531V21.2493Z" fill="#252525"/>
<path d="M80.9403 2.20895C79.3103 1.34091 77.4788 0.885635 75.6179 0.885635C73.757 0.885635 71.9266 1.34091 70.2966 2.20895C68.8251 3.0955 67.6558 4.3786 66.9302 5.9002C66.1209 7.62097 65.7224 9.49584 65.7666 11.3857C65.7224 13.2754 66.1209 15.1503 66.9302 16.8711C67.6558 18.3927 68.8251 19.6759 70.2966 20.5624C71.9266 21.4304 73.757 21.8856 75.6179 21.8856C77.4788 21.8856 79.3103 21.4304 80.9403 20.5624C82.4152 19.6814 83.5879 18.3967 84.3066 16.8711C85.116 15.1503 85.5133 13.2754 85.4703 11.3857C85.5133 9.49584 85.116 7.62097 84.3066 5.9002C83.5879 4.37464 82.4152 3.08988 80.9403 2.20895ZM81.513 15.437C81.075 16.5372 80.3052 17.4849 79.3035 18.1573C78.2066 18.8352 76.9185 19.1656 75.6179 19.1026C74.3116 19.1359 73.0246 18.7935 71.9198 18.1187C70.9147 17.4573 70.1404 16.5181 69.6978 15.4242C69.1817 14.1379 68.9349 12.7651 68.9723 11.3857C68.9485 9.99242 69.2043 8.60797 69.7239 7.30856C70.163 6.20875 70.9316 5.2614 71.9334 4.58834C73.0314 3.91528 74.3195 3.58944 75.6179 3.65586C76.9207 3.61533 78.2055 3.95604 79.3035 4.6334C80.303 5.2972 81.0727 6.23596 81.513 7.32784C82.0258 8.62163 82.2703 10.0006 82.2307 11.3857C82.2669 12.7685 82.0224 14.1448 81.513 15.437Z" fill="#252525"/>
<path d="M101.207 3.29255C100.054 2.35887 98.6342 1.7793 97.1323 1.62917C96.635 1.56388 96.1332 1.52804 95.6314 1.522C95.1117 1.522 94.7556 1.522 94.5652 1.522H88.1015V21.2493H94.5394C94.7298 21.2493 95.0849 21.2493 95.6057 21.2493C96.1074 21.2431 96.6081 21.2072 97.1065 21.142C98.6062 20.9937 100.025 20.4188 101.18 19.4915C102.302 18.5507 103.161 17.3576 103.682 16.0198C104.257 14.5385 104.542 12.9688 104.524 11.3888C104.554 9.81017 104.276 8.24004 103.708 6.75788C103.186 5.42271 102.327 4.23216 101.207 3.29255ZM100.911 14.5644C100.642 15.5009 100.15 16.3641 99.4698 17.0846C98.791 17.7769 97.8939 18.2373 96.915 18.3951C96.5196 18.4511 96.1231 18.4869 95.7233 18.5022C95.2764 18.5022 94.8877 18.5022 94.5652 18.5022H91.1681V4.23767H95.6908C96.0929 4.24684 96.4939 4.28688 96.8892 4.35736C97.8536 4.49896 98.7418 4.942 99.416 5.61741C100.097 6.33966 100.594 7.202 100.871 8.13773C101.495 10.2341 101.495 12.4552 100.871 14.5517L100.911 14.5644Z" fill="#252525"/>
<path d="M120.534 10.117C119.71 9.52948 118.734 9.16815 117.713 9.07173C117.43 9.03258 117.146 9.00734 116.86 8.99612H110.796V4.24847H121.23V1.522H107.812V21.2493H116.905C117.187 21.2379 117.467 21.2125 117.745 21.1738C118.743 21.0986 119.7 20.7608 120.511 20.1975C121.32 19.6343 121.953 18.8675 122.338 17.9815C122.734 17.0788 122.932 16.1082 122.922 15.1291C122.933 14.1493 122.732 13.178 122.332 12.2767C121.935 11.4207 121.317 10.6769 120.534 10.117ZM119.261 17.188C119.055 17.5278 118.77 17.8177 118.428 18.0359C118.088 18.2541 117.699 18.3949 117.293 18.4474C117.083 18.4852 116.86 18.5104 116.636 18.5293C116.414 18.5482 116.19 18.5293 115.981 18.5293H110.764V11.6785H116.636C116.857 11.6914 117.076 11.721 117.293 11.7667C117.698 11.8201 118.087 11.9612 118.428 12.1793C118.769 12.3975 119.054 12.687 119.261 13.026C119.631 13.6599 119.825 14.3742 119.825 15.1007C119.825 15.8273 119.631 16.5417 119.261 17.1755V17.188Z" fill="#252525"/>
<path d="M140.077 2.20895C138.447 1.34091 136.616 0.885635 134.755 0.885635C132.893 0.885635 131.063 1.34091 129.433 2.20895C127.959 3.09307 126.786 4.37673 126.061 5.9002C125.254 7.62196 124.857 9.49617 124.896 11.3857C124.857 13.2752 125.254 15.1493 126.061 16.8711C126.786 18.3945 127.959 19.6782 129.433 20.5624C131.063 21.4304 132.893 21.8856 134.755 21.8856C136.616 21.8856 138.447 21.4304 140.077 20.5624C141.55 19.6796 142.722 18.3954 143.443 16.8711C144.247 15.1489 144.643 13.2747 144.601 11.3857C144.643 9.49661 144.247 7.62251 143.443 5.9002C142.722 4.37585 141.55 3.09164 140.077 2.20895ZM140.649 15.437C140.209 16.5359 139.44 17.4829 138.441 18.1573C137.343 18.8344 136.055 19.1648 134.755 19.1026C133.447 19.1341 132.158 18.7919 131.05 18.1187C130.047 17.4556 129.274 16.5169 128.828 15.4242C128.311 14.1379 128.065 12.7651 128.103 11.3857C128.084 9.99231 128.342 8.60841 128.862 7.30856C129.297 6.20743 130.067 5.25931 131.07 4.58834C132.168 3.91451 133.456 3.58856 134.755 3.65586C136.057 3.61654 137.342 3.95714 138.441 4.6334C139.437 5.29919 140.207 6.23739 140.649 7.32784C141.167 8.61425 141.418 9.98647 141.387 11.3664C141.42 12.7569 141.169 14.1401 140.649 15.437Z" fill="#252525"/>
<path d="M162.427 4.91912C162.06 4.06039 161.465 3.30855 160.701 2.7384C159.859 2.13241 158.869 1.74386 157.825 1.6102C157.546 1.56389 157.264 1.53441 156.982 1.522H147.889V21.2493H150.884V14.1651H156.232C156.422 14.1651 156.672 14.1651 156.969 14.1651C157.264 14.1651 157.555 14.1146 157.825 14.0831C158.869 13.9495 159.859 13.561 160.701 12.9549C161.464 12.3834 162.059 11.632 162.427 10.7742C162.818 9.84529 163.012 8.85129 162.999 7.84984C163.016 6.84601 162.821 5.84931 162.427 4.91912ZM159.701 9.27418C159.536 9.74737 159.262 10.1786 158.898 10.5347C158.496 10.9208 157.981 11.184 157.422 11.291C157.206 11.3411 156.985 11.3748 156.765 11.3918C156.527 11.3918 156.317 11.3918 156.106 11.3918H150.872V4.23205H156.106C156.296 4.23205 156.507 4.23205 156.765 4.26368C156.987 4.28268 157.207 4.31853 157.422 4.37078C157.982 4.48036 158.496 4.74562 158.898 5.13342C159.263 5.48905 159.537 5.92035 159.701 6.39387C159.862 6.8594 159.944 7.34674 159.944 7.83721C159.942 8.32541 159.859 8.81027 159.701 9.27418Z" fill="#252525"/>
<defs>
<linearGradient id="paint0_linear_3786_430" x1="5.89628" y1="19.438" x2="18.8943" y2="3.94824" gradientUnits="userSpaceOnUse">
<stop stop-color="#FFD16C"/>
<stop offset="0.22" stop-color="#FFC861"/>
<stop offset="0.61" stop-color="#FFB145"/>
<stop offset="1" stop-color="#FF9522"/>
</linearGradient>
<linearGradient id="paint1_linear_3786_430" x1="4.26581" y1="19.9016" x2="13.6697" y2="8.6951" gradientUnits="userSpaceOnUse">
<stop stop-color="#FFD16C"/>
<stop offset="0.22" stop-color="#FFC861"/>
<stop offset="0.61" stop-color="#FFB145"/>
<stop offset="1" stop-color="#FF9522"/>
</linearGradient>
</defs>
</svg>
