<svg width="48" height="48" viewBox="0 0 48 48" fill="none" xmlns="http://www.w3.org/2000/svg">
<g id="Icons / arrows / arrow-top">
<path id="icon" fill-rule="evenodd" clip-rule="evenodd" d="M27.7071 12.5353C27.0772 11.9054 26 12.3515 26 13.2425V42.9998C26 43.5521 25.5523 43.9998 25 43.9998H23C22.4477 43.9998 22 43.5521 22 42.9998V13.2425C22 12.3515 20.9229 11.9054 20.2929 12.5353L10.1213 22.7069C9.73082 23.0974 9.09766 23.0974 8.70714 22.7069L7.29292 21.2927C6.9024 20.9022 6.9024 20.269 7.29292 19.8785L23.2929 3.87849C23.6834 3.48797 24.3166 3.48797 24.7071 3.87849L40.7071 19.8785C41.0977 20.269 41.0977 20.9022 40.7071 21.2927L39.2929 22.7069C38.9024 23.0974 38.2692 23.0974 37.8787 22.7069L27.7071 12.5353Z" fill="black"/>
</g>
</svg>
