<svg width="48" height="48" viewBox="0 0 48 48" fill="none" xmlns="http://www.w3.org/2000/svg">
  <path fill-rule="evenodd" clip-rule="evenodd" d="M35.4645 20.2929C36.0944 20.9228 35.6483 22 34.7574 22H5C4.44772 22 4 22.4477 4 23V25C4 25.5523 4.44772 26 5 26H34.7574C35.6483 26 36.0944 27.0771 35.4645 27.7071L25.2929 37.8787C24.9024 38.2692 24.9024 38.9023 25.2929 39.2929L26.7071 40.7071C27.0976 41.0976 27.7308 41.0976 28.1213 40.7071L44.1213 24.7071C44.5118 24.3166 44.5118 23.6834 44.1213 23.2929L28.1213 7.29286C27.7308 6.90234 27.0976 6.90234 26.7071 7.29286L25.2929 8.70707C24.9024 9.0976 24.9024 9.73076 25.2929 10.1213L35.4645 20.2929Z" fill="#F8F8F8" />
</svg>