<svg width="48" height="48" viewBox="0 0 48 48" fill="none" xmlns="http://www.w3.org/2000/svg">
  <path fill-rule="evenodd" clip-rule="evenodd" d="M12.5355 27.7071C11.9056 27.0772 12.3517 26 13.2426 26L43 26C43.5523 26 44 25.5523 44 25L44 23C44 22.4477 43.5523 22 43 22L13.2426 22C12.3517 22 11.9056 20.9229 12.5355 20.2929L22.7071 10.1213C23.0976 9.73082 23.0976 9.09766 22.7071 8.70714L21.2929 7.29292C20.9024 6.9024 20.2692 6.9024 19.8787 7.29292L3.87868 23.2929C3.48815 23.6834 3.48815 24.3166 3.87868 24.7071L19.8787 40.7071C20.2692 41.0977 20.9024 41.0977 21.2929 40.7071L22.7071 39.2929C23.0976 38.9024 23.0976 38.2692 22.7071 37.8787L12.5355 27.7071Z" fill="#F8F8F8" />
</svg>