<svg width="62" height="63" viewBox="0 0 62 63" fill="none" xmlns="http://www.w3.org/2000/svg">
<path d="M35.9167 31.458L26.4496 40.9251L29.1013 43.5767L41.22 31.458L29.1013 19.3393L26.4496 21.9909L35.9167 31.458Z" fill="white"/>
<path fill-rule="evenodd" clip-rule="evenodd" d="M30.9434 62.083C47.8571 62.083 61.5684 48.3717 61.5684 31.458C61.5684 14.5443 47.8571 0.833008 30.9434 0.833008C14.0296 0.833008 0.318359 14.5443 0.318359 31.458C0.318359 48.3717 14.0296 62.083 30.9434 62.083ZM30.9434 58.333C16.1007 58.333 4.06836 46.3007 4.06836 31.458C4.06836 16.6154 16.1007 4.58301 30.9434 4.58301C45.786 4.58301 57.8184 16.6154 57.8184 31.458C57.8184 46.3007 45.786 58.333 30.9434 58.333Z" fill="white"/>
</svg>
