<svg width="512" height="512" viewBox="0 0 512 512" fill="none" xmlns="http://www.w3.org/2000/svg">
<rect width="512" height="512" fill="#252525"/>
<path d="M425.584 256.355V421.753H255.791C238.894 421.782 222.09 419.309 205.954 414.422L226.661 385.627L235.045 373.889L241.129 365.455H367.791V256.355C367.791 254.114 367.791 251.91 367.557 249.669C367.323 247.428 367.282 245.87 367.048 244.313C366.931 242.848 366.735 241.39 366.463 239.944V238.273C366.229 236.943 365.957 235.575 365.644 234.246C365.56 233.626 365.413 233.017 365.217 232.423C364.978 231.139 364.665 229.872 364.281 228.623C363.851 226.914 363.422 225.319 362.836 223.685C362.406 222.192 361.901 220.721 361.316 219.278C360.859 217.909 360.324 216.565 359.719 215.252C359.21 214.112 358.704 212.935 358.236 211.795C354.346 203.341 349.353 195.412 343.378 188.204C342.103 186.685 340.804 185.279 339.479 183.988C337.019 181.321 334.416 178.785 331.679 176.39C326.695 171.911 321.305 167.881 315.572 164.348C312.844 162.601 309.957 161.043 307.073 159.562C306.883 159.406 306.652 159.302 306.409 159.258C305.318 158.726 304.225 158.156 303.095 157.662C301.183 156.826 299.194 155.953 297.246 155.193C292.432 153.359 287.51 151.811 282.504 150.558C278.65 149.63 274.744 148.919 270.805 148.431C269.947 148.431 269.089 148.241 268.153 148.089C267.218 147.937 265.268 147.785 263.747 147.748C261.134 147.52 258.444 147.444 255.947 147.444C237.599 147.399 219.52 151.747 203.302 160.107C187.084 168.466 173.224 180.581 162.94 195.384C160.876 198.254 159.001 201.249 157.325 204.349C152.975 212.179 149.623 220.497 147.342 229.118C146.399 232.62 145.657 236.171 145.119 239.754C144.223 245.244 143.78 250.796 143.793 256.355C143.793 258.102 143.793 259.887 143.793 261.635C143.793 263.382 143.793 264.522 144.066 265.927C144.397 269.751 144.931 273.554 145.665 277.324L132.289 295.901L114.195 321.238L105.499 333.355C93.5137 311.146 86.8737 286.571 86.0805 261.491C85.2876 236.412 90.3626 211.485 100.921 188.599C111.48 165.712 127.245 145.466 147.024 129.392C166.803 113.319 190.077 101.84 215.084 95.8241C240.09 89.8082 266.175 89.4136 291.361 94.6699C316.547 99.9262 340.175 110.696 360.458 126.163C380.739 141.63 397.143 161.39 408.424 183.946C419.709 206.502 425.576 231.263 425.584 256.355Z" fill="url(#paint0_linear_541_3066)"/>
<path d="M331.679 256.357V330.28H273.847V256.357C273.847 252.878 272.788 249.477 270.804 246.585C268.82 243.692 266 241.438 262.701 240.107C259.402 238.776 255.772 238.427 252.269 239.106C248.767 239.785 245.55 241.46 243.024 243.92C240.5 246.379 238.78 249.514 238.083 252.925C237.386 256.337 237.744 259.873 239.11 263.088C240.477 266.301 242.791 269.048 245.76 270.981C248.729 272.914 252.22 273.945 255.791 273.945C258.741 273.937 261.645 273.234 264.254 271.894L226.388 324.468L222.488 330.28L205.603 353.796L197.219 365.495L172.222 400.254L156.623 421.793H86L127.259 364.469L143.793 341.449L162.005 316.035L179.943 291.191L185.286 283.594C180.743 272.386 179.08 260.267 180.442 248.291C181.803 236.315 186.148 224.844 193.098 214.877C200.047 204.909 209.391 196.746 220.319 191.098C231.244 185.451 243.422 182.489 255.791 182.47C261.875 182.446 267.938 183.148 273.847 184.56C290.343 188.496 305.008 197.71 315.494 210.727C325.979 223.744 331.679 239.811 331.679 256.357Z" fill="url(#paint1_linear_541_3066)"/>
<defs>
<linearGradient id="paint0_linear_541_3066" x1="181.347" y1="395.351" x2="385.064" y2="146.097" gradientUnits="userSpaceOnUse">
<stop stop-color="#FFD16C"/>
<stop offset="0.22" stop-color="#FFC861"/>
<stop offset="0.61" stop-color="#FFB145"/>
<stop offset="1" stop-color="#FF9522"/>
</linearGradient>
<linearGradient id="paint1_linear_541_3066" x1="154.981" y1="402.69" x2="302.388" y2="222.356" gradientUnits="userSpaceOnUse">
<stop stop-color="#FFD16C"/>
<stop offset="0.22" stop-color="#FFC861"/>
<stop offset="0.61" stop-color="#FFB145"/>
<stop offset="1" stop-color="#FF9522"/>
</linearGradient>
</defs>
</svg>
