<?xml version="1.0" standalone="no"?>
<!DOCTYPE svg PUBLIC "-//W3C//DTD SVG 1.1//EN" "http://www.w3.org/Graphics/SVG/1.1/DTD/svg11.dtd">
<svg xmlns="http://www.w3.org/2000/svg">
<defs >
<font id="Geologica" horiz-adv-x="1194" ><font-face
    font-family="Geologica Roman"
    units-per-em="2000"
    panose-1="0 0 0 0 0 0 0 0 0 0"
    ascent="1950"
    descent="-550"
    alphabetic="0" />
<glyph unicode=" " glyph-name="space" horiz-adv-x="460" />
<glyph unicode="!" glyph-name="exclam" horiz-adv-x="690" d="M205 512L155 1400H535L485 512H205ZM345 -30Q263 -30 203 22T142 163Q142 223 169 266T243 333T345 357Q428 357 488 305T548 163Q548 103 521 60T447 -6T345 -30Z" />
<glyph unicode="&quot;" glyph-name="quotedbl" horiz-adv-x="912" d="M130 775L97 1400H395L362 775H130ZM550 775L517 1400H815L782 775H550Z" />
<glyph unicode="#" glyph-name="numbersign" horiz-adv-x="1295" d="M149 39L225 357H60L111 573H275L334 823H168L219 1039H385L462 1362H691L614 1039H844L921 1362H1150L1073 1039H1235L1186 822H1022L965 574H1129L1078 355H913L835 38H606L682 355L454 357L378
39H149ZM504 573L736 574L793 822L561 823L504 573Z" />
<glyph unicode="$" glyph-name="dollar" horiz-adv-x="1296" d="M668 -30Q522 -30 382 13T147 140L278 347Q323 301 387 269T525 219T668 201Q791 201 864 246T938 375Q938 450 883 496T690 578L553 604Q357 661 265 761T173 1008Q173 1132 238 1226T416 1375T673
1429Q818 1429 942 1386T1143 1268L1009 1070Q951 1128 860 1163T671 1198Q592 1198 536 1177T449 1117T419 1022Q419 946 470 904T664 824L811 800Q996 747 1090 654T1185 404Q1185 275 1123 177T944 25T668 -30ZM570 -160V1560H791V-160H570Z" />
<glyph unicode="%" glyph-name="percent" horiz-adv-x="2088" d="M743 -37L574 63L1345 1438L1514 1342L743 -37ZM451 632Q338 632 247 684T102 826T48 1027Q48 1137 102 1226T247 1367T451 1420Q563 1420 654 1368T798 1226T852 1027Q852 917 799 828T654 685T451
632ZM451 841Q504 841 546 865T611 931T635 1027Q635 1108 584 1160T451 1212Q396 1212 355 1188T290 1123T266 1027Q266 945 318 893T451 841ZM1639 -20Q1526 -20 1435 33T1290 175T1236 375Q1236 485 1290 574T1435 715T1639 768Q1752 768 1842 716T1986 574T2040
375Q2040 265 1987 176T1843 33T1639 -20ZM1639 189Q1693 189 1734 213T1799 279T1823 375Q1823 456 1772 508T1639 560Q1584 560 1543 537T1478 472T1455 375Q1455 294 1506 242T1639 189Z" />
<glyph unicode="&amp;" glyph-name="ampersand" horiz-adv-x="1534" d="M562 -30Q426 -30 321 24T156 172T96 387Q96 468 130 541T230 674T389 778Q339 831 309 878T265 971T251 1069Q251 1170 305 1252T453 1382T660 1430Q774 1430 865 1387T1010 1268T1064 1090Q1064
986 997 900T792 738L1007 515Q1062 583 1105 663T1188 860L1443 762Q1417 691 1375 611T1282 456T1178 324L1475 0H1110L984 132Q896 56 783 13T562 -30ZM588 234Q647 234 705 258T812 325L553 596Q477 565 435 513T393 399Q393 325 447 280T588 234ZM634 893Q715
924 756 968T797 1067Q797 1124 760 1159T661 1195Q602 1195 563 1161T524 1070Q524 1028 551 985T634 893Z" />
<glyph unicode="&apos;" glyph-name="quotesingle" horiz-adv-x="492" d="M130 775L97 1400H395L362 775H130Z" />
<glyph unicode="(" glyph-name="parenleft" horiz-adv-x="716" d="M372 -230Q248 -14 186 219T124 692Q124 851 151 1007T234 1315T372 1610L627 1516Q573 1429 533 1332T465 1130T425 916T412 696Q412 474 466 259T627 -135L372 -230Z" />
<glyph unicode=")" glyph-name="parenright" horiz-adv-x="716" d="M344 -230L89 -135Q142 -49 183 48T251 250T291 464T304 684Q304 907 250 1122T89 1516L344 1610Q469 1395 530 1161T592 688Q592 530 565 373T482 65T344 -230Z" />
<glyph unicode="*" glyph-name="asterisk" horiz-adv-x="1155" d="M429 473L180 647L367 863L88 934L184 1225L450 1114L423 1400H733L706 1115L972 1225L1068 934L789 864L977 647L725 473L577 720L429 473Z" />
<glyph unicode="+" glyph-name="plus" horiz-adv-x="1296" d="M531 138V556H96V781H531V1200H766V781H1200V556H766V138H531Z" />
<glyph unicode="," glyph-name="comma" horiz-adv-x="575" d="M145 -358L48 -223Q135 -185 203 -128T303 -14Q244 -17 195 4T116 66T86 163Q86 250 141 303T283 357Q380 357 441 292T503 117Q503 32 464 -51T345 -211T145 -358Z" />
<glyph unicode="-" glyph-name="hyphen" horiz-adv-x="791" d="M102 422V709H690V422H102Z" />
<glyph unicode="." glyph-name="period" horiz-adv-x="575" d="M288 -30Q206 -30 146 22T85 163Q85 223 112 266T186 333T288 357Q371 357 431 305T491 163Q491 103 463 60T389 -6T288 -30Z" />
<glyph unicode="/" glyph-name="slash" horiz-adv-x="934" d="M249 -230L-17 -125L685 1610L952 1506L249 -230Z" />
<glyph unicode="0" glyph-name="zero" horiz-adv-x="1369" d="M685 -30Q543 -30 432 27T245 185T130 418T90 700Q90 851 129 983T245 1215T432 1373T685 1430Q826 1430 937 1373T1124 1216T1239 983T1279 700Q1279 550 1240 418T1124 185T937 27T685 -30ZM685
255Q748 255 799 284T888 369T945 509T965 700Q965 844 930 943T832 1094T685 1146Q622 1146 570 1117T481 1031T425 891T405 700Q405 556 439 457T537 307T685 255Z" />
<glyph unicode="1" glyph-name="one" horiz-adv-x="920" d="M411 0V1041L95 929L8 1188L693 1430H715V0H411Z" />
<glyph unicode="2" glyph-name="two" d="M98 0V218L396 485Q534 609 612 691T722 835T754 960Q754 1053 693 1103T517 1153Q426 1153 342 1117T191 1011L78 1252Q173 1337 297 1383T550 1430Q705 1430 820 1376T997 1226T1060 1001Q1060 915 1026 833T907 649T666
400L529 272H1097V0H98Z" />
<glyph unicode="3" glyph-name="three" horiz-adv-x="1171" d="M530 -30Q437 -30 348 -10T185 46T70 126L169 388Q225 324 318 287T509 249Q582 249 637 272T722 339T753 440Q753 531 687 581T514 631Q476 631 435 626T350 609L262 816L628 1132H86V1400H1001V1153L663
826Q764 819 855 771T1004 635T1062 416Q1062 286 994 186T806 28T530 -30Z" />
<glyph unicode="4" glyph-name="four" horiz-adv-x="1205" d="M691 0V263H26V499L469 1400H796L366 528H691V801H965V528H1156V263H965V0H691Z" />
<glyph unicode="5" glyph-name="five" horiz-adv-x="1180" d="M531 -30Q394 -30 272 9T70 117L165 376Q231 310 323 280T513 249Q590 249 646 271T733 338T764 451Q764 508 733 550T645 614T511 637Q461 637 406 625T295 588L159 738L233 1399L1039 1397V1114H461L429
869Q466 878 502 883T578 888Q723 888 834 834T1009 679T1072 436Q1072 294 1005 190T816 28T531 -30Z" />
<glyph unicode="6" glyph-name="six" horiz-adv-x="1295" d="M659 -30Q497 -30 371 39T172 237T99 543Q99 720 168 869T360 1134T646 1325T998 1430L1110 1186Q984 1171 884 1138T706 1057T574 951T485 825Q532 864 594 886T725 909Q862 909 969 851T1139 691T1201
458Q1201 356 1162 267T1050 112T879 8T659 -30ZM659 236Q727 236 779 263T862 337T892 447Q892 507 862 555T779 630T659 658Q593 658 541 631T457 555T426 447Q426 385 456 338T539 263T659 236Z" />
<glyph unicode="7" glyph-name="seven" horiz-adv-x="1141" d="M151 0L693 1105H81V1400H1061V1167L500 0H151Z" />
<glyph unicode="8" glyph-name="eight" horiz-adv-x="1229" d="M607 -30Q442 -30 325 25T145 176T83 390Q83 474 112 541T197 658T331 739Q257 772 195 848T133 1043Q133 1155 195 1242T366 1380T614 1430Q756 1430 865 1380T1037 1242T1099 1043Q1099 963 1071
903T997 802T902 739Q1010 693 1078 604T1146 390Q1146 271 1077 176T887 26T607 -30ZM614 228Q672 228 723 250T806 316T839 424Q839 488 809 531T727 596T614 619Q521 619 456 569T390 424Q390 360 421 317T503 251T614 228ZM616 867Q673 867 718 888T788 947T813
1034Q813 1108 758 1157T616 1206Q559 1206 515 1184T445 1122T420 1034Q420 960 475 914T616 867Z" />
<glyph unicode="9" glyph-name="nine" horiz-adv-x="1271" d="M283 -30L171 214Q295 231 394 266T569 352T699 465T786 599Q742 561 683 539T558 516Q425 516 320 574T155 733T94 966Q94 1097 161 1202T348 1368T624 1430Q783 1430 906 1362T1101 1169T1172 869Q1172
689 1104 538T915 270T632 77T283 -30ZM624 766Q687 766 737 792T816 863T845 966Q845 1024 817 1068T738 1139T624 1165Q560 1165 510 1139T432 1069T403 966Q403 909 432 864T511 792T624 766Z" />
<glyph unicode=":" glyph-name="colon" horiz-adv-x="616" d="M308 674Q226 674 166 726T105 867Q105 927 132 970T206 1037T308 1061Q391 1061 451 1009T511 867Q511 807 483 764T409 698T308 674ZM308 -30Q226 -30 166 22T105 163Q105 223 132 266T206 333T308
357Q391 357 451 305T511 163Q511 103 483 60T409 -6T308 -30Z" />
<glyph unicode=";" glyph-name="semicolon" horiz-adv-x="616" d="M308 674Q226 674 166 726T105 867Q105 927 132 970T206 1037T308 1061Q391 1061 451 1009T511 867Q511 807 483 764T409 698T308 674ZM165 -358L68 -223Q155 -185 223 -128T323 -14Q264 -17 215
4T136 66T106 163Q106 250 161 303T303 357Q400 357 461 292T523 117Q523 32 484 -51T365 -211T165 -358Z" />
<glyph unicode="&lt;" glyph-name="less" horiz-adv-x="1296" d="M1124 116L96 526V752L1122 1161L1209 943L450 640L1209 334L1124 116Z" />
<glyph unicode="=" glyph-name="equal" horiz-adv-x="1296" d="M96 780V1005H1200V780H96ZM96 330V555H1200V330H96Z" />
<glyph unicode="&gt;" glyph-name="greater" horiz-adv-x="1296" d="M174 116L87 334L847 637L87 943L173 1161L1200 751V525L174 116Z" />
<glyph unicode="?" glyph-name="question" horiz-adv-x="1027" d="M313 488Q285 590 293 655T336 764T427 843Q508 897 537 930T566 1007Q566 1068 522 1098T389 1128Q317 1128 258 1107T135 1049L68 1316Q90 1338 148 1364T291 1410T474 1430Q607 1430 713 1387T882
1264T945 1080Q945 1016 922 965T848 865T714 758Q658 719 633 686T605 608T610 488H313ZM467 -30Q385 -30 325 22T264 163Q264 223 291 266T365 333T467 357Q550 357 610 305T670 163Q670 103 642 60T568 -6T467 -30Z" />
<glyph unicode="@" glyph-name="at" horiz-adv-x="1693" d="M855 -234Q625 -234 450 -143T177 110T78 486Q78 649 137 787T304 1027T558 1185T875 1242Q1093 1242 1260 1158T1521 923T1615 576Q1615 457 1566 360T1433 206T1249 149Q1168 149 1112 180T1029 268Q978
207 916 178T775 149Q679 149 606 193T490 314T448 491Q448 600 494 686T622 822T807 872Q931 872 1025 784L1028 846H1192L1170 436Q1167 374 1190 344T1267 313Q1319 313 1356 344T1414 434T1435 575Q1435 725 1364 838T1165 1016T870 1080Q739 1080 628 1035T433
909T304 720T258 483Q258 319 333 196T543 3T856 -67Q947 -67 1035 -49T1201 4T1344 88L1414 -67Q1339 -120 1249 -157T1058 -214T855 -234ZM799 332Q878 332 923 385T969 532Q969 606 933 647T829 688Q752 688 706 635T660 489Q660 414 696 373T799 332Z" />
<glyph unicode="A" glyph-name="A" horiz-adv-x="1450" d="M7 0L530 1400H915L1443 0H1069L970 284H468L371 0H7ZM543 561H893L717 1045L543 561Z" />
<glyph unicode="B" glyph-name="B" horiz-adv-x="1316" d="M165 0V1400H707Q921 1400 1049 1311T1177 1045Q1177 981 1151 927T1081 832T981 765Q1094 725 1163 632T1233 411Q1233 286 1171 194T993 51T720 0H165ZM497 245H672Q780 245 834 289T888 421Q888 505
837 551T683 598H497V245ZM497 826H662Q722 826 765 846T832 904T856 995Q856 1072 805 1114T657 1156H497V826Z" />
<glyph unicode="C" glyph-name="C" horiz-adv-x="1397" d="M813 -30Q596 -30 430 59T171 311T78 696Q78 858 132 992T286 1225T521 1376T818 1430Q993 1430 1112 1386T1327 1261L1161 988Q1103 1048 1021 1077T840 1107Q742 1107 666 1079T536 997T454 869T426
701Q426 573 476 482T621 343T846 294Q940 294 1032 322T1208 415L1360 136Q1263 61 1128 16T813 -30Z" />
<glyph unicode="D" glyph-name="D" horiz-adv-x="1455" d="M165 0V1400H645Q863 1400 1027 1311T1284 1065T1376 700Q1376 544 1324 416T1174 194T943 51T645 0H165ZM497 309H628Q718 309 791 334T917 409T999 532T1028 700Q1028 827 978 914T838 1046T628 1091H497V309Z" />
<glyph unicode="E" glyph-name="E" horiz-adv-x="1270" d="M165 0V1400H1149V1112H497V852H1044V586H497V291H1157V0H165Z" />
<glyph unicode="F" glyph-name="F" horiz-adv-x="1191" d="M165 0V1400H1087V1097H497V808H1025V517H497V0H165Z" />
<glyph unicode="G" glyph-name="G" horiz-adv-x="1505" d="M867 -30Q705 -30 562 20T311 164T140 394T78 699Q78 868 137 1002T303 1233T549 1379T850 1430Q924 1430 1005 1419T1170 1378T1335 1296L1197 1039Q1125 1086 1044 1108T872 1131Q767 1131 683 1101T541
1015T451 878T420 697Q420 552 482 455T650 308T887 258Q939 258 986 267T1069 288V536H783V800H1360V86Q1297 50 1211 24T1034 -16T867 -30Z" />
<glyph unicode="H" glyph-name="H" horiz-adv-x="1546" d="M165 0V1400H497V881H1049V1400H1381V0H1049V578H497V0H165Z" />
<glyph unicode="I" glyph-name="I" horiz-adv-x="662" d="M165 0V1400H497V0H165Z" />
<glyph unicode="J" glyph-name="J" horiz-adv-x="1058" d="M400 -30Q285 -30 187 0T11 82L108 350Q175 313 235 293T354 273Q453 273 508 326T563 495V1400H895V427Q895 291 837 188T669 28T400 -30Z" />
<glyph unicode="K" glyph-name="K" horiz-adv-x="1466" d="M165 0V1400H497V803L972 1400H1386L868 757L1453 0H1026L649 506L497 333V0H165Z" />
<glyph unicode="L" glyph-name="L" horiz-adv-x="1122" d="M165 0V1400H497V303H1059V0H165Z" />
<glyph unicode="M" glyph-name="M" horiz-adv-x="1873" d="M165 0V1400H484L1016 517L884 516L1390 1400H1708V0H1386L1392 976L1451 955L1047 264H826L406 955L463 976L469 0H165Z" />
<glyph unicode="N" glyph-name="N" horiz-adv-x="1556" d="M165 0V1400H493L1069 542V1400H1391V0H1063L486 870V0H165Z" />
<glyph unicode="O" glyph-name="O" horiz-adv-x="1651" d="M825 -30Q664 -30 528 25T290 180T134 412T78 700Q78 856 133 989T290 1221T527 1375T825 1430Q987 1430 1123 1374T1360 1218T1516 986T1572 700Q1572 545 1517 412T1360 180T1123 26T825 -30ZM825 282Q912
282 984 311T1111 395T1194 527T1224 700Q1224 828 1173 922T1031 1067T825 1119Q739 1119 666 1090T540 1005T456 873T426 700Q426 573 478 479T620 334T825 282Z" />
<glyph unicode="P" glyph-name="P" horiz-adv-x="1315" d="M165 0V1400H726Q883 1400 1004 1346T1194 1187T1264 937Q1264 789 1200 686T1014 529T718 475H497V0H165ZM497 753H710Q815 753 873 794T932 932Q932 1028 872 1071T712 1115H497V753Z" />
<glyph unicode="Q" glyph-name="Q" horiz-adv-x="1651" d="M1354 -105L1200 69Q1114 22 1017 -4T813 -30Q659 -30 526 24T292 177T135 408T78 700Q78 856 134 989T292 1221T529 1375T825 1430Q982 1430 1117 1375T1355 1222T1515 993T1572 706Q1572 566 1525 443T1395
225L1544 60L1354 -105ZM825 250Q874 250 921 261T1010 295L831 504L1005 656L1185 452Q1218 502 1236 564T1254 700Q1254 834 1197 932T1043 1084T825 1138Q735 1138 659 1107T527 1019T440 881T408 700Q408 567 462 466T611 307T825 250Z" />
<glyph unicode="R" glyph-name="R" horiz-adv-x="1374" d="M165 0V1400H733Q889 1400 1005 1350T1185 1203T1249 973Q1249 870 1210 792T1103 661T949 583L1326 0H932L620 515H497V0H165ZM497 781H693Q797 781 855 822T914 952Q914 1042 859 1084T700 1127H497V781Z" />
<glyph unicode="S" glyph-name="S" horiz-adv-x="1278" d="M654 -30Q495 -30 345 17T91 153L247 401Q291 354 359 320T504 268T655 249Q758 249 822 283T887 384Q887 438 841 475T667 546L547 580Q331 640 236 744T141 994Q141 1088 181 1167T293 1305T462 1396T675
1429Q834 1429 970 1383T1190 1256L1028 1016Q990 1056 934 1086T812 1133T679 1150Q613 1150 564 1133T488 1085T460 1010Q460 975 480 952T549 907T681 861L803 825Q1018 762 1114 667T1210 420Q1210 287 1142 186T950 27T654 -30Z" />
<glyph unicode="T" glyph-name="T" horiz-adv-x="1156" d="M411 0V1097H38V1400H1118V1097H745V0H411Z" />
<glyph unicode="U" glyph-name="U" horiz-adv-x="1513" d="M757 -30Q560 -30 427 48T225 262T157 576V1400H489V564Q489 421 560 352T757 282Q882 282 952 351T1023 564V1400H1356V576Q1356 400 1288 264T1087 49T757 -30Z" />
<glyph unicode="V" glyph-name="V" horiz-adv-x="1390" d="M508 0L-8 1400H366L701 422L1030 1400H1398L886 0H508Z" />
<glyph unicode="W" glyph-name="W" horiz-adv-x="2074" d="M454 0L29 1400H372L614 495L875 1400H1207L1468 496L1710 1400H2045L1620 0H1293L1036 909L778 0H454Z" />
<glyph unicode="X" glyph-name="X" horiz-adv-x="1387" d="M28 0L461 713L46 1400H446L699 965L960 1400H1350L925 707L1359 0H956L685 462L420 0H28Z" />
<glyph unicode="Y" glyph-name="Y" horiz-adv-x="1297" d="M482 0V585L-9 1400H364L655 903L943 1400H1306L815 582V0H482Z" />
<glyph unicode="Z" glyph-name="Z" horiz-adv-x="1177" d="M77 0V277L699 1097H100V1400H1101V1125L482 303H1106V0H77Z" />
<glyph unicode="[" glyph-name="bracketleft" horiz-adv-x="716" d="M169 -220V1600H633V1377H431V4H633V-220H169Z" />
<glyph unicode="\" glyph-name="backslash" horiz-adv-x="934" d="M685 -230L-17 1506L249 1610L952 -125L685 -230Z" />
<glyph unicode="]" glyph-name="bracketright" horiz-adv-x="716" d="M547 -220H83V4H285V1377H83V1600H547V-220Z" />
<glyph unicode="^" glyph-name="asciicircum" horiz-adv-x="1296" d="M153 799L496 1400H801L1144 799H862L648 1178L435 799H153Z" />
<glyph unicode="_" glyph-name="underscore" horiz-adv-x="1120" d="M23 -376V-116H1098V-376H23Z" />
<glyph unicode="`" glyph-name="grave" horiz-adv-x="1000" d="M313 1170L93 1534H426L617 1170H313Z" />
<glyph unicode="a" glyph-name="a" horiz-adv-x="1160" d="M423 -30Q321 -30 240 9T112 122T65 299Q65 387 108 455T240 567T461 626T774 626L777 422Q682 439 606 439T476 427T393 385T364 316Q364 263 404 235T513 207Q572 207 619 228T695 289T724 389V622Q724
677 701 719T629 784T497 808Q418 808 340 785T200 714L116 939Q215 1001 328 1030T550 1060Q694 1060 803 1014T975 872T1037 626V0H754V108Q705 42 619 6T423 -30Z" />
<glyph unicode="b" glyph-name="b" horiz-adv-x="1332" d="M770 -30Q675 -30 596 -2T461 77T374 195L419 268V0H136V1440H463V790L389 865Q459 956 553 1003T764 1050Q914 1050 1030 979T1211 785T1277 510Q1277 389 1239 290T1133 119T972 9T770 -30ZM709 252Q780
252 835 283T923 373T956 510Q956 590 924 647T836 736T709 768Q638 768 583 737T495 648T463 510Q463 431 495 373T583 284T709 252Z" />
<glyph unicode="c" glyph-name="c" horiz-adv-x="1072" d="M620 -30Q458 -30 331 40T129 233T55 510Q55 626 98 724T221 895T405 1009T633 1050Q749 1050 848 1019T1026 924L882 681Q833 726 775 747T652 768Q568 768 507 738T414 650T381 511Q381 389 453 321T653
252Q725 252 788 278T905 356L1038 108Q952 44 842 7T620 -30Z" />
<glyph unicode="d" glyph-name="d" horiz-adv-x="1332" d="M562 -30Q417 -30 302 37T121 226T55 510Q55 625 93 723T199 894T362 1009T568 1050Q685 1050 779 1004T943 867L868 792V1440H1196V0H913V265L958 191Q914 93 811 32T562 -30ZM623 252Q693 252 749 283T837
373T869 510Q869 590 838 647T750 736T623 768Q552 768 496 737T408 648T376 510Q376 431 408 373T497 284T623 252Z" />
<glyph unicode="e" glyph-name="e" horiz-adv-x="1188" d="M619 -30Q451 -30 324 37T126 226T55 511Q55 629 96 728T212 899T388 1010T612 1050Q746 1050 851 1003T1024 871T1119 672T1121 423H355Q356 363 391 318T487 248T629 222Q719 222 800 245T955 318L1058
96Q1011 60 937 32T779 -13T619 -30ZM375 644H809Q807 721 752 767T603 813Q508 813 446 767T375 644Z" />
<glyph unicode="f" glyph-name="f" horiz-adv-x="837" d="M221 0V1113Q221 1276 318 1373T597 1470Q656 1470 711 1458T819 1420L771 1171Q742 1187 716 1193T665 1199Q611 1199 580 1174T548 1096V1020H797V760H548V0H221ZM43 760V1020H251V760H43Z" />
<glyph unicode="g" glyph-name="g" horiz-adv-x="1225" d="M533 -450Q419 -450 328 -431T171 -375T70 -287T35 -171Q35 -121 63 -77T143 -1T268 48Q211 81 184 122T156 215Q156 262 184 304T262 380T379 433T525 452L584 329Q528 329 492 322T439 301T422 268Q422
244 450 231T549 211L723 196Q850 184 943 153T1087 64T1138 -86Q1138 -165 1095 -231T973 -347T782 -423T533 -450ZM581 -244Q700 -244 769 -213T838 -131Q838 -91 797 -71T667 -43L473 -28Q424 -33 390 -47T338 -83T320 -130Q320 -164 352 -190T442 -230T581
-244ZM566 318Q430 318 327 366T165 498T106 685Q106 786 165 869T329 1001T566 1050Q698 1050 801 1002T964 871T1024 685Q1024 583 966 500T804 367T566 318ZM566 540Q618 540 659 558T725 609T749 685Q749 749 697 789T566 830Q513 830 472 811T406 760T382
685Q382 621 434 581T566 540ZM719 775L595 988L1199 1020V760L719 775Z" />
<glyph unicode="h" glyph-name="h" horiz-adv-x="1309" d="M136 0V1440H464V792L396 873Q462 954 553 1002T754 1050Q897 1050 992 993T1135 844T1182 646V0H854V554Q854 642 803 697T660 753Q598 754 555 729T488 656T464 543V0H136Z" />
<glyph unicode="i" glyph-name="i" horiz-adv-x="601" d="M136 0V1020H464V0H136ZM300 1171Q221 1171 163 1220T104 1354Q104 1438 162 1487T300 1536Q380 1536 438 1487T496 1354Q496 1270 438 1221T300 1171Z" />
<glyph unicode="j" glyph-name="j" horiz-adv-x="601" d="M98 -450Q19 -450 -35 -438T-145 -396L-80 -153Q-54 -166 -29 -173T27 -180Q84 -180 110 -149T136 -54V1020H464V-75Q464 -187 419 -271T291 -403T98 -450ZM300 1171Q221 1171 163 1220T104 1354Q104 1438
162 1487T300 1536Q380 1536 438 1487T496 1354Q496 1270 438 1221T300 1171Z" />
<glyph unicode="k" glyph-name="k" horiz-adv-x="1206" d="M136 0V1440H464V682L771 1020H1151L794 608L1183 0H795L556 394L464 296V0H136Z" />
<glyph unicode="l" glyph-name="l" horiz-adv-x="601" d="M136 0V1440H464V0H136Z" />
<glyph unicode="m" glyph-name="m" horiz-adv-x="1970" d="M136 0V1020H464V894Q501 946 551 980T658 1032T773 1050Q885 1050 966 1000T1078 864Q1138 961 1239 1005T1454 1050Q1602 1050 1687 994T1807 848T1843 658V0H1515V564Q1515 650 1470 701T1339 753Q1285
753 1243 730T1178 669T1154 582V0H826V564Q826 650 781 701T650 753Q595 753 553 730T488 669T464 582V0H136Z" />
<glyph unicode="n" glyph-name="n" horiz-adv-x="1309" d="M136 0V1020H464V912Q521 984 599 1017T763 1050Q907 1050 1000 994T1137 848T1182 658V0H854V555Q854 647 806 700T663 753Q603 753 559 727T489 654T464 545V0H136Z" />
<glyph unicode="o" glyph-name="o" horiz-adv-x="1246" d="M623 -30Q456 -30 328 43T128 240T55 510Q55 617 96 714T214 887T394 1006T623 1050Q790 1050 918 977T1118 780T1190 510Q1190 403 1149 306T1032 133T852 14T623 -30ZM623 252Q693 252 749 283T837
373T869 510Q869 590 838 647T750 736T623 768Q552 768 496 737T408 648T376 510Q376 431 408 373T497 284T623 252Z" />
<glyph unicode="p" glyph-name="p" horiz-adv-x="1332" d="M136 -420V1020H419V903Q476 970 564 1010T770 1050Q916 1050 1030 983T1211 794T1277 510Q1277 396 1240 298T1133 126T971 11T764 -30Q674 -30 599 -1T463 81V-420H136ZM709 252Q780 252 836 283T924
373T956 510Q956 590 924 647T836 736T709 768Q639 768 583 737T495 648T463 510Q463 431 495 373T582 284T709 252Z" />
<glyph unicode="q" glyph-name="q" horiz-adv-x="1332" d="M869 -420V229L943 154Q873 63 779 17T568 -30Q418 -30 302 41T121 235T55 510Q55 632 93 731T199 902T360 1011T562 1050Q659 1050 738 1023T872 945T958 830L913 756V1020H1196V-420H869ZM623 252Q694
252 750 283T837 373T869 510Q869 590 837 647T749 736T623 768Q553 768 497 737T409 648T376 510Q376 431 408 373T496 284T623 252Z" />
<glyph unicode="r" glyph-name="r" horiz-adv-x="887" d="M136 0V1020H464V901Q510 980 586 1016T751 1052Q785 1052 812 1048T865 1039L826 702Q792 714 754 721T678 729Q585 729 525 676T464 519V0H136Z" />
<glyph unicode="s" glyph-name="s" horiz-adv-x="1045" d="M519 -28Q377 -28 260 7T57 106L159 331Q242 278 337 248T517 217Q595 217 636 238T677 301Q677 337 640 354T493 391Q287 426 192 506T96 727Q96 827 151 902T303 1018T528 1060Q652 1060 762 1027T952
935L853 710Q812 741 759 765T648 802T537 815Q470 815 429 795T387 738Q387 701 423 683T567 642Q785 598 876 524T967 315Q967 211 911 134T754 15T519 -28Z" />
<glyph unicode="t" glyph-name="t" horiz-adv-x="898" d="M585 -30Q415 -30 318 65T221 351V1312H549V1020H788V760H549V408Q549 326 585 293T678 260Q709 260 739 267T796 290L838 33Q791 7 725 -11T585 -30ZM23 760V1020H251V760H23Z" />
<glyph unicode="u" glyph-name="u" horiz-adv-x="1276" d="M536 -30Q397 -30 306 24T171 175T126 400V1020H454V449Q454 365 498 316T628 267Q683 267 724 291T788 359T811 459V1020H1139V0H856V108Q807 53 732 12T536 -30Z" />
<glyph unicode="v" glyph-name="v" horiz-adv-x="1121" d="M376 0L16 1020H368L585 283H549L761 1020H1105L758 0H376Z" />
<glyph unicode="w" glyph-name="w" horiz-adv-x="1657" d="M321 0L16 1020H333L498 377L688 1020H990L1173 377L1336 1020H1641L1336 0H1010L833 619L647 0H321Z" />
<glyph unicode="x" glyph-name="x" horiz-adv-x="1229" d="M22 -3L389 503L41 1020H455L618 728L777 1020H1182L844 509L1207 0H787L607 288L425 3L22 -3Z" />
<glyph unicode="y" glyph-name="y" horiz-adv-x="1164" d="M288 -447Q218 -447 151 -433T28 -388L97 -114Q130 -131 169 -141T242 -151Q297 -151 335 -128T391 -52L406 -4L10 1020H366L592 321L811 1020H1158L735 -101Q683 -231 615 -306T463 -414T288 -447Z" />
<glyph unicode="z" glyph-name="z" horiz-adv-x="1029" d="M83 0V219L532 732H98V1020H938V801L511 289H946V0H83Z" />
<glyph unicode="{" glyph-name="braceleft" horiz-adv-x="716" d="M633 -225Q386 -247 279 -156T208 142L256 445Q264 497 252 526T200 567T83 580V803Q160 803 200 815T252 856T256 937L208 1236Q172 1445 279 1536T633 1606V1382Q536 1389 499 1359T473 1256L524
934Q541 834 501 772T367 692V690Q464 672 504 609T527 447L473 125Q461 54 498 24T633 -2V-225Z" />
<glyph unicode="|" glyph-name="bar" horiz-adv-x="665" d="M200 -220V1600H465V-220H200Z" />
<glyph unicode="}" glyph-name="braceright" horiz-adv-x="716" d="M83 -225V-2Q180 -7 217 23T243 125L189 447Q172 546 212 609T349 690V692Q256 709 216 771T192 934L243 1256Q254 1329 217 1359T83 1382V1606Q330 1627 437 1536T508 1236L460 937Q451 886
463 857T515 815T633 803V580Q556 580 516 568T463 526T460 445L508 142Q543 -65 437 -156T83 -225Z" />
<glyph unicode="~" glyph-name="asciitilde" horiz-adv-x="1296" d="M882 480Q821 480 758 502T633 554T519 605T423 628Q362 628 306 593T203 490L87 670Q153 764 237 810T414 856Q476 856 539 834T663 782T777 731T873 708Q933 708 989 743T1093 849L1209 666Q1143
573 1059 527T882 480Z" />
<glyph unicode="&#xa0;" glyph-name="uni00A0" horiz-adv-x="460" />
<glyph unicode="&#xa1;" glyph-name="exclamdown" horiz-adv-x="700" d="M158 -377L208 511H488L538 -377H158ZM348 666Q266 666 206 718T145 860Q145 919 172 962T246 1029T348 1053Q431 1053 491 1001T551 860Q551 800 523 757T449 690T348 666Z" />
<glyph unicode="&#xa2;" glyph-name="cent" horiz-adv-x="1296" d="M597 -160V10Q470 30 376 100T229 276T176 510Q176 640 229 744T377 918T597 1010V1180H817V1013Q892 1004 962 976T1082 909L964 701Q930 722 891 734T813 750V273Q861 278 905 294T988 335L1077
105Q1022 64 957 41T817 8V-160H597ZM602 281V742Q549 737 510 706T449 625T427 511Q427 414 475 353T602 281Z" />
<glyph unicode="&#xa3;" glyph-name="sterling" horiz-adv-x="1296" d="M141 0V241Q228 257 284 284T367 358T395 483Q395 525 375 590T328 730T281 878T261 1010Q261 1132 325 1227T503 1376T766 1430Q848 1430 929 1407T1077 1348T1182 1269L1061 1061Q988 1126
917 1151T771 1177Q669 1177 619 1121T569 978Q569 930 583 867T617 736T652 602T667 484Q667 427 646 366T571 250H1210V0H141ZM120 580V792H1017V580H120Z" />
<glyph unicode="&#xa4;" glyph-name="currency" horiz-adv-x="1296" d="M282 89L113 256L267 407Q237 456 223 511T208 620Q208 676 223 731T267 835L113 988L282 1155L434 1002Q484 1032 538 1046T648 1060Q705 1060 759 1046T862 1002L1014 1155L1183 988L1030
835Q1059 787 1074 732T1089 620Q1089 566 1074 511T1030 407L1183 256L1014 89L862 242Q813 213 760 199T648 184Q590 184 537 198T434 242L282 89ZM648 424Q706 424 750 449T821 518T847 620Q847 678 821 723T750 793T648 819Q591 819 546 794T476 723T450 620Q450
563 475 519T546 449T648 424Z" />
<glyph unicode="&#xa5;" glyph-name="yen" horiz-adv-x="1296" d="M490 0V264H125V459H490V595H125V789H401L15 1400H350L646 881L958 1400H1281L886 789H1161V595H794V459H1161V264H794V0H490Z" />
<glyph unicode="&#xa6;" glyph-name="brokenbar" horiz-adv-x="665" d="M200 810V1480H465V810H200ZM200 -100V570H465V-100H200Z" />
<glyph unicode="&#xa7;" glyph-name="section" horiz-adv-x="1291" d="M627 -450Q482 -450 351 -406T135 -293L244 -56Q323 -120 429 -156T637 -193Q738 -193 798 -156T859 -58Q859 -17 839 11T768 60T623 104Q450 141 338 190T171 313T116 496Q116 578 157 647T271
765T441 842T652 869L651 691Q583 691 526 671T435 612T400 516Q400 439 475 397T698 324Q925 277 1028 189T1131 -62Q1131 -180 1067 -267T889 -402T627 -450ZM661 118L658 293Q728 293 786 314T881 377T917 485Q917 532 886 564T788 620T615 667Q390 714 290
803T189 1052Q189 1164 251 1249T422 1382T673 1430Q806 1430 930 1391T1146 1276L1039 1038Q989 1080 925 1110T794 1157T663 1174Q571 1174 514 1139T457 1046Q457 1002 479 975T555 927T700 887Q954 833 1078 748T1203 506Q1203 388 1131 301T937 166T661 118Z"
/>
<glyph unicode="&#xa8;" glyph-name="dieresis" horiz-adv-x="1000" d="M249 1168Q179 1168 124 1216T68 1345Q68 1398 93 1438T160 1499T249 1521Q320 1521 375 1474T430 1345Q430 1291 405 1252T338 1190T249 1168ZM751 1168Q681 1168 626 1216T570 1345Q570
1398 595 1438T662 1499T751 1521Q822 1521 877 1474T932 1345Q932 1291 907 1252T840 1190T751 1168Z" />
<glyph unicode="&#xa9;" glyph-name="copyright" horiz-adv-x="1676" d="M838 -43Q681 -43 547 12T313 167T156 399T100 687Q100 842 156 975T312 1207T547 1361T838 1417Q994 1417 1128 1361T1363 1204T1520 972T1576 687Q1576 532 1520 399T1363 167T1128 13T838
-43ZM838 98Q958 98 1063 140T1248 259T1373 445T1419 687Q1419 820 1374 928T1248 1113T1062 1232T838 1274Q719 1274 614 1233T429 1114T303 928T257 687Q257 554 302 446T428 260T614 140T838 98ZM862 279Q736 279 640 328T491 469T437 685Q437 805 492 897T643
1042T864 1095Q962 1095 1031 1071T1155 1002L1066 856Q1031 889 984 906T876 923Q758 923 691 860T623 687Q623 576 691 514T880 451Q935 451 989 467T1094 520L1175 370Q1118 329 1042 304T862 279Z" />
<glyph unicode="&#xaa;" glyph-name="ordfeminine" horiz-adv-x="832" d="M314 702V702Q214 702 145 759T75 917Q75 994 127 1047T284 1122T550 1132L551 995Q469 1009 407 1007T310 985T275 928Q275 896 302 879T377 861Q435 861 475 891T515 977V1126Q515 1175
484 1210T358 1245Q310 1245 258 1230T164 1184L110 1329Q176 1373 250 1394T399 1415Q552 1415 639 1346T726 1129V722H535V792Q503 749 445 726T314 702Z" />
<glyph unicode="&#xab;" glyph-name="guillemotleft" horiz-adv-x="1162" d="M828 72L530 521L828 970L1046 835L837 521L1045 208L828 72ZM343 72L45 521L343 970L561 835L352 521L560 208L343 72Z" />
<glyph unicode="&#xac;" glyph-name="logicalnot" horiz-adv-x="1296" d="M962 332V780H96V1005H1200V332H962Z" />
<glyph unicode="&#xad;" glyph-name="uni00AD" horiz-adv-x="0" />
<glyph unicode="&#xae;" glyph-name="registered" horiz-adv-x="1216" d="M608 472Q460 472 342 539T154 723T84 984Q84 1129 153 1244T341 1427T608 1494Q755 1494 874 1426T1062 1242T1132 984Q1132 839 1063 723T875 540T608 472ZM608 561Q723 561 819 613T974
761T1033 984Q1033 1110 975 1204T820 1351T608 1404Q494 1404 398 1352T243 1205T184 984Q184 857 242 762T396 614T608 561ZM416 708V1258H640Q732 1258 788 1214T844 1091Q844 1031 806 993T709 940L873 708H739L594 919H527V708H416ZM527 1009H624Q674 1009
702 1028T730 1086Q730 1124 705 1145T631 1166H527V1009Z" />
<glyph unicode="&#xaf;" glyph-name="overscore" horiz-adv-x="1000" d="M137 1230V1430H863V1230H137Z" />
<glyph unicode="&#xb0;" glyph-name="degree" horiz-adv-x="899" d="M451 632Q338 632 247 684T102 826T48 1027Q48 1137 102 1226T247 1367T451 1420Q563 1420 654 1368T798 1226T852 1027Q852 917 799 828T654 685T451 632ZM451 841Q504 841 546 865T611 931T635
1027Q635 1108 584 1160T451 1212Q396 1212 355 1188T290 1123T266 1027Q266 945 318 893T451 841Z" />
<glyph unicode="&#xb1;" glyph-name="plusminus" horiz-adv-x="1296" d="M531 332V750H96V975H531V1394H766V975H1200V750H766V332H531ZM96 16V241H1200V16H96Z" />
<glyph unicode="&#xb2;" glyph-name="uni00B2" horiz-adv-x="839" d="M86 722V867L286 1041Q371 1115 424 1167T501 1260T525 1344Q525 1403 484 1434T367 1465Q304 1465 248 1441T148 1373L72 1534Q137 1590 219 1621T390 1652Q546 1652 638 1574T730 1371Q730
1311 705 1255T622 1134T467 984L376 904H755V722H86Z" />
<glyph unicode="&#xb3;" glyph-name="uni00B3" horiz-adv-x="824" d="M375 702Q280 702 194 732T66 805L133 980Q171 939 234 915T360 890Q432 890 478 922T524 1009Q524 1066 480 1097T363 1129Q341 1129 313 1126T254 1114L195 1254L439 1452H78V1632H690V1467L465
1259Q532 1254 592 1223T692 1134T731 993Q731 908 685 843T559 740T375 702Z" />
<glyph unicode="&#xb4;" glyph-name="acute" horiz-adv-x="1000" d="M275 1170L469 1534H795L571 1170H275Z" />
<glyph unicode="&#xb5;" glyph-name="uni00B5" horiz-adv-x="1295" d="M136 -420V1020H464V459Q464 402 487 359T552 292T647 267Q702 267 743 291T807 359T830 459V1020H1158V0H875V108Q836 53 777 12T627 -30Q552 -30 499 -7T410 55L437 -420H136Z" />
<glyph unicode="&#xb6;" glyph-name="paragraph" horiz-adv-x="1378" d="M539 -420V565L583 521Q424 521 304 575T117 729T50 961Q50 1093 117 1192T304 1345T583 1400H1340V1215H1131V-420H910V1215H760V-420H539Z" />
<glyph unicode="&#xb7;" glyph-name="middot" horiz-adv-x="575" d="M288 507Q206 507 146 559T85 700Q85 760 112 803T186 870T288 894Q371 894 431 842T491 700Q491 640 463 597T389 531T288 507Z" />
<glyph unicode="&#xb8;" glyph-name="cedilla" horiz-adv-x="1000" d="M476 -450Q397 -450 330 -430T213 -379L272 -233Q306 -263 363 -277T464 -291Q505 -291 530 -281T555 -249Q555 -222 511 -212T414 -210L352 -94L407 40H581L548 -62Q657 -73 721 -119T786
-248Q786 -319 739 -363T621 -429T476 -450Z" />
<glyph unicode="&#xb9;" glyph-name="uni00B9" horiz-adv-x="654" d="M310 722V1390L97 1320L39 1493L499 1652H514V722H310Z" />
<glyph unicode="&#xba;" glyph-name="ordmasculine" horiz-adv-x="873" d="M436 702Q325 702 239 750T105 879T56 1055Q56 1147 104 1227T239 1357T436 1407Q548 1407 634 1359T768 1231T817 1055Q817 962 769 882T634 752T436 702ZM436 892Q483 892 520 912T579
968T600 1055Q600 1130 554 1173T436 1217Q389 1217 352 1198T293 1142T271 1055Q271 980 319 936T436 892Z" />
<glyph unicode="&#xbb;" glyph-name="guillemotright" horiz-adv-x="1162" d="M819 73L601 208L810 522L601 835L819 971L1117 522L819 73ZM334 73L116 208L325 522L116 835L334 971L632 522L334 73Z" />
<glyph unicode="&#xbc;" glyph-name="onequarter" horiz-adv-x="1866" d="M310 490V1158L97 1088L39 1261L499 1420H514V490H310ZM1502 0V169H1057V328L1354 910H1572L1285 347H1502V522H1687V347H1814V169H1687V0H1502ZM551 -37L382 63L1152 1438L1321 1342L551 -37Z" />
<glyph unicode="&#xbd;" glyph-name="onehalf" horiz-adv-x="1888" d="M310 490V1158L97 1088L39 1261L499 1420H514V490H310ZM1135 0V145L1335 319Q1420 393 1473 445T1550 538T1574 622Q1574 681 1533 712T1416 743Q1358 743 1301 721T1197 651L1121 812Q1186
868 1268 899T1439 930Q1595 930 1687 852T1779 649Q1779 589 1754 533T1671 412T1516 262L1425 182H1804V0H1135ZM551 -37L382 63L1152 1438L1321 1342L551 -37Z" />
<glyph unicode="&#xbe;" glyph-name="threequarters" horiz-adv-x="2036" d="M375 470Q280 470 194 500T66 573L133 748Q171 707 234 683T360 658Q432 658 478 690T524 777Q524 834 480 865T363 897Q341 897 313 894T254 882L195 1022L439 1220H78V1400H690V1235L465
1027Q532 1022 592 991T692 902T731 761Q731 676 685 611T559 508T375 470ZM1672 0V169H1227V328L1524 910H1742L1455 347H1672V522H1857V347H1984V169H1857V0H1672ZM721 -37L552 63L1322 1438L1491 1342L721 -37Z" />
<glyph unicode="&#xbf;" glyph-name="questiondown" horiz-adv-x="1022" d="M552 -407Q419 -407 313 -364T144 -241T81 -57Q81 6 104 57T178 158T312 265Q368 303 393 336T421 415T416 535H713Q741 432 733 367T689 259T599 180Q520 127 490 94T460 16Q460 -44
504 -74T637 -105Q709 -105 768 -84T891 -26L958 -293Q936 -315 877 -341T734 -387T552 -407ZM559 666Q477 666 417 718T356 860Q356 919 383 962T457 1029T559 1053Q642 1053 702 1001T762 860Q762 800 734 757T660 690T559 666Z" />
<glyph unicode="&#xc0;" glyph-name="Agrave" horiz-adv-x="1450" d="M7 0L530 1400H915L1443 0H1069L970 284H468L371 0H7ZM543 561H893L717 1045L543 561ZM582 1530L356 1874H704L900 1530H582Z" />
<glyph unicode="&#xc1;" glyph-name="Aacute" horiz-adv-x="1450" d="M7 0L530 1400H915L1443 0H1069L970 284H468L371 0H7ZM543 561H893L717 1045L543 561ZM549 1530L748 1874H1089L858 1530H549Z" />
<glyph unicode="&#xc2;" glyph-name="Acircumflex" horiz-adv-x="1450" d="M7 0L530 1400H915L1443 0H1069L970 284H468L371 0H7ZM543 561H893L717 1045L543 561ZM270 1530L576 1874H875L1178 1530H855L720 1687L582 1530H270Z" />
<glyph unicode="&#xc3;" glyph-name="Atilde" horiz-adv-x="1450" d="M7 0L530 1400H915L1443 0H1069L970 284H468L371 0H7ZM543 561H893L717 1045L543 561ZM412 1513L280 1650Q323 1756 394 1812T558 1868Q627 1868 684 1843T792 1793T897 1767Q943 1767 978
1796T1035 1889L1165 1750Q1143 1645 1072 1592T905 1538Q836 1538 776 1562T661 1612T556 1637Q510 1637 473 1607T412 1513Z" />
<glyph unicode="&#xc4;" glyph-name="Adieresis" horiz-adv-x="1450" d="M7 0L530 1400H915L1443 0H1069L970 284H468L371 0H7ZM543 561H893L717 1045L543 561ZM463 1530Q390 1530 332 1578T274 1709Q274 1763 300 1803T370 1865T463 1887Q536 1887 593 1839T651
1709Q651 1654 624 1614T554 1552T463 1530ZM983 1530Q910 1530 852 1578T794 1709Q794 1763 820 1803T890 1865T983 1887Q1055 1887 1112 1839T1170 1709Q1170 1654 1143 1614T1073 1552T983 1530Z" />
<glyph unicode="&#xc5;" glyph-name="Aring" horiz-adv-x="1450" d="M7 0L530 1400H915L1443 0H1069L970 284H468L371 0H7ZM543 561H893L717 1045L543 561ZM723 1473Q633 1473 560 1512T443 1621T399 1777Q399 1864 442 1933T559 2042T723 2082Q813 2082 886 2042T1003
1933T1047 1777Q1047 1690 1004 1621T887 1513T723 1473ZM723 1653Q780 1653 814 1687T849 1777Q849 1832 815 1866T723 1901Q667 1901 632 1867T597 1777Q597 1722 632 1688T723 1653Z" />
<glyph unicode="&#xc6;" glyph-name="AE" horiz-adv-x="1816" d="M-80 0L553 1400H1694V1112H1108V852H1616V585H1108V291H1702V0H776V283H396L273 0H-80ZM503 546H776V1164L503 546Z" />
<glyph unicode="&#xc7;" glyph-name="Ccedilla" horiz-adv-x="1397" d="M813 -30Q596 -30 430 59T171 311T78 696Q78 858 132 992T286 1225T521 1376T818 1430Q993 1430 1112 1386T1327 1261L1161 988Q1103 1048 1021 1077T840 1107Q742 1107 666 1079T536 997T454
869T426 701Q426 573 476 482T621 343T846 294Q940 294 1032 322T1208 415L1360 136Q1263 61 1128 16T813 -30ZM750 -450Q671 -450 604 -430T487 -379L546 -233Q580 -263 637 -277T738 -291Q779 -291 804 -281T829 -249Q829 -222 785 -212T688 -210L626 -94L681
40H855L822 -62Q931 -73 995 -119T1060 -248Q1060 -319 1013 -363T895 -429T750 -450Z" />
<glyph unicode="&#xc8;" glyph-name="Egrave" horiz-adv-x="1270" d="M165 0V1400H1149V1112H497V852H1044V586H497V291H1157V0H165ZM510 1530L284 1874H632L828 1530H510Z" />
<glyph unicode="&#xc9;" glyph-name="Eacute" horiz-adv-x="1270" d="M165 0V1400H1149V1112H497V852H1044V586H497V291H1157V0H165ZM477 1530L676 1874H1017L786 1530H477Z" />
<glyph unicode="&#xca;" glyph-name="Ecircumflex" horiz-adv-x="1270" d="M165 0V1400H1149V1112H497V852H1044V586H497V291H1157V0H165ZM198 1530L504 1874H803L1106 1530H783L648 1687L510 1530H198Z" />
<glyph unicode="&#xcb;" glyph-name="Edieresis" horiz-adv-x="1270" d="M165 0V1400H1149V1112H497V852H1044V586H497V291H1157V0H165ZM391 1530Q318 1530 260 1578T202 1709Q202 1763 228 1803T298 1865T391 1887Q464 1887 521 1839T579 1709Q579 1654 552 1614T482
1552T391 1530ZM911 1530Q838 1530 780 1578T722 1709Q722 1763 748 1803T818 1865T911 1887Q983 1887 1040 1839T1098 1709Q1098 1654 1071 1614T1001 1552T911 1530Z" />
<glyph unicode="&#xcc;" glyph-name="Igrave" horiz-adv-x="662" d="M165 0V1400H497V0H165ZM446 1530L220 1874H568L764 1530H446Z" />
<glyph unicode="&#xcd;" glyph-name="Iacute" horiz-adv-x="662" d="M165 0V1400H497V0H165ZM167 1550L339 1914H665L461 1550H167Z" />
<glyph unicode="&#xce;" glyph-name="Icircumflex" horiz-adv-x="662" d="M165 0V1400H497V0H165ZM-70 1550L192 1914H472L733 1550H426L326 1733L225 1550H-70Z" />
<glyph unicode="&#xcf;" glyph-name="Idieresis" horiz-adv-x="662" d="M165 0V1400H497V0H165ZM124 1548Q51 1548 3 1596T-45 1725Q-45 1806 3 1853T124 1901Q195 1901 243 1854T292 1725Q292 1644 244 1596T124 1548ZM538 1548Q468 1548 420 1596T371 1725Q371
1806 419 1853T538 1901Q611 1901 659 1854T707 1725Q707 1644 659 1596T538 1548Z" />
<glyph unicode="&#xd0;" glyph-name="Eth" horiz-adv-x="1495" d="M-3 593V846H868V593H-3ZM205 0V1400H685Q903 1400 1067 1311T1324 1065T1416 700Q1416 544 1364 416T1214 194T983 51T685 0H205ZM537 309H668Q758 309 831 334T957 409T1039 532T1068 700Q1068
827 1018 914T878 1046T668 1091H537V309Z" />
<glyph unicode="&#xd1;" glyph-name="Ntilde" horiz-adv-x="1556" d="M165 0V1400H493L1069 542V1400H1391V0H1063L486 870V0H165ZM467 1513L335 1650Q378 1756 449 1812T613 1868Q682 1868 739 1843T847 1793T952 1767Q998 1767 1033 1796T1090 1889L1220 1750Q1198
1645 1127 1592T960 1538Q891 1538 831 1562T716 1612T611 1637Q565 1637 528 1607T467 1513Z" />
<glyph unicode="&#xd2;" glyph-name="Ograve" horiz-adv-x="1651" d="M825 -30Q664 -30 528 25T290 180T134 412T78 700Q78 856 133 989T290 1221T527 1375T825 1430Q987 1430 1123 1374T1360 1218T1516 986T1572 700Q1572 545 1517 412T1360 180T1123 26T825
-30ZM825 282Q912 282 984 311T1111 395T1194 527T1224 700Q1224 828 1173 922T1031 1067T825 1119Q739 1119 666 1090T540 1005T456 873T426 700Q426 573 478 479T620 334T825 282ZM684 1530L458 1874H806L1002 1530H684Z" />
<glyph unicode="&#xd3;" glyph-name="Oacute" horiz-adv-x="1651" d="M825 -30Q664 -30 528 25T290 180T134 412T78 700Q78 856 133 989T290 1221T527 1375T825 1430Q987 1430 1123 1374T1360 1218T1516 986T1572 700Q1572 545 1517 412T1360 180T1123 26T825
-30ZM825 282Q912 282 984 311T1111 395T1194 527T1224 700Q1224 828 1173 922T1031 1067T825 1119Q739 1119 666 1090T540 1005T456 873T426 700Q426 573 478 479T620 334T825 282ZM652 1530L851 1874H1192L961 1530H652Z" />
<glyph unicode="&#xd4;" glyph-name="Ocircumflex" horiz-adv-x="1651" d="M825 -30Q664 -30 528 25T290 180T134 412T78 700Q78 856 133 989T290 1221T527 1375T825 1430Q987 1430 1123 1374T1360 1218T1516 986T1572 700Q1572 545 1517 412T1360 180T1123 26T825
-30ZM825 282Q912 282 984 311T1111 395T1194 527T1224 700Q1224 828 1173 922T1031 1067T825 1119Q739 1119 666 1090T540 1005T456 873T426 700Q426 573 478 479T620 334T825 282ZM372 1530L678 1874H977L1280 1530H957L822 1687L684 1530H372Z" />
<glyph unicode="&#xd5;" glyph-name="Otilde" horiz-adv-x="1651" d="M825 -30Q664 -30 528 25T290 180T134 412T78 700Q78 856 133 989T290 1221T527 1375T825 1430Q987 1430 1123 1374T1360 1218T1516 986T1572 700Q1572 545 1517 412T1360 180T1123 26T825
-30ZM825 282Q912 282 984 311T1111 395T1194 527T1224 700Q1224 828 1173 922T1031 1067T825 1119Q739 1119 666 1090T540 1005T456 873T426 700Q426 573 478 479T620 334T825 282ZM515 1513L383 1650Q426 1756 497 1812T661 1868Q730 1868 787 1843T895 1793T1000
1767Q1046 1767 1081 1796T1138 1889L1268 1750Q1246 1645 1175 1592T1008 1538Q939 1538 879 1562T764 1612T659 1637Q613 1637 576 1607T515 1513Z" />
<glyph unicode="&#xd6;" glyph-name="Odieresis" horiz-adv-x="1651" d="M825 -30Q664 -30 528 25T290 180T134 412T78 700Q78 856 133 989T290 1221T527 1375T825 1430Q987 1430 1123 1374T1360 1218T1516 986T1572 700Q1572 545 1517 412T1360 180T1123 26T825
-30ZM825 282Q912 282 984 311T1111 395T1194 527T1224 700Q1224 828 1173 922T1031 1067T825 1119Q739 1119 666 1090T540 1005T456 873T426 700Q426 573 478 479T620 334T825 282ZM566 1530Q493 1530 435 1578T377 1709Q377 1763 403 1803T473 1865T566 1887Q639
1887 696 1839T754 1709Q754 1654 727 1614T657 1552T566 1530ZM1086 1530Q1013 1530 955 1578T897 1709Q897 1763 923 1803T993 1865T1086 1887Q1158 1887 1215 1839T1273 1709Q1273 1654 1246 1614T1176 1552T1086 1530Z" />
<glyph unicode="&#xd7;" glyph-name="multiply" horiz-adv-x="1296" d="M300 168L148 320L496 669L148 1017L300 1169L648 821L997 1169L1149 1016L801 668L1149 320L997 168L648 516L300 168Z" />
<glyph unicode="&#xd8;" glyph-name="Oslash" horiz-adv-x="1651" d="M313 -105L118 69L246 223Q167 319 123 440T78 700Q78 855 134 988T292 1220T530 1374T825 1430Q927 1430 1014 1407T1173 1343L1318 1518L1513 1345L1387 1195Q1476 1098 1524 971T1572 700Q1572
545 1516 412T1358 180T1120 26T825 -30Q723 -30 630 -5T455 66L313 -105ZM478 494L974 1093Q941 1111 903 1120T825 1129Q738 1129 664 1099T535 1013T450 877T419 700Q419 639 435 588T478 494ZM825 271Q915 271 989 301T1117 389T1202 525T1232 700Q1232 767
1215 828T1165 936L648 313Q687 293 731 282T825 271Z" />
<glyph unicode="&#xd9;" glyph-name="Ugrave" horiz-adv-x="1513" d="M757 -30Q560 -30 427 48T225 262T157 576V1400H489V564Q489 421 560 352T757 282Q882 282 952 351T1023 564V1400H1356V576Q1356 400 1288 264T1087 49T757 -30ZM616 1530L390 1874H738L934
1530H616Z" />
<glyph unicode="&#xda;" glyph-name="Uacute" horiz-adv-x="1513" d="M757 -30Q560 -30 427 48T225 262T157 576V1400H489V564Q489 421 560 352T757 282Q882 282 952 351T1023 564V1400H1356V576Q1356 400 1288 264T1087 49T757 -30ZM583 1530L782 1874H1123L892
1530H583Z" />
<glyph unicode="&#xdb;" glyph-name="Ucircumflex" horiz-adv-x="1513" d="M757 -30Q560 -30 427 48T225 262T157 576V1400H489V564Q489 421 560 352T757 282Q882 282 952 351T1023 564V1400H1356V576Q1356 400 1288 264T1087 49T757 -30ZM304 1530L610 1874H909L1212
1530H889L754 1687L616 1530H304Z" />
<glyph unicode="&#xdc;" glyph-name="Udieresis" horiz-adv-x="1513" d="M757 -30Q560 -30 427 48T225 262T157 576V1400H489V564Q489 421 560 352T757 282Q882 282 952 351T1023 564V1400H1356V576Q1356 400 1288 264T1087 49T757 -30ZM497 1530Q424 1530 366
1578T308 1709Q308 1763 334 1803T404 1865T497 1887Q570 1887 627 1839T685 1709Q685 1654 658 1614T588 1552T497 1530ZM1017 1530Q944 1530 886 1578T828 1709Q828 1763 854 1803T924 1865T1017 1887Q1089 1887 1146 1839T1204 1709Q1204 1654 1177 1614T1107
1552T1017 1530Z" />
<glyph unicode="&#xdd;" glyph-name="Yacute" horiz-adv-x="1297" d="M482 0V585L-9 1400H364L655 903L943 1400H1306L815 582V0H482ZM474 1530L673 1874H1014L783 1530H474Z" />
<glyph unicode="&#xde;" glyph-name="Thorn" horiz-adv-x="1338" d="M165 0V1400H497V1183H745Q901 1183 1022 1128T1213 970T1283 720Q1283 572 1219 469T1032 312T737 258H497V0H165ZM497 535H728Q833 535 892 577T951 714Q951 811 890 854T730 898H497V535Z" />
<glyph unicode="&#xdf;" glyph-name="germandbls" horiz-adv-x="1371" d="M867 -28Q819 -28 751 -20T594 24L667 261Q706 238 743 229T817 220Q891 220 932 251T974 335Q974 387 939 423T857 495Q821 523 785 555T723 628T698 720Q698 756 712 788T746 849T785
908Q806 935 824 961T853 1013T865 1068Q865 1128 815 1163T684 1199Q579 1199 522 1136T464 958V0H136V983Q136 1131 203 1240T396 1410T692 1470Q838 1470 948 1428T1121 1311T1183 1136Q1183 1083 1168 1040T1129 960T1083 891Q1061 858 1042 828T1023 768Q1023
731 1055 700T1129 636Q1172 602 1215 560T1286 463T1315 334Q1315 229 1257 147T1098 19T867 -28Z" />
<glyph unicode="&#xe0;" glyph-name="agrave" horiz-adv-x="1160" d="M423 -30Q321 -30 240 9T112 122T65 299Q65 387 108 455T240 567T461 626T774 626L777 422Q682 439 606 439T476 427T393 385T364 316Q364 263 404 235T513 207Q572 207 619 228T695 289T724
389V622Q724 677 701 719T629 784T497 808Q418 808 340 785T200 714L116 939Q215 1001 328 1030T550 1060Q694 1060 803 1014T975 872T1037 626V0H754V108Q705 42 619 6T423 -30ZM416 1170L196 1534H529L720 1170H416Z" />
<glyph unicode="&#xe1;" glyph-name="aacute" horiz-adv-x="1160" d="M423 -30Q321 -30 240 9T112 122T65 299Q65 387 108 455T240 567T461 626T774 626L777 422Q682 439 606 439T476 427T393 385T364 316Q364 263 404 235T513 207Q572 207 619 228T695 289T724
389V622Q724 677 701 719T629 784T497 808Q418 808 340 785T200 714L116 939Q215 1001 328 1030T550 1060Q694 1060 803 1014T975 872T1037 626V0H754V108Q705 42 619 6T423 -30ZM383 1170L577 1534H903L679 1170H383Z" />
<glyph unicode="&#xe2;" glyph-name="acircumflex" horiz-adv-x="1160" d="M423 -30Q321 -30 240 9T112 122T65 299Q65 387 108 455T240 567T461 626T774 626L777 422Q682 439 606 439T476 427T393 385T364 316Q364 263 404 235T513 207Q572 207 619 228T695 289T724
389V622Q724 677 701 719T629 784T497 808Q418 808 340 785T200 714L116 939Q215 1001 328 1030T550 1060Q694 1060 803 1014T975 872T1037 626V0H754V108Q705 42 619 6T423 -30ZM111 1170L409 1534H695L988 1170H679L547 1353L410 1170H111Z" />
<glyph unicode="&#xe3;" glyph-name="atilde" horiz-adv-x="1160" d="M423 -30Q321 -30 240 9T112 122T65 299Q65 387 108 455T240 567T461 626T774 626L777 422Q682 439 606 439T476 427T393 385T364 316Q364 263 404 235T513 207Q572 207 619 228T695 289T724
389V622Q724 677 701 719T629 784T497 808Q418 808 340 785T200 714L116 939Q215 1001 328 1030T550 1060Q694 1060 803 1014T975 872T1037 626V0H754V108Q705 42 619 6T423 -30ZM247 1162L120 1293Q161 1401 230 1459T389 1518Q456 1518 511 1491T617 1438T719
1411Q764 1411 798 1443T853 1541L978 1408Q956 1299 887 1243T726 1187Q658 1187 600 1213T489 1267T387 1294Q341 1294 306 1262T247 1162Z" />
<glyph unicode="&#xe4;" glyph-name="adieresis" horiz-adv-x="1160" d="M423 -30Q321 -30 240 9T112 122T65 299Q65 387 108 455T240 567T461 626T774 626L777 422Q682 439 606 439T476 427T393 385T364 316Q364 263 404 235T513 207Q572 207 619 228T695 289T724
389V622Q724 677 701 719T629 784T497 808Q418 808 340 785T200 714L116 939Q215 1001 328 1030T550 1060Q694 1060 803 1014T975 872T1037 626V0H754V108Q705 42 619 6T423 -30ZM298 1168Q228 1168 173 1216T117 1345Q117 1398 142 1438T209 1499T298 1521Q369
1521 424 1474T479 1345Q479 1291 454 1252T387 1190T298 1168ZM800 1168Q730 1168 675 1216T619 1345Q619 1398 644 1438T711 1499T800 1521Q871 1521 926 1474T981 1345Q981 1291 956 1252T889 1190T800 1168Z" />
<glyph unicode="&#xe5;" glyph-name="aring" horiz-adv-x="1160" d="M423 -30Q321 -30 240 9T112 122T65 299Q65 387 108 455T240 567T461 626T774 626L777 422Q682 439 606 439T476 427T393 385T364 316Q364 263 404 235T513 207Q572 207 619 228T695 289T724
389V622Q724 677 701 719T629 784T497 808Q418 808 340 785T200 714L116 939Q215 1001 328 1030T550 1060Q694 1060 803 1014T975 872T1037 626V0H754V108Q705 42 619 6T423 -30ZM550 1108Q470 1108 405 1143T302 1238T264 1374Q264 1449 302 1509T405 1605T550
1641Q629 1641 693 1606T796 1510T835 1374Q835 1299 797 1239T694 1143T550 1108ZM550 1263Q600 1263 630 1295T660 1374Q660 1422 630 1453T550 1485Q500 1485 470 1454T439 1374Q439 1327 469 1295T550 1263Z" />
<glyph unicode="&#xe6;" glyph-name="ae" horiz-adv-x="1852" d="M453 -30Q278 -30 172 57T65 299Q65 416 142 497T376 612T771 626L770 424Q645 445 554 439T414 401T364 314Q364 262 403 235T511 207Q569 207 617 227T695 290T724 399L725 628Q725 705 672 753T488
801Q421 801 342 777T200 707L116 931Q215 994 328 1023T550 1053Q715 1053 833 991T1004 793L864 819Q953 930 1068 990T1315 1050Q1480 1050 1596 967T1764 742T1786 423H1051Q1053 334 1124 278T1309 222Q1394 222 1471 245T1623 318L1725 96Q1682 60 1615 32T1468
-13T1312 -30Q1121 -30 975 65T771 348L905 373Q902 246 841 156T677 18T453 -30ZM1071 644H1483Q1481 721 1429 767T1289 813Q1197 813 1138 767T1071 644Z" />
<glyph unicode="&#xe7;" glyph-name="ccedilla" horiz-adv-x="1072" d="M620 -30Q458 -30 331 40T129 233T55 510Q55 626 98 724T221 895T405 1009T633 1050Q749 1050 848 1019T1026 924L882 681Q833 726 775 747T652 768Q568 768 507 738T414 650T381 511Q381
389 453 321T653 252Q725 252 788 278T905 356L1038 108Q952 44 842 7T620 -30ZM557 -450Q478 -450 411 -430T294 -379L353 -233Q387 -263 444 -277T545 -291Q586 -291 611 -281T636 -249Q636 -222 592 -212T495 -210L433 -94L488 40H662L629 -62Q738 -73 802 -119T867
-248Q867 -319 820 -363T702 -429T557 -450Z" />
<glyph unicode="&#xe8;" glyph-name="egrave" horiz-adv-x="1188" d="M619 -30Q451 -30 324 37T126 226T55 511Q55 629 96 728T212 899T388 1010T612 1050Q746 1050 851 1003T1024 871T1119 672T1121 423H355Q356 363 391 318T487 248T629 222Q719 222 800 245T955
318L1058 96Q1011 60 937 32T779 -13T619 -30ZM375 644H809Q807 721 752 767T603 813Q508 813 446 767T375 644ZM469 1170L249 1534H582L773 1170H469Z" />
<glyph unicode="&#xe9;" glyph-name="eacute" horiz-adv-x="1188" d="M619 -30Q451 -30 324 37T126 226T55 511Q55 629 96 728T212 899T388 1010T612 1050Q746 1050 851 1003T1024 871T1119 672T1121 423H355Q356 363 391 318T487 248T629 222Q719 222 800 245T955
318L1058 96Q1011 60 937 32T779 -13T619 -30ZM375 644H809Q807 721 752 767T603 813Q508 813 446 767T375 644ZM437 1170L631 1534H957L733 1170H437Z" />
<glyph unicode="&#xea;" glyph-name="ecircumflex" horiz-adv-x="1188" d="M619 -30Q451 -30 324 37T126 226T55 511Q55 629 96 728T212 899T388 1010T612 1050Q746 1050 851 1003T1024 871T1119 672T1121 423H355Q356 363 391 318T487 248T629 222Q719 222 800
245T955 318L1058 96Q1011 60 937 32T779 -13T619 -30ZM375 644H809Q807 721 752 767T603 813Q508 813 446 767T375 644ZM164 1170L462 1534H748L1041 1170H732L600 1353L463 1170H164Z" />
<glyph unicode="&#xeb;" glyph-name="edieresis" horiz-adv-x="1188" d="M619 -30Q451 -30 324 37T126 226T55 511Q55 629 96 728T212 899T388 1010T612 1050Q746 1050 851 1003T1024 871T1119 672T1121 423H355Q356 363 391 318T487 248T629 222Q719 222 800
245T955 318L1058 96Q1011 60 937 32T779 -13T619 -30ZM375 644H809Q807 721 752 767T603 813Q508 813 446 767T375 644ZM352 1168Q282 1168 227 1216T171 1345Q171 1398 196 1438T263 1499T352 1521Q423 1521 478 1474T533 1345Q533 1291 508 1252T441 1190T352
1168ZM854 1168Q784 1168 729 1216T673 1345Q673 1398 698 1438T765 1499T854 1521Q925 1521 980 1474T1035 1345Q1035 1291 1010 1252T943 1190T854 1168Z" />
<glyph unicode="&#xec;" glyph-name="igrave" horiz-adv-x="601" d="M136 0V1020H464V0H136ZM421 1170L223 1534H554L723 1170H421Z" />
<glyph unicode="&#xed;" glyph-name="iacute" horiz-adv-x="601" d="M136 0V1020H464V0H136ZM136 1170L308 1534H634L430 1170H136Z" />
<glyph unicode="&#xee;" glyph-name="icircumflex" horiz-adv-x="601" d="M136 0V1020H464V0H136ZM156 1170L418 1534H698L959 1170H652L552 1353L451 1170H156Z" />
<glyph unicode="&#xef;" glyph-name="idieresis" horiz-adv-x="601" d="M136 0V1020H464V0H136ZM349 1168Q276 1168 228 1216T180 1345Q180 1426 228 1473T349 1521Q420 1521 468 1474T517 1345Q517 1264 469 1216T349 1168ZM763 1168Q693 1168 645 1216T596 1345Q596
1426 644 1473T763 1521Q836 1521 884 1474T932 1345Q932 1264 884 1216T763 1168Z" />
<glyph unicode="&#xf0;" glyph-name="eth" horiz-adv-x="1228" d="M603 -30Q444 -30 321 35T126 212T55 463Q55 562 94 648T204 800T367 903T570 940Q614 940 663 932T760 902T846 843L769 864Q732 923 681 980T565 1093T422 1199T256 1296L501 1467Q703 1356
853 1210T1085 893T1168 537Q1168 419 1126 316T1008 135T829 14T603 -30ZM603 245Q670 245 721 274T802 355T832 478Q832 547 803 599T722 681T603 711Q536 711 485 682T405 600T376 478Q376 408 405 356T485 274T603 245ZM275 953V1141L621 1297V1308L962 1466V1278L621
1120V1109L275 953Z" />
<glyph unicode="&#xf1;" glyph-name="ntilde" horiz-adv-x="1309" d="M136 0V1020H464V912Q521 984 599 1017T763 1050Q907 1050 1000 994T1137 848T1182 658V0H854V555Q854 647 806 700T663 753Q603 753 559 727T489 654T464 545V0H136ZM361 1162L234 1293Q275
1401 344 1459T503 1518Q570 1518 625 1491T731 1438T833 1411Q878 1411 912 1443T967 1541L1092 1408Q1070 1299 1001 1243T840 1187Q772 1187 714 1213T603 1267T501 1294Q455 1294 420 1262T361 1162Z" />
<glyph unicode="&#xf2;" glyph-name="ograve" horiz-adv-x="1246" d="M623 -30Q456 -30 328 43T128 240T55 510Q55 617 96 714T214 887T394 1006T623 1050Q790 1050 918 977T1118 780T1190 510Q1190 403 1149 306T1032 133T852 14T623 -30ZM623 252Q693 252 749
283T837 373T869 510Q869 590 838 647T750 736T623 768Q552 768 496 737T408 648T376 510Q376 431 408 373T497 284T623 252ZM489 1170L269 1534H602L793 1170H489Z" />
<glyph unicode="&#xf3;" glyph-name="oacute" horiz-adv-x="1246" d="M623 -30Q456 -30 328 43T128 240T55 510Q55 617 96 714T214 887T394 1006T623 1050Q790 1050 918 977T1118 780T1190 510Q1190 403 1149 306T1032 133T852 14T623 -30ZM623 252Q693 252 749
283T837 373T869 510Q869 590 838 647T750 736T623 768Q552 768 496 737T408 648T376 510Q376 431 408 373T497 284T623 252ZM457 1170L651 1534H977L753 1170H457Z" />
<glyph unicode="&#xf4;" glyph-name="ocircumflex" horiz-adv-x="1246" d="M623 -30Q456 -30 328 43T128 240T55 510Q55 617 96 714T214 887T394 1006T623 1050Q790 1050 918 977T1118 780T1190 510Q1190 403 1149 306T1032 133T852 14T623 -30ZM623 252Q693 252
749 283T837 373T869 510Q869 590 838 647T750 736T623 768Q552 768 496 737T408 648T376 510Q376 431 408 373T497 284T623 252ZM184 1170L482 1534H768L1061 1170H752L620 1353L483 1170H184Z" />
<glyph unicode="&#xf5;" glyph-name="otilde" horiz-adv-x="1246" d="M623 -30Q456 -30 328 43T128 240T55 510Q55 617 96 714T214 887T394 1006T623 1050Q790 1050 918 977T1118 780T1190 510Q1190 403 1149 306T1032 133T852 14T623 -30ZM623 252Q693 252 749
283T837 373T869 510Q869 590 838 647T750 736T623 768Q552 768 496 737T408 648T376 510Q376 431 408 373T497 284T623 252ZM321 1162L194 1293Q235 1401 304 1459T463 1518Q530 1518 585 1491T691 1438T793 1411Q838 1411 872 1443T927 1541L1052 1408Q1030 1299
961 1243T800 1187Q732 1187 674 1213T563 1267T461 1294Q415 1294 380 1262T321 1162Z" />
<glyph unicode="&#xf6;" glyph-name="odieresis" horiz-adv-x="1246" d="M623 -30Q456 -30 328 43T128 240T55 510Q55 617 96 714T214 887T394 1006T623 1050Q790 1050 918 977T1118 780T1190 510Q1190 403 1149 306T1032 133T852 14T623 -30ZM623 252Q693 252
749 283T837 373T869 510Q869 590 838 647T750 736T623 768Q552 768 496 737T408 648T376 510Q376 431 408 373T497 284T623 252ZM372 1168Q302 1168 247 1216T191 1345Q191 1398 216 1438T283 1499T372 1521Q443 1521 498 1474T553 1345Q553 1291 528 1252T461
1190T372 1168ZM874 1168Q804 1168 749 1216T693 1345Q693 1398 718 1438T785 1499T874 1521Q945 1521 1000 1474T1055 1345Q1055 1291 1030 1252T963 1190T874 1168Z" />
<glyph unicode="&#xf7;" glyph-name="divide" horiz-adv-x="1296" d="M96 556V781H1230V556H96ZM663 118Q596 118 548 165T500 277Q500 320 522 356T581 415T663 437Q731 437 779 390T827 277Q827 234 805 198T745 140T663 118ZM663 898Q596 898 548 945T500 1057Q500
1100 522 1136T581 1195T663 1217Q732 1217 779 1170T827 1057Q827 1014 805 978T746 920T663 898Z" />
<glyph unicode="&#xf8;" glyph-name="oslash" horiz-adv-x="1246" d="M249 -116L86 28L190 155Q127 227 91 318T55 510Q55 617 96 714T214 887T394 1006T623 1050Q694 1050 758 1036T877 994L995 1138L1158 994L1054 867Q1119 795 1154 704T1190 510Q1190 403
1149 306T1032 133T852 14T623 -30Q552 -30 487 -15T367 26L249 -116ZM387 379L710 773Q694 781 674 785T632 789Q553 789 491 754T393 655T357 503Q357 467 365 436T387 379ZM614 231Q692 231 754 266T853 365T889 518Q889 554 882 586T859 645L532 248Q550 240
570 236T614 231Z" />
<glyph unicode="&#xf9;" glyph-name="ugrave" horiz-adv-x="1276" d="M536 -30Q397 -30 306 24T171 175T126 400V1020H454V449Q454 365 498 316T628 267Q683 267 724 291T788 359T811 459V1020H1139V0H856V108Q807 53 732 12T536 -30ZM506 1170L286 1534H619L810
1170H506Z" />
<glyph unicode="&#xfa;" glyph-name="uacute" horiz-adv-x="1276" d="M536 -30Q397 -30 306 24T171 175T126 400V1020H454V449Q454 365 498 316T628 267Q683 267 724 291T788 359T811 459V1020H1139V0H856V108Q807 53 732 12T536 -30ZM473 1170L667 1534H993L769
1170H473Z" />
<glyph unicode="&#xfb;" glyph-name="ucircumflex" horiz-adv-x="1276" d="M536 -30Q397 -30 306 24T171 175T126 400V1020H454V449Q454 365 498 316T628 267Q683 267 724 291T788 359T811 459V1020H1139V0H856V108Q807 53 732 12T536 -30ZM201 1170L499 1534H785L1078
1170H769L637 1353L500 1170H201Z" />
<glyph unicode="&#xfc;" glyph-name="udieresis" horiz-adv-x="1276" d="M536 -30Q397 -30 306 24T171 175T126 400V1020H454V449Q454 365 498 316T628 267Q683 267 724 291T788 359T811 459V1020H1139V0H856V108Q807 53 732 12T536 -30ZM388 1168Q318 1168 263
1216T207 1345Q207 1398 232 1438T299 1499T388 1521Q459 1521 514 1474T569 1345Q569 1291 544 1252T477 1190T388 1168ZM890 1168Q820 1168 765 1216T709 1345Q709 1398 734 1438T801 1499T890 1521Q961 1521 1016 1474T1071 1345Q1071 1291 1046 1252T979 1190T890
1168Z" />
<glyph unicode="&#xfd;" glyph-name="yacute" horiz-adv-x="1164" d="M288 -447Q218 -447 151 -433T28 -388L97 -114Q130 -131 169 -141T242 -151Q297 -151 335 -128T391 -52L406 -4L10 1020H366L592 321L811 1020H1158L735 -101Q683 -231 615 -306T463 -414T288
-447ZM416 1170L610 1534H936L712 1170H416Z" />
<glyph unicode="&#xfe;" glyph-name="thorn" horiz-adv-x="1332" d="M136 -420V1440H463V937Q523 991 598 1020T764 1050Q914 1050 1030 979T1211 785T1277 510Q1277 396 1240 298T1133 126T971 11T764 -30Q674 -30 599 -1T463 81V-420H136ZM709 252Q780 252 836
283T924 373T956 510Q956 590 924 647T836 736T709 768Q638 768 582 737T495 648T463 510Q463 431 494 373T582 284T709 252Z" />
<glyph unicode="&#xff;" glyph-name="ydieresis" horiz-adv-x="1164" d="M288 -447Q218 -447 151 -433T28 -388L97 -114Q130 -131 169 -141T242 -151Q297 -151 335 -128T391 -52L406 -4L10 1020H366L592 321L811 1020H1158L735 -101Q683 -231 615 -306T463 -414T288
-447ZM331 1168Q261 1168 206 1216T150 1345Q150 1398 175 1438T242 1499T331 1521Q402 1521 457 1474T512 1345Q512 1291 487 1252T420 1190T331 1168ZM833 1168Q763 1168 708 1216T652 1345Q652 1398 677 1438T744 1499T833 1521Q904 1521 959 1474T1014 1345Q1014
1291 989 1252T922 1190T833 1168Z" />
<glyph unicode="&#x2013;" glyph-name="endash" horiz-adv-x="1000" d="M30 438V698H970V438H30Z" />
<glyph unicode="&#x2014;" glyph-name="emdash" horiz-adv-x="2000" d="M213 438V698H1788V438H213Z" />
<glyph unicode="&#x2018;" glyph-name="quoteleft" horiz-adv-x="575" d="M292 690Q196 690 134 755T72 930Q72 1015 111 1098T230 1258T430 1405L527 1269Q440 1233 372 1176T272 1061Q332 1064 381 1043T459 981T489 883Q489 796 434 743T292 690Z" />
<glyph unicode="&#x2019;" glyph-name="quoteright" horiz-adv-x="575" d="M145 706L48 841Q135 879 203 936T303 1050Q244 1047 195 1068T116 1130T86 1227Q86 1314 141 1367T283 1421Q380 1421 441 1356T503 1181Q503 1096 464 1013T345 853T145 706Z" />
<glyph unicode="&#x201a;" glyph-name="quotesinglbase" horiz-adv-x="582" d="M145 -358L48 -223Q135 -185 203 -128T303 -14Q244 -17 195 4T116 66T86 163Q86 250 141 303T283 357Q380 357 441 292T503 117Q503 32 464 -51T345 -211T145 -358Z" />
<glyph unicode="&#x201c;" glyph-name="quotedblleft" horiz-adv-x="1073" d="M292 690Q196 690 134 755T72 930Q72 1015 111 1098T230 1258T430 1405L527 1269Q440 1233 372 1176T272 1061Q332 1064 381 1043T459 981T489 883Q489 796 434 743T292 690ZM790 690Q694
690 632 755T570 930Q570 1015 609 1098T728 1258T928 1405L1025 1269Q938 1233 870 1176T770 1061Q830 1064 879 1043T957 981T987 883Q987 796 932 743T790 690Z" />
<glyph unicode="&#x201d;" glyph-name="quotedblright" horiz-adv-x="1073" d="M145 706L48 841Q135 879 203 936T303 1050Q244 1047 195 1068T116 1130T86 1227Q86 1314 141 1367T283 1421Q380 1421 441 1356T503 1181Q503 1096 464 1013T345 853T145 706ZM643
706L546 841Q633 879 701 936T801 1050Q742 1047 693 1068T614 1130T584 1227Q584 1314 639 1367T781 1421Q878 1421 939 1356T1001 1181Q1001 1096 962 1013T843 853T643 706Z" />
<glyph unicode="&#x201e;" glyph-name="quotedblbase" horiz-adv-x="1080" d="M145 -358L48 -223Q135 -185 203 -128T303 -14Q244 -17 195 4T116 66T86 163Q86 250 141 303T283 357Q380 357 441 292T503 117Q503 32 464 -51T345 -211T145 -358ZM643 -358L546 -223Q633
-185 701 -128T801 -14Q742 -17 693 4T614 66T584 163Q584 250 639 303T781 357Q878 357 939 292T1001 117Q1001 32 962 -51T843 -211T643 -358Z" />
<glyph unicode="&#x2022;" glyph-name="bullet" horiz-adv-x="1000" d="M500 294Q384 294 294 345T151 486T99 688Q99 801 150 890T293 1030T500 1082Q616 1082 707 1031T850 891T902 688Q902 575 850 486T707 346T500 294Z" />
<glyph unicode="&#x2039;" glyph-name="guilsinglleft" horiz-adv-x="677" d="M343 72L45 521L343 970L561 835L352 521L560 208L343 72Z" />
<glyph unicode="&#x203a;" glyph-name="guilsinglright" horiz-adv-x="677" d="M334 73L116 208L325 522L116 835L334 971L632 522L334 73Z" />
</font>
</defs>
</svg>
