<svg width="41" height="40" viewBox="0 0 41 40" fill="none" xmlns="http://www.w3.org/2000/svg">
<g clip-path="url(#clip0_2673_1360)">
<path d="M40.8984 20C40.8984 25.5167 38.6651 30.5167 35.0651 34.1667L33.2651 32.3667C36.4318 29.1667 38.3984 24.8333 38.3984 20C38.3984 15.1833 36.4318 10.8333 33.2651 7.63333L35.0651 5.83333C38.6651 9.48333 40.8984 14.4833 40.8984 20ZM34.2318 16V13.3333H28.8984C27.4318 13.3333 26.2318 14.5333 26.2318 16V18.6667C26.2318 19.3739 26.5127 20.0522 27.0128 20.5523C27.5129 21.0524 28.1912 21.3333 28.8984 21.3333H31.5651V24H26.2318V26.6667H31.5651C33.0318 26.6667 34.2318 25.4667 34.2318 24V21.3333C34.2318 20.6261 33.9508 19.9478 33.4507 19.4477C32.9506 18.9476 32.2723 18.6667 31.5651 18.6667H28.8984V16H34.2318ZM14.9318 10C16.6818 8.95 18.7151 8.33333 20.8984 8.33333C23.0818 8.33333 25.1151 8.95 26.8651 10H32.0484C29.3151 6.93333 25.3318 5 20.8984 5C16.4651 5 12.4818 6.93333 9.74844 10H14.9318ZM22.8984 20C23.9651 20 24.8984 20.9333 24.8984 22V24C24.8984 24.7072 24.6175 25.3855 24.1174 25.8856C23.6173 26.3857 22.939 26.6667 22.2318 26.6667H16.8984V13.3333H22.2318C22.939 13.3333 23.6173 13.6143 24.1174 14.1144C24.6175 14.6145 24.8984 15.2928 24.8984 16V18C24.8984 19.0667 23.9651 20 22.8984 20ZM22.2318 21.3333H19.5651V24H22.2318V21.3333ZM22.2318 16H19.5651V18.6667H22.2318V16ZM8.53177 7.63333L6.73177 5.83333C3.13177 9.48333 0.898438 14.4833 0.898438 20C0.898438 25.5167 3.13177 30.5167 6.73177 34.1667L8.53177 32.3667C5.3651 29.1667 3.39844 24.8333 3.39844 20C3.39844 15.1833 5.3651 10.8333 8.53177 7.63333ZM12.8984 26.6667V21.3333H10.2318V26.6667H7.5651V16C7.5651 15.2928 7.84606 14.6145 8.34615 14.1144C8.84625 13.6143 9.52453 13.3333 10.2318 13.3333H12.8984C14.3651 13.3333 15.5651 14.5333 15.5651 16V26.6667H12.8984ZM12.8984 18.6667V16H10.2318V18.6667H12.8984ZM26.8651 30C25.1151 31.05 23.0818 31.6667 20.8984 31.6667C18.7151 31.6667 16.6818 31.05 14.9318 30H9.74844C12.4818 33.0667 16.4651 35 20.8984 35C25.3318 35 29.3151 33.0667 32.0484 30H26.8651Z" fill="#252525"/>
</g>
<defs>
<clipPath id="clip0_2673_1360">
<rect width="40" height="40" fill="white" transform="translate(0.898438)"/>
</clipPath>
</defs>
</svg>
