<svg width="40" height="40" viewBox="0 0 40 40" fill="none" xmlns="http://www.w3.org/2000/svg">
<path fill-rule="evenodd" clip-rule="evenodd" d="M20.0185 35.0832C16.1105 35.0832 13.19 33.8769 10.2722 31.5969L7.60746 28.6726C7.36209 28.3021 7.14738 27.9827 6.90241 27.5695C6.65824 27.1576 6.4842 26.7521 6.2647 26.3168C4.41251 22.6434 4.48577 17.4606 6.2642 13.7673C7.47713 11.2484 8.97418 9.43353 11.2113 7.78307C15.3641 4.71932 21.6206 4.07162 26.3208 6.42506L28.0692 7.38894C31.2952 9.45612 33.8435 13.0667 34.5874 16.8157C34.7181 17.4741 35.0024 19.5159 34.9827 20.2065C34.9712 20.6124 34.9048 20.6168 34.8943 21.0278C34.884 21.4319 34.8725 21.5585 34.8276 21.8653C34.5975 23.439 34.3067 24.7851 33.6085 26.2351C31.8391 29.9095 29.7109 31.9077 26.1287 33.714C24.6737 34.4476 22.18 35.0832 20.0185 35.0832ZM0.375 19.7957C0.375 23.2269 1.19321 26.2289 2.42792 28.7563C4.36734 32.7263 7.55574 35.655 11.4704 37.6314C13.2855 38.5478 16.4721 39.5215 19.1966 39.5215H20.7583C24.6509 39.5215 28.31 37.8991 31.2624 35.8888C31.9637 35.4113 33.2102 34.3436 33.8483 33.7077C34.0893 33.4676 34.1545 33.3206 34.3799 33.0886C36.4786 30.9278 37.7065 28.3068 38.6245 25.4978C39.1754 23.8119 39.4155 21.7102 39.4155 19.7957C39.4155 14.3602 36.6387 8.38017 32.3822 5.04856C29.8538 3.06955 27.5285 1.7265 24.2581 1.00846C23.0586 0.745094 21.1615 0.488256 19.9368 0.474833C19.4458 0.46946 19.341 0.562507 18.8706 0.565833C17.7971 0.573441 16.607 0.780666 15.6001 0.993951C12.1983 1.71455 8.63358 3.68398 6.18995 6.13152C4.61082 7.71317 3.08886 9.79333 2.18425 11.8243C1.24208 13.9396 0.375 16.7507 0.375 19.7957Z" fill="#252525"/>
<path fill-rule="evenodd" clip-rule="evenodd" d="M17.6313 20.289C17.6313 19.5572 17.7025 18.889 18.3102 18.3379C19.7128 17.0658 22.1517 17.9496 22.1517 19.878C22.1517 20.4717 22.183 20.5841 21.9088 21.1145C20.7576 23.3412 17.6313 22.1969 17.6313 20.289ZM19.7682 23.9054C24.0356 23.9054 25.2348 18.4167 21.6612 16.5878C19.7498 15.6096 17.3288 16.3163 16.3156 18.5624C15.6419 20.0559 16.1437 21.6996 17.1461 22.7467L17.6304 23.1666C18.2482 23.6104 18.9166 23.9054 19.7682 23.9054Z" fill="#252525"/>
<path fill-rule="evenodd" clip-rule="evenodd" d="M24.8672 22.1786L32.7575 24.3156C32.8563 24.1095 33.1448 23.0375 33.1684 22.754L31.2122 22.2445C30.3958 22.0438 25.7732 20.6992 25.196 20.6992C25.196 21.367 24.9118 21.6428 24.8672 22.1786Z" fill="#252525"/>
<path fill-rule="evenodd" clip-rule="evenodd" d="M20.5078 14.701L22.0695 15.112L23.1032 11.1321C23.295 10.4545 23.4346 9.81286 23.6212 9.18439L24.1242 7.13949C23.8114 7.0666 22.88 6.84139 22.6448 6.72852C22.0806 9.15015 21.1019 12.1509 20.5078 14.701Z" fill="#252525"/>
<path fill-rule="evenodd" clip-rule="evenodd" d="M21.9141 24.976C22.0156 25.4118 25.8009 31.8611 25.9414 32.1266C26.3954 32.0208 26.933 31.6015 27.3386 31.3869L23.7785 25.1663C23.5795 24.8351 23.4273 24.5322 23.2291 24.2363C22.828 24.5049 22.4562 24.8497 21.9141 24.976Z" fill="#252525"/>
<path fill-rule="evenodd" clip-rule="evenodd" d="M7.85938 26.043C7.90722 26.6178 8.38968 26.9638 8.5169 27.4402C8.81947 27.415 9.204 27.1361 9.45687 26.9829L15.6675 23.4129L14.9278 22.0156C13.7277 22.6506 12.6294 23.3585 11.4218 24.0164L8.76818 25.5545C8.55459 25.6834 8.10839 25.9765 7.85938 26.043Z" fill="#252525"/>
<path fill-rule="evenodd" clip-rule="evenodd" d="M24.125 16.7541C24.3854 17.143 24.7442 17.5517 24.8647 18.0691C27.0604 16.9073 29.7775 15.1437 32.0153 13.9596C31.8336 13.6162 31.4652 12.8437 31.1934 12.6445C30.8743 12.7189 27.9807 14.4552 27.6245 14.6646L24.9627 16.1945C24.6674 16.372 24.311 16.5001 24.125 16.7541Z" fill="#252525"/>
<path fill-rule="evenodd" clip-rule="evenodd" d="M12.4609 8.70064L16.5705 15.8512C16.9716 15.5826 17.3434 15.2378 17.8855 15.1115C17.8587 14.7893 16.0909 11.8288 15.898 11.5101L13.8582 7.96094C13.5322 8.03687 12.875 8.48157 12.4609 8.70064Z" fill="#252525"/>
<path fill-rule="evenodd" clip-rule="evenodd" d="M6.71094 17.3292C7.27218 17.4599 14.1722 19.3744 14.6012 19.384C14.6124 18.8851 14.8341 18.2411 15.0122 17.9045C14.3791 17.7571 13.7399 17.5449 13.0734 17.3776C12.3758 17.2025 11.6967 17.0357 11.0572 16.8459L7.0397 15.7676C6.99111 16.3514 6.71094 16.6794 6.71094 17.3292Z" fill="#252525"/>
<path fill-rule="evenodd" clip-rule="evenodd" d="M15.6562 32.9471C16.1417 32.9875 16.5783 33.2634 17.1357 33.2759L19.2209 25.6419C19.3121 25.166 19.17 25.4218 18.338 25.1695C18.0794 25.091 17.9586 25.0323 17.711 24.9746C17.7031 25.3291 17.323 26.5188 17.2179 26.9472C17.0543 27.6137 16.8714 28.2683 16.6772 28.9545C16.4855 29.632 16.3458 30.2737 16.1592 30.9022L15.6562 32.9471Z" fill="#252525"/>
</svg>
