<svg width="42" height="44" viewBox="0 0 42 44" fill="none" xmlns="http://www.w3.org/2000/svg">
<path d="M24.5 14.834C24.5 16.0104 24.2737 17.1753 23.8339 18.2622C23.3942 19.3491 22.7497 20.3366 21.9372 21.1685C21.1247 22.0003 20.1601 22.6602 19.0985 23.1104C18.0369 23.5606 16.8991 23.7923 15.75 23.7923C13.4294 23.7923 11.2038 22.8485 9.56282 21.1685C7.92187 19.4885 7 17.2099 7 14.834C7 12.4581 7.92187 10.1795 9.56282 8.49949C11.2038 6.81947 13.4294 5.87565 15.75 5.87565C16.8991 5.87565 18.0369 6.10737 19.0985 6.55756C20.1601 7.00776 21.1247 7.66763 21.9372 8.49949C22.7497 9.33135 23.3942 10.3189 23.8339 11.4058C24.2737 12.4927 24.5 13.6576 24.5 14.834ZM18.305 28.3611L22.75 32.8044L19.25 32.8402L13.125 39.1648L10.5 36.4952L18.305 28.3611ZM29.75 4.08398C31.64 4.08398 33.25 5.66065 33.25 7.66732C33.25 9.60232 31.71 11.2507 29.75 11.2507C27.86 11.2507 26.25 9.67399 26.25 7.66732C26.25 5.73232 27.8075 4.08398 29.75 4.08398ZM25.2175 27.3757H20.2825L30.2575 37.6061L32.7425 35.0619L25.2175 27.3757ZM26.46 26.1036L33.9675 33.8077L34.3525 34.184C34.755 33.5032 35 32.7507 35 31.8548V17.5215C35 16.3335 34.5391 15.1942 33.7186 14.3542C32.8981 13.5142 31.7853 13.0423 30.625 13.0423C29.4647 13.0423 28.3519 13.5142 27.5314 14.3542C26.7109 15.1942 26.25 16.3335 26.25 17.5215V25.8886L26.46 26.1036Z" fill="#252525"/>
</svg>
