<svg width="35" height="28" viewBox="0 0 35 28" fill="none" xmlns="http://www.w3.org/2000/svg">
<path d="M18.7926 0.0786426C18.3682 -0.0635449 17.892 0.0177057 17.54 0.291924L7.40586 8.17317H2.60273C1.32949 8.17317 0.304688 9.17864 0.304688 10.4279V17.1208C0.304688 18.37 1.32949 19.3755 2.60273 19.3755H7.40586L17.54 27.2568C17.892 27.531 18.3682 27.6122 18.7926 27.47C19.7656 27.145 20.4695 26.231 20.4695 25.1646V2.37396C20.4695 1.30755 19.7656 0.403643 18.7926 0.0786426Z" fill="#252525"/>
<path d="M23.4371 20.6246C23.199 20.6246 22.9505 20.5434 22.7539 20.3707C22.3294 20.0051 22.288 19.3551 22.6607 18.9387C23.9443 17.5067 24.6482 15.6786 24.6482 13.7692C24.6482 11.87 23.9443 10.0317 22.6607 8.59965C22.288 8.18324 22.3294 7.53324 22.7539 7.16762C23.1783 6.80199 23.8408 6.84261 24.2134 7.25902C25.8283 9.05668 26.7185 11.3723 26.7185 13.7692C26.7185 16.1661 25.8283 18.4817 24.2134 20.2793C24.0064 20.5028 23.7269 20.6246 23.4371 20.6246Z" fill="#252525"/>
<path d="M26.66 22.9299C26.4322 22.9299 26.1941 22.8588 25.9975 22.6963C25.5523 22.3408 25.4902 21.701 25.8629 21.2643C27.6123 19.1822 28.575 16.5416 28.575 13.84C28.575 11.0674 27.5709 8.38613 25.749 6.28378C25.3764 5.85722 25.4281 5.21738 25.8629 4.85175C26.2977 4.48613 26.9498 4.53691 27.3225 4.96347C29.4652 7.43144 30.6453 10.59 30.6453 13.84C30.6453 17.0189 29.517 20.1166 27.457 22.5643C27.2604 22.808 26.9602 22.9299 26.66 22.9299Z" fill="#252525"/>
<path d="M29.7759 25.419C29.5481 25.419 29.31 25.3479 29.1134 25.1854C28.6682 24.8299 28.6061 24.1901 28.9788 23.7534C31.3286 20.9604 32.6225 17.426 32.6225 13.8002C32.6225 10.144 31.3079 6.5893 28.927 3.78618C28.5647 3.35961 28.6165 2.71977 29.0616 2.35415C29.4964 1.99868 30.1485 2.04946 30.5212 2.48618C33.2126 5.65493 34.6928 9.66665 34.6928 13.8002C34.6928 17.8932 33.2333 21.8846 30.5833 25.0432C30.3762 25.287 30.076 25.419 29.7759 25.419Z" fill="#252525"/>
</svg>
