<svg width="42" height="43" viewBox="0 0 42 43" fill="none" xmlns="http://www.w3.org/2000/svg">
<path d="M14.875 11.2695C13.9125 11.2695 13.0888 10.9271 12.404 10.2423C11.7192 9.55746 11.3762 8.73321 11.375 7.76954C11.3738 6.80588 11.7168 5.98221 12.404 5.29854C13.0912 4.61488 13.9148 4.27188 14.875 4.26954C15.8352 4.26721 16.6594 4.61021 17.3477 5.29854C18.0361 5.98688 18.3785 6.81054 18.375 7.76954C18.3715 8.72854 18.0291 9.55279 17.3477 10.2423C16.6664 10.9318 15.8422 11.2742 14.875 11.2695ZM9.75625 35.7695L5.25 13.0195H8.8375L12.6875 32.2695H24.5V35.7695H9.75625ZM34.125 39.2695L29.05 30.5195H14.0437L11.55 18.357C11.2292 16.957 11.5576 15.7175 12.5353 14.6383C13.5129 13.5591 14.7012 13.0195 16.1 13.0195C17.1208 13.0195 18.0472 13.3258 18.879 13.9383C19.7108 14.5508 20.2428 15.382 20.475 16.432L22.4 25.2695H30.0562L37.1875 37.5195L34.125 39.2695Z" fill="#252525"/>
</svg>
