<svg width="38" height="39" viewBox="0 0 38 39" fill="none" xmlns="http://www.w3.org/2000/svg">
<path fill-rule="evenodd" clip-rule="evenodd" d="M18.9974 0.519531C29.1229 0.519531 37.3307 8.91391 37.3307 19.2695C37.3307 29.6252 29.1229 38.0195 18.9974 38.0195C8.8719 38.0195 0.664062 29.6252 0.664062 19.2695C0.664062 8.91391 8.8719 0.519531 18.9974 0.519531ZM4.70656 22.6633C5.34815 25.4802 6.77142 28.0478 8.80537 30.0575C10.8393 32.0671 13.3974 33.4334 16.1722 33.992C15.8184 29.0702 14.2362 26.117 12.2379 24.4839C10.3239 22.9183 7.7279 22.3127 4.70656 22.6614V22.6633ZM25.7569 24.482C23.7586 26.1189 22.1764 29.0702 21.8226 33.992C24.5976 33.4332 27.1559 32.0667 29.1899 30.0567C31.2238 28.0467 32.647 25.4787 33.2882 22.6614C30.2669 22.3127 27.6709 22.9183 25.7569 24.4839V24.482ZM18.9974 4.26953C15.5801 4.26891 12.2699 5.48872 9.63826 7.71832C7.00666 9.94792 5.21892 13.0473 4.58373 16.4814L4.5049 16.9464L8.55656 16.1177C9.62356 15.9002 10.6374 15.3245 11.7704 14.5427L12.6449 13.9202C14.1061 12.8589 16.2712 11.7695 18.9974 11.7695C21.5421 11.7695 23.5972 12.7183 25.0474 13.7083L26.2244 14.5427C27.2144 15.227 28.1164 15.752 29.0404 16.0202L29.4382 16.1177L33.4899 16.9464C32.9484 13.4134 31.1905 10.1946 28.5332 7.8702C25.8759 5.54582 22.494 4.26885 18.9974 4.26953Z" fill="#252525"/>
</svg>
