<svg width="36" height="37" viewBox="0 0 36 37" fill="none" xmlns="http://www.w3.org/2000/svg">
<g clip-path="url(#clip0_2676_1757)">
<path d="M9.885 1.75969C13.395 -0.955308 17.205 2.35969 18.06 7.51969C18.705 7.51969 19.335 7.69969 19.905 8.02969C20.685 7.12969 21.375 5.89969 21.105 4.51969C20.475 1.29469 24.09 -1.31531 27.525 3.13969C30.24 6.64969 26.925 10.4597 21.75 11.3147C21.75 11.9597 21.585 12.6047 21.24 13.1747C22.14 13.9397 23.37 14.6297 24.75 14.3597C27.945 13.7297 30.57 17.3297 26.115 20.7797C22.605 23.4947 18.795 20.1797 17.94 15.0197C17.295 15.0197 16.665 14.8247 16.11 14.4947C15.33 15.3947 14.625 16.6397 14.895 18.0197C15.525 21.2297 11.91 23.8547 8.475 19.3997C5.745 15.8747 9.075 12.0647 14.25 11.2247C14.25 10.5797 14.445 9.94969 14.775 9.37969C13.875 8.61469 12.645 7.90969 11.25 8.17969C8.055 8.80969 5.43 5.20969 9.885 1.75969ZM7.5 24.7697H10.5C11.2956 24.7697 12.0587 25.0858 12.6213 25.6484C13.1839 26.211 13.5 26.974 13.5 27.7697V36.7697H10.5V33.7697H7.5V36.7697H4.5V27.7697C4.5 26.974 4.81607 26.211 5.37868 25.6484C5.94129 25.0858 6.70435 24.7697 7.5 24.7697ZM7.5 27.7697V30.7697H10.5V27.7697H7.5ZM19.395 24.7697H22.5L18.105 36.7697H15L19.395 24.7697ZM27 24.7697H31.5V27.7697H27V33.7697H31.5V36.7697H27C26.2044 36.7697 25.4413 36.4536 24.8787 35.891C24.3161 35.3284 24 34.5653 24 33.7697V27.7697C24 26.974 24.3161 26.211 24.8787 25.6484C25.4413 25.0858 26.2044 24.7697 27 24.7697Z" fill="#252525"/>
</g>
<defs>
<clipPath id="clip0_2676_1757">
<rect width="36" height="36" fill="white" transform="translate(0 0.769531)"/>
</clipPath>
</defs>
</svg>
