<svg width="34" height="36" viewBox="0 0 34 36" fill="none" xmlns="http://www.w3.org/2000/svg">
<path d="M9.91667 29.9363C10.3275 29.9363 10.71 29.8488 10.9933 29.7176C11.9992 29.2072 12.7075 28.4342 13.4158 26.2467C14.1667 23.9717 15.4983 22.9072 16.8017 21.8717C17.9208 20.9822 19.0825 20.0634 20.0883 18.1822C20.8392 16.8113 21.25 15.2509 21.25 13.8947C21.25 9.81133 18.1333 6.60299 14.1667 6.60299C10.2 6.60299 7.08333 9.81133 7.08333 13.8947H4.25C4.25 8.16341 8.59917 3.68633 14.1667 3.68633C19.7342 3.68633 24.0833 8.16341 24.0833 13.8947C24.0833 15.7322 23.545 17.7592 22.5675 19.5822C21.25 21.9884 19.7625 23.1988 18.53 24.1759C17.3825 25.0801 16.5608 25.7363 16.1075 27.1655C15.2575 29.8197 14.1667 31.3072 12.24 32.3426C11.5175 32.678 10.7242 32.853 9.91667 32.853C8.41377 32.853 6.97244 32.2384 5.90973 31.1444C4.84702 30.0505 4.25 28.5668 4.25 27.0197H7.08333C7.08333 27.7932 7.38185 28.5351 7.9132 29.0821C8.44455 29.629 9.16522 29.9363 9.91667 29.9363ZM23.1767 4.61966L25.1883 2.54883C28.0075 5.45091 29.75 9.46133 29.75 13.8947C29.75 18.328 28.0075 22.3384 25.1883 25.2405L23.1908 23.1842C25.5 20.8072 26.9167 17.5405 26.9167 13.8947C26.9167 10.2488 25.5 6.98216 23.1767 4.61966ZM17.7083 13.8947C17.7083 14.3734 17.6167 14.8475 17.4387 15.2899C17.2608 15.7322 16.9999 16.1341 16.671 16.4727C16.0068 17.1564 15.106 17.5405 14.1667 17.5405C13.7016 17.5405 13.241 17.4462 12.8113 17.263C12.3816 17.0798 11.9912 16.8112 11.6623 16.4727C11.3335 16.1341 11.0726 15.7322 10.8946 15.2899C10.7166 14.8475 10.625 14.3734 10.625 13.8947C10.625 12.9277 10.9981 12.0004 11.6623 11.3167C12.3265 10.6329 13.2274 10.2488 14.1667 10.2488C15.106 10.2488 16.0068 10.6329 16.671 11.3167C17.3352 12.0004 17.7083 12.9277 17.7083 13.8947Z" fill="#252525"/>
</svg>
