<svg width="48" height="49" viewBox="0 0 48 49" fill="none" xmlns="http://www.w3.org/2000/svg">
<g clip-path="url(#clip0_2676_1751)">
<path fill-rule="evenodd" clip-rule="evenodd" d="M24.0006 4.76953C27.5026 4.76953 30.3806 5.95353 32.3366 7.08753C34.9846 8.62153 36.0006 11.5075 36.0006 14.0835V17.5035C36.7946 18.0095 37.5346 18.5035 38.1906 18.9595L39.3206 19.7575L39.5206 19.9015C40.1046 20.3229 40.6799 20.7575 41.2466 21.2055C42.0986 21.8855 42.2466 23.1655 41.5626 24.0195C41.2312 24.4333 40.7491 24.6987 40.2222 24.7572C39.6953 24.8157 39.1667 24.6626 38.7526 24.3315C37.8577 23.6269 36.9398 22.9519 36.0006 22.3075V35.9415C36.0006 38.2829 35.0705 40.5283 33.4149 42.1839C31.7594 43.8394 29.5139 44.7695 27.1726 44.7695H20.8286C18.4873 44.7695 16.2418 43.8394 14.5863 42.1839C12.9307 40.5283 12.0006 38.2829 12.0006 35.9415V22.3075C11.0666 22.9555 10.1406 23.6215 9.25059 24.3315C8.83632 24.6631 8.30733 24.8164 7.77998 24.7579C7.25262 24.6994 6.77011 24.4338 6.43859 24.0195C6.10707 23.6053 5.9537 23.0763 6.01221 22.5489C6.07072 22.0216 6.33632 21.5391 6.75059 21.2075C7.31859 20.7609 7.89526 20.3255 8.48059 19.9015L9.33259 19.2915C10.1006 18.7515 11.0086 18.1355 12.0006 17.5055V14.0835C12.0006 11.5055 13.0166 8.62153 15.6646 7.08753C17.6206 5.95353 20.5006 4.76953 24.0006 4.76953ZM32.0006 23.5975C30.7826 24.8155 30.0006 26.3275 30.0006 28.0835V34.7695C30.0006 35.8304 29.5792 36.8478 28.829 37.598C28.0789 38.3481 27.0615 38.7695 26.0006 38.7695H22.0006C20.9397 38.7695 19.9223 38.3481 19.1722 37.598C18.422 36.8478 18.0006 35.8304 18.0006 34.7695V28.0835C18.0006 26.3275 17.2186 24.8155 16.0006 23.5975V35.9415C16.0006 36.5756 16.1255 37.2034 16.3681 37.7891C16.6107 38.3749 16.9664 38.9071 17.4147 39.3554C17.863 39.8038 18.3952 40.1594 18.981 40.402C19.5668 40.6447 20.1946 40.7695 20.8286 40.7695H27.1726C27.8066 40.7695 28.4344 40.6447 29.0202 40.402C29.6059 40.1594 30.1382 39.8038 30.5865 39.3554C31.0348 38.9071 31.3905 38.3749 31.6331 37.7891C31.8757 37.2034 32.0006 36.5756 32.0006 35.9415V23.5975ZM24.0006 8.76953C21.4066 8.76953 19.2206 9.64953 17.6706 10.5495C16.6466 11.1395 16.0006 12.4155 16.0006 14.0815V15.2015C16.7226 14.8315 17.4586 14.4835 18.1926 14.1735C20.0686 13.3855 22.1086 12.7695 24.0006 12.7695C25.8926 12.7695 27.9326 13.3855 29.8086 14.1755C30.5426 14.4855 31.2786 14.8335 32.0006 15.2015V14.0815C32.0006 12.4175 31.3546 11.1415 30.3306 10.5475C28.7806 9.64953 26.5946 8.76953 24.0006 8.76953Z" fill="#252525"/>
</g>
<defs>
<clipPath id="clip0_2676_1751">
<rect width="48" height="48" fill="white" transform="translate(0 0.769531)"/>
</clipPath>
</defs>
</svg>
