<svg width="38" height="38" viewBox="0 0 38 38" fill="none" xmlns="http://www.w3.org/2000/svg">
<path fill-rule="evenodd" clip-rule="evenodd" d="M18.9974 0.449219C29.1229 0.449219 37.3307 8.84359 37.3307 19.1992C37.3307 29.5548 29.1229 37.9492 18.9974 37.9492C8.8719 37.9492 0.664062 29.5548 0.664062 19.1992C0.664062 8.84359 8.8719 0.449219 18.9974 0.449219ZM4.70656 22.593C5.34815 25.4099 6.77142 27.9775 8.80537 29.9871C10.8393 31.9968 13.3974 33.363 16.1722 33.9217C15.8184 28.9998 14.2362 26.0467 12.2379 24.4136C10.3239 22.848 7.7279 22.2423 4.70656 22.5911V22.593ZM25.7569 24.4117C23.7586 26.0486 22.1764 28.9998 21.8226 33.9217C24.5976 33.3629 27.1559 31.9964 29.1899 29.9864C31.2238 27.9764 32.647 25.4084 33.2882 22.5911C30.2669 22.2423 27.6709 22.848 25.7569 24.4136V24.4117ZM18.9974 4.19922C15.5801 4.1986 12.2699 5.41841 9.63826 7.64801C7.00666 9.87761 5.21892 12.977 4.58373 16.4111L4.5049 16.8761L8.55656 16.0473C9.62356 15.8298 10.6374 15.2542 11.7704 14.4723L12.6449 13.8498C14.1061 12.7886 16.2712 11.6992 18.9974 11.6992C21.5421 11.6992 23.5972 12.648 25.0474 13.638L26.2244 14.4723C27.2144 15.1567 28.1164 15.6817 29.0404 15.9498L29.4382 16.0473L33.4899 16.8761C32.9484 13.3431 31.1905 10.1243 28.5332 7.79989C25.8759 5.47551 22.494 4.19854 18.9974 4.19922Z" fill="#252525"/>
</svg>
