<svg width="24" height="24" viewBox="0 0 24 24" fill="none" xmlns="http://www.w3.org/2000/svg">
<path d="M22.3334 7.39039C21.6309 7.3904 20.9353 7.25204 20.2863 6.98322C19.6373 6.71439 19.0476 6.32036 18.5508 5.82362C18.0541 5.32689 17.66 4.73717 17.3912 4.08815C17.1224 3.43913 16.984 2.74351 16.984 2.04102H13.1622V17.0066C13.1614 17.6889 12.946 18.3537 12.5463 18.9067C12.1467 19.4597 11.5831 19.873 10.9355 20.0878C10.2879 20.3026 9.58911 20.3082 8.93816 20.1037C8.28721 19.8992 7.71714 19.495 7.30874 18.9484C6.90033 18.4018 6.67432 17.7406 6.66273 17.0584C6.65113 16.3761 6.85455 15.7076 7.24414 15.1474C7.63374 14.5873 8.18975 14.164 8.83337 13.9375C9.477 13.711 10.1756 13.6928 10.8301 13.8855V10.1704C9.43911 9.98285 8.02398 10.2241 6.7737 10.862C5.52342 11.4999 4.4975 12.504 3.83292 13.7403C3.16834 14.9766 2.89675 16.3862 3.05439 17.7809C3.21204 19.1756 3.79143 20.489 4.7152 21.5458C5.63897 22.6026 6.86314 23.3523 8.22425 23.695C9.58537 24.0377 11.0186 23.957 12.3327 23.4637C13.6467 22.9704 14.779 22.0879 15.5783 20.9342C16.3776 19.7804 16.8059 18.4102 16.806 17.0066L16.9169 9.44191C18.4872 10.5947 20.385 11.215 22.333 11.2121L22.3334 7.39039Z" fill="url(#paint0_linear_4001_641)"/>
<path d="M21.3225 6.34945C19.9038 6.34941 18.5432 5.78579 17.54 4.78257C16.5368 3.77936 15.9732 2.41873 15.9733 1H12.1514V15.9656C12.1507 16.6479 11.9353 17.3127 11.5356 17.8657C11.136 18.4188 10.5724 18.832 9.92483 19.0468C9.27722 19.2617 8.57842 19.2673 7.92747 19.0628C7.27652 18.8583 6.70643 18.4541 6.29802 17.9075C5.88961 17.3609 5.66359 16.6997 5.65199 16.0174C5.64039 15.3352 5.8438 14.6667 6.2334 14.1065C6.62299 13.5464 7.179 13.123 7.82263 12.8965C8.46626 12.67 9.16484 12.6518 9.81938 12.8446V9.1294C8.42837 8.94183 7.01325 9.1831 5.76297 9.82097C4.51269 10.4588 3.48676 11.463 2.82218 12.6993C2.1576 13.9355 1.886 15.3452 2.04365 16.7399C2.2013 18.1346 2.78069 19.448 3.70446 20.5048C4.62823 21.5615 5.8524 22.3113 7.21352 22.654C8.57464 22.9967 10.0079 22.916 11.322 22.4227C12.636 21.9294 13.7683 21.0469 14.5676 19.8931C15.3669 18.7394 15.7952 17.3692 15.7953 15.9656L15.9067 8.40096C17.477 9.55371 19.3749 10.174 21.3229 10.1711L21.3225 6.34945Z" fill="url(#paint1_linear_4001_641)"/>
<path d="M21.3231 7.29473C20.0007 7.0403 18.823 6.29652 18.025 5.21188C17.0163 4.42249 16.3245 3.29734 16.0753 2.04102H13.1623V17.0066C13.1622 17.7169 12.9298 18.4076 12.5004 18.9734C12.071 19.5392 11.4682 19.9489 10.7842 20.14C10.1001 20.3312 9.3723 20.2932 8.71182 20.032C8.05134 19.7707 7.49449 19.3005 7.12627 18.6932C6.47145 18.2669 5.99186 17.6194 5.77512 16.8687C5.55838 16.1181 5.61897 15.3145 5.94581 14.6048C6.27265 13.8952 6.84392 13.3268 7.55524 13.0036C8.26655 12.6804 9.07042 12.6239 9.81995 12.8444V10.1105C8.53433 10.1271 7.27892 10.5027 6.19545 11.1949C5.11197 11.8871 4.24355 12.8684 3.68823 14.0281C3.1329 15.1877 2.91277 16.4794 3.05268 17.7575C3.19259 19.0356 3.68698 20.2492 4.48004 21.2612C5.48685 22.1013 6.71229 22.637 8.0127 22.8054C9.31311 22.9739 10.6346 22.7682 11.8222 22.2124C13.0099 21.6565 14.0145 20.7737 14.7183 19.6673C15.4221 18.5609 15.7958 17.2768 15.7958 15.9655L15.9073 8.40085C17.4776 9.55359 19.3754 10.1738 21.3234 10.1709L21.3231 7.29473Z" fill="url(#paint2_linear_4001_641)"/>
<defs>
<linearGradient id="paint0_linear_4001_641" x1="4.54243" y1="21.3941" x2="20.4398" y2="5.49671" gradientUnits="userSpaceOnUse">
<stop stop-color="#B5053C"/>
<stop offset="0.233" stop-color="#C90441"/>
<stop offset="0.737" stop-color="#F0014B"/>
<stop offset="1" stop-color="#FF004F"/>
</linearGradient>
<linearGradient id="paint1_linear_4001_641" x1="3.29484" y1="20.5897" x2="20.0407" y2="3.84396" gradientUnits="userSpaceOnUse">
<stop stop-color="#00B2C9"/>
<stop offset="0.283" stop-color="#00C8D4"/>
<stop offset="0.741" stop-color="#00E6E4"/>
<stop offset="1" stop-color="#00F1EA"/>
</linearGradient>
<linearGradient id="paint2_linear_4001_641" x1="-6.08639" y1="30.9972" x2="30.9805" y2="-6.06975" gradientUnits="userSpaceOnUse">
<stop stop-color="#DDE3E4"/>
<stop offset="1" stop-color="#FCF7F7"/>
</linearGradient>
</defs>
</svg>
