<svg width="93" height="92" viewBox="0 0 93 92" fill="none" xmlns="http://www.w3.org/2000/svg">
<path fill-rule="evenodd" clip-rule="evenodd" d="M21.2366 76.3789C20.5684 76.045 19.9004 75.3789 19.9004 75.3789C19.0464 74.4765 18.6198 73.3594 18.6198 72.0872V67.2956H46.0421L51.6868 61.7122H30.1198V14.2122H74.2865V41.685C75.1381 41.3827 76.0113 41.1558 76.9054 41.0048C77.9277 40.8322 78.9439 40.7586 79.9531 40.785V8.62891H24.4531V61.7122H12.9531V72.0872C12.9531 74.9812 13.9653 77.4106 16.0105 79.4336C18.0562 81.457 20.5174 82.4622 23.4531 82.4622H45.4531V76.8789H23.4531C22.6486 76.8789 21.9048 76.7128 21.2366 76.3789ZM83.2214 58.1766L79.6756 54.6693L78.9723 55.3802L82.5182 58.8875L83.2214 58.1766ZM55.1198 72.2216L76.0022 51.6597C76.4825 51.1846 76.9992 50.857 77.5541 50.6574C78.1552 50.4412 78.7436 50.3372 79.324 50.3372C79.9635 50.3372 80.5708 50.4552 81.153 50.6908C81.7252 50.9223 82.2542 51.2724 82.7416 51.7545L86.2657 55.2403C86.6931 55.7204 87.0246 56.2489 87.2645 56.8288C87.506 57.4128 87.6198 57.9785 87.6198 58.532C87.6198 59.1026 87.5152 59.7015 87.2931 60.3331C87.0903 60.9097 86.7602 61.4295 86.2874 61.8971L65.4963 82.4622H55.1198V72.2216ZM58.8698 73.7528V78.7747H63.9249L76.5264 66.2072L71.5644 61.2992L58.8698 73.7528ZM35.9531 33.1706V27.5872H68.4531V33.1706H35.9531ZM35.9531 44.5456V38.9622H68.4531V44.5456H35.9531Z" fill="white"/>
</svg>
