<svg width="24" height="24" viewBox="0 0 24 24" fill="none" xmlns="http://www.w3.org/2000/svg">
<path d="M24 12C24 18.6274 18.6274 24 12 24C5.37258 24 2.89689e-07 18.6274 0 12C-2.89698e-07 5.37258 5.37258 2.8969e-07 12 0C18.6274 -2.89698e-07 24 5.37258 24 12ZM19.2334 16.3125C19.248 16.0652 19.1002 15.8418 18.8379 15.6724L15.7266 14.0317C15.3579 13.859 14.9631 13.9572 14.6997 14.2148L13.9483 14.9663C13.8847 15.0127 13.8132 15.0432 13.7344 15.0439C12.6189 14.7557 11.59 13.8816 10.8823 13.1103C10.1748 12.3391 9.21671 11.5101 8.98978 10.434C8.95262 10.3011 8.93938 10.1381 9.02782 10.0429L9.91698 9.16996C10.1454 8.86856 10.2561 8.4326 10.0693 8.11084V8.0962L8.32176 5.13578C8.04938 4.70122 7.52288 4.6562 7.20262 4.96732L5.17968 7.00634C4.87088 7.30746 4.76706 7.7075 4.7666 8.09616C4.8181 9.81511 5.66178 11.4393 6.5288 12.7734C8.12186 14.9632 10.0977 16.9718 12.4849 18.2329C13.4859 18.7165 14.763 19.2847 15.8804 19.2305C16.3006 19.2256 16.7124 19.1119 16.9834 18.8159L19.0224 16.7768C19.1576 16.618 19.2246 16.4609 19.2334 16.3125Z" fill="white"/>
</svg>
