<svg width="65" height="65" viewBox="0 0 65 65" fill="none" xmlns="http://www.w3.org/2000/svg">
<mask id="path-1-inside-1_2111_324" fill="white">
<path fill-rule="evenodd" clip-rule="evenodd" d="M32.625 64.1016C14.9519 64.1016 0.625 49.7747 0.625 32.1016C0.625 14.4285 14.9519 0.101562 32.625 0.101562C50.2981 0.101562 64.625 14.4285 64.625 32.1016C64.625 49.7747 50.2981 64.1016 32.625 64.1016ZM32.6251 58.2834C47.0849 58.2834 58.8069 46.5614 58.8069 32.1016C58.8069 17.6417 47.0849 5.91974 32.6251 5.91974C18.1652 5.91974 6.44324 17.6417 6.44324 32.1016C6.44324 46.5614 18.1652 58.2834 32.6251 58.2834ZM33.477 45.795L37.591 41.6809L28.0117 32.1016L37.591 22.5222L33.477 18.4082L19.7836 32.1016L33.477 45.795Z"/>
</mask>
<path fill-rule="evenodd" clip-rule="evenodd" d="M32.625 64.1016C14.9519 64.1016 0.625 49.7747 0.625 32.1016C0.625 14.4285 14.9519 0.101562 32.625 0.101562C50.2981 0.101562 64.625 14.4285 64.625 32.1016C64.625 49.7747 50.2981 64.1016 32.625 64.1016ZM32.6251 58.2834C47.0849 58.2834 58.8069 46.5614 58.8069 32.1016C58.8069 17.6417 47.0849 5.91974 32.6251 5.91974C18.1652 5.91974 6.44324 17.6417 6.44324 32.1016C6.44324 46.5614 18.1652 58.2834 32.6251 58.2834ZM33.477 45.795L37.591 41.6809L28.0117 32.1016L37.591 22.5222L33.477 18.4082L19.7836 32.1016L33.477 45.795Z" fill="#252525"/>
<path d="M37.591 41.6809L38.2982 42.388L39.0053 41.6809L38.2982 40.9738L37.591 41.6809ZM33.477 45.795L32.7699 46.5021L33.477 47.2092L34.1841 46.5021L33.477 45.795ZM28.0117 32.1016L27.3046 31.3945L26.5975 32.1016L27.3046 32.8087L28.0117 32.1016ZM37.591 22.5222L38.2982 23.2293L39.0053 22.5222L38.2982 21.8151L37.591 22.5222ZM33.477 18.4082L34.1841 17.7011L33.477 16.994L32.7699 17.7011L33.477 18.4082ZM19.7836 32.1016L19.0765 31.3945L18.3694 32.1016L19.0765 32.8087L19.7836 32.1016ZM-0.375 32.1016C-0.375 50.327 14.3996 65.1016 32.625 65.1016V63.1016C15.5042 63.1016 1.625 49.2224 1.625 32.1016H-0.375ZM32.625 -0.898438C14.3996 -0.898438 -0.375 13.8762 -0.375 32.1016H1.625C1.625 14.9807 15.5042 1.10156 32.625 1.10156V-0.898438ZM65.625 32.1016C65.625 13.8762 50.8504 -0.898438 32.625 -0.898438V1.10156C49.7458 1.10156 63.625 14.9807 63.625 32.1016H65.625ZM32.625 65.1016C50.8504 65.1016 65.625 50.327 65.625 32.1016H63.625C63.625 49.2224 49.7458 63.1016 32.625 63.1016V65.1016ZM57.8069 32.1016C57.8069 46.0091 46.5326 57.2834 32.6251 57.2834V59.2834C47.6372 59.2834 59.8069 47.1137 59.8069 32.1016H57.8069ZM32.6251 6.91974C46.5326 6.91974 57.8069 18.194 57.8069 32.1016H59.8069C59.8069 17.0895 47.6372 4.91974 32.6251 4.91974V6.91974ZM7.44324 32.1016C7.44324 18.194 18.7175 6.91974 32.6251 6.91974V4.91974C17.613 4.91974 5.44324 17.0895 5.44324 32.1016H7.44324ZM32.6251 57.2834C18.7175 57.2834 7.44324 46.0091 7.44324 32.1016H5.44324C5.44324 47.1137 17.613 59.2834 32.6251 59.2834V57.2834ZM36.8839 40.9738L32.7699 45.0879L34.1841 46.5021L38.2982 42.388L36.8839 40.9738ZM27.3046 32.8087L36.8839 42.388L38.2982 40.9738L28.7188 31.3945L27.3046 32.8087ZM36.8839 21.8151L27.3046 31.3945L28.7188 32.8087L38.2982 23.2293L36.8839 21.8151ZM32.7699 19.1153L36.8839 23.2293L38.2982 21.8151L34.1841 17.7011L32.7699 19.1153ZM20.4907 32.8087L34.1841 19.1153L32.7699 17.7011L19.0765 31.3945L20.4907 32.8087ZM34.1841 45.0879L20.4907 31.3945L19.0765 32.8087L32.7699 46.5021L34.1841 45.0879Z" fill="white" mask="url(#path-1-inside-1_2111_324)"/>
</svg>
