<svg width="24" height="24" viewBox="0 0 24 24" fill="none" xmlns="http://www.w3.org/2000/svg">
<path d="M18.686 5.67969C16.9573 3.95703 14.6524 3 12.2195 3C7.16158 3 3.06402 7.08333 3.06402 12.1237C3.06402 13.7188 3.5122 15.3138 4.28049 16.6536L3 21.375L7.86586 20.099C9.21037 20.8008 10.6829 21.1836 12.2195 21.1836C17.2774 21.1836 21.375 17.1003 21.375 12.0599C21.311 9.69922 20.4146 7.40234 18.686 5.67969ZM16.6372 15.3776C16.4451 15.888 15.5488 16.3984 15.1006 16.4622C14.7165 16.526 14.2043 16.526 13.6921 16.3984C13.372 16.2708 12.9238 16.1432 12.4116 15.888C10.1067 14.931 8.63415 12.6341 8.5061 12.4427C8.37805 12.3151 7.54573 11.2305 7.54573 10.082C7.54573 8.93359 8.12195 8.42318 8.31402 8.16797C8.5061 7.91276 8.76219 7.91276 8.95427 7.91276C9.08232 7.91276 9.27439 7.91276 9.40244 7.91276C9.53049 7.91276 9.72256 7.84896 9.91463 8.29557C10.1067 8.74219 10.5549 9.89063 10.6189 9.95443C10.6829 10.082 10.6829 10.2096 10.6189 10.3372C10.5549 10.4648 10.4909 10.5924 10.3628 10.7201C10.2348 10.8477 10.1067 11.0391 10.0427 11.1029C9.91463 11.2305 9.78658 11.3581 9.91463 11.5495C10.0427 11.8047 10.4909 12.5065 11.1951 13.1445C12.0915 13.9102 12.7957 14.1654 13.0518 14.293C13.3079 14.4206 13.436 14.3568 13.564 14.2292C13.6921 14.1016 14.1402 13.5911 14.2683 13.3359C14.3963 13.0807 14.5884 13.1445 14.7805 13.2083C14.9726 13.2721 16.125 13.8464 16.3171 13.974C16.5732 14.1016 16.7012 14.1654 16.7652 14.2292C16.8293 14.4206 16.8293 14.8672 16.6372 15.3776Z" fill="white"/>
</svg>
