<svg width="91" height="93" viewBox="0 0 91 93" fill="none" xmlns="http://www.w3.org/2000/svg">
<path fill-rule="evenodd" clip-rule="evenodd" d="M41.1554 41.9328L34.0973 36.1932H42.8202L45.5013 27.7603L48.1824 36.1932H56.8816L49.7513 41.9291L52.3478 50.4791L45.5046 45.1399L38.5518 50.5063L41.1554 41.9328ZM67.2513 58.8652V87.4676L45.5013 80.1379L23.7513 87.4676V58.8652L23.4965 58.5805C21.1781 55.9899 19.3766 53.0282 18.0919 49.6883C16.8113 46.359 16.168 42.8077 16.168 39.0265C16.168 30.7216 19.0076 23.725 24.6946 17.9756C30.381 12.2266 37.2964 9.35986 45.5013 9.35986C53.7062 9.35986 60.6216 12.2266 66.308 17.9756C71.995 23.725 74.8346 30.7216 74.8346 39.0265C74.8346 42.8077 74.1913 46.359 72.9107 49.6883C71.626 53.0282 69.8245 55.9899 67.5061 58.5805L67.2513 58.8652ZM29.3346 63.8398V78.7478L45.5013 74.5595L61.668 78.7478V63.8398L60.1677 64.7065C58.0295 65.9418 55.7196 66.9168 53.2353 67.6299C50.7695 68.3378 48.1927 68.6932 45.5013 68.6932C42.8099 68.6932 40.2331 68.3378 37.7673 67.6299C35.283 66.9168 32.9731 65.9418 30.8349 64.7065L29.3346 63.8398ZM45.5013 63.0265C52.0865 63.0265 57.7144 60.6845 62.3268 56.0214C66.9389 51.3587 69.2513 45.6741 69.2513 39.0265C69.2513 32.3789 66.9389 26.6943 62.3268 22.0316C57.7144 17.3685 52.0865 15.0265 45.5013 15.0265C38.9161 15.0265 33.2882 17.3685 28.6758 22.0316C24.0637 26.6943 21.7513 32.3789 21.7513 39.0265C21.7513 45.6741 24.0637 51.3587 28.6758 56.0214C33.2882 60.6845 38.9161 63.0265 45.5013 63.0265Z" fill="white"/>
</svg>
