<svg width="162" height="53" viewBox="0 0 162 53" fill="none" xmlns="http://www.w3.org/2000/svg">
<path d="M130.884 28.863C137.467 28.863 142.823 34.2172 142.823 40.7995C142.823 47.3837 137.468 52.7402 130.884 52.7402C124.304 52.7402 118.948 47.386 118.948 40.7995C118.948 34.2191 124.304 28.863 130.884 28.863ZM130.884 46.1065C133.811 46.1065 136.189 43.7265 136.189 40.7991C136.189 37.8764 133.812 35.4964 130.884 35.4964C127.959 35.4964 125.582 37.8764 125.582 40.7991C125.582 43.7242 127.959 46.1065 130.884 46.1065Z" fill="white"/>
<path d="M31.7229 31.0175C37.7111 31.0175 42.5808 35.8895 42.5808 41.8753C42.5808 47.8612 37.7088 52.7378 31.7229 52.7378C25.7371 52.7378 20.865 47.8616 20.865 41.8753C20.865 35.8891 25.7348 31.0175 31.7229 31.0175ZM31.7229 46.1064C34.0561 46.1064 35.9494 44.2086 35.9494 41.8753C35.9494 39.5467 34.0561 37.6489 31.7229 37.6489C29.3943 37.6489 27.4965 39.5467 27.4965 41.8753C27.4965 44.2086 29.3943 46.1064 31.7229 46.1064Z" fill="white"/>
<path d="M47.6827 44.3785H115.782V51.0123H47.6827V44.3785Z" fill="white"/>
<path d="M2.74412 24.8284L5.8855 21.6912L11.8848 18.8222L52.5232 14.9708L73.3507 0H90.8641L113.109 3.78461L139.05 15.7721L145.239 13.7941H162V19.1927L156.845 26.9272L162 30.4192V42.1903L157.367 46.8211L152.678 42.1343L155.371 39.4417V33.9403L147.672 28.7288L153.21 20.4255H146.272L138.612 22.8768L111.127 10.1748L90.3037 6.63371H75.4875L54.9347 21.4032L13.6822 25.3105L9.7706 27.1838L8.59613 28.3537L7.31887 32.5L7.80331 36.8427L11.6616 42.6391L6.1467 46.3209L1.38861 39.1805L0.578141 31.8595L2.74412 24.8284Z" fill="white"/>
</svg>
