<svg width="77" height="86" viewBox="0 0 77 86" fill="none" xmlns="http://www.w3.org/2000/svg">
<path d="M38.6693 85.849C37.2498 85.8611 35.8546 85.4798 34.6385 84.7474L19.4416 75.8596C13.7524 72.6779 9.00396 68.0507 5.67615 62.4457C2.34833 56.8408 0.55909 50.4566 0.489258 43.9386V19.6535C0.489931 18.017 0.991749 16.42 1.92721 15.0772C2.86268 13.7344 4.18691 12.7104 5.72181 12.1427L35.9154 1.05169C37.6936 0.400738 39.645 0.400738 41.4233 1.05169L71.6169 12.1427C73.1517 12.7104 74.476 13.7344 75.4114 15.0772C76.3469 16.42 76.8487 18.017 76.8494 19.6535V43.9386C76.7796 50.4566 74.9903 56.8408 71.6625 62.4457C68.3347 68.0507 63.5862 72.6779 57.8971 75.8596L42.7001 84.7474C41.4841 85.4798 40.0889 85.8611 38.6693 85.849ZM38.6693 6.83503C38.4707 6.79887 38.2671 6.79887 38.0685 6.83503L7.87491 17.9761C7.53481 18.1021 7.24297 18.3318 7.04076 18.6329C6.83855 18.934 6.73623 19.2911 6.74829 19.6535V43.9386C6.82089 49.3621 8.32469 54.6702 11.1076 59.3259C13.8904 63.9816 17.8536 67.8197 22.5961 70.4518L37.7931 79.3647C38.0618 79.5115 38.3631 79.5884 38.6693 79.5884C38.9755 79.5884 39.2769 79.5115 39.5456 79.3647L54.7425 70.4518C59.485 67.8197 63.4482 63.9816 66.2311 59.3259C69.014 54.6702 70.5178 49.3621 70.5904 43.9386V19.6535C70.5919 19.2995 70.4847 18.9536 70.2832 18.6625C70.0817 18.3714 69.7956 18.1493 69.4637 18.0262L39.2702 6.93518C39.0777 6.8654 38.8741 6.83146 38.6693 6.83503Z" fill="white"/>
<path d="M35.9148 55.5804C35.176 55.5756 34.4608 55.3195 33.8869 54.8543L23.1964 45.8413C22.559 45.3068 22.16 44.541 22.0872 43.7123C22.0145 42.8836 22.2739 42.0599 22.8084 41.4225C23.3429 40.785 24.1087 40.386 24.9374 40.3133C25.7661 40.2405 26.5898 40.4999 27.2273 41.0344L35.6143 48.0946L49.935 32.3218C50.4928 31.7043 51.273 31.3337 52.104 31.2914C52.9351 31.2491 53.7489 31.5388 54.3664 32.0965C54.9839 32.6543 55.3546 33.4345 55.3968 34.2655C55.4391 35.0966 55.1495 35.9104 54.5917 36.5279L38.3683 54.5539C38.0577 54.892 37.6776 55.1588 37.254 55.336C36.8305 55.5132 36.3736 55.5966 35.9148 55.5804Z" fill="white"/>
</svg>
