<svg width="29" height="20" viewBox="0 0 29 20" fill="none" xmlns="http://www.w3.org/2000/svg">
<rect x="0.5" width="28" height="20" rx="2" fill="white"/>
<mask id="mask0_108_188" style="mask-type:luminance" maskUnits="userSpaceOnUse" x="0" y="0" width="29" height="20">
<rect x="0.5" width="28" height="20" rx="2" fill="white"/>
</mask>
<g mask="url(#mask0_108_188)">
<rect x="0.5" width="28" height="20" fill="#F22A46"/>
<path fill-rule="evenodd" clip-rule="evenodd" d="M14.5 13.3333C16.3409 13.3333 17.8333 11.8409 17.8333 9.99996C17.8333 8.15901 16.3409 6.66663 14.5 6.66663C12.659 6.66663 11.1667 8.15901 11.1667 9.99996C11.1667 11.8409 12.659 13.3333 14.5 13.3333Z" fill="#FFF04D"/>
<path fill-rule="evenodd" clip-rule="evenodd" d="M12.8682 17.1495L14.5 14.7137L16.1318 17.1495L16.5452 14.2469L19.0723 15.7335L18.1853 12.9389L21.1071 13.1819L19.0954 11.0489L21.8333 10.0001L19.0954 8.95118L21.1071 6.81824L18.1853 7.06117L19.0723 4.26663L16.5452 5.75324L16.1318 2.85059L14.5 5.28644L12.8682 2.85059L12.4548 5.75324L9.92775 4.26663L10.8148 7.06117L7.8929 6.81824L9.90457 8.95118L7.16667 10.0001L9.90457 11.0489L7.8929 13.1819L10.8148 12.9389L9.92775 15.7335L12.4548 14.2469L12.8682 17.1495ZM19.1667 10.0001C19.1667 12.5774 17.0773 14.6667 14.5 14.6667C11.9227 14.6667 9.83334 12.5774 9.83334 10.0001C9.83334 7.42273 11.9227 5.33339 14.5 5.33339C17.0773 5.33339 19.1667 7.42273 19.1667 10.0001Z" fill="#FFF04D"/>
</g>
</svg>
