<svg width="68" height="71" viewBox="0 0 68 71" fill="none" xmlns="http://www.w3.org/2000/svg">
<path d="M65 3V23.5263M65 23.5263H44.3333M65 23.5263L55.9056 15.4207C51.1488 10.7045 44.9774 7.65141 38.3217 6.72139C31.6656 5.79134 24.8857 7.03483 19.0032 10.2644C13.1207 13.494 8.45441 18.5347 5.70739 24.6271C2.96037 30.7195 2.28143 37.5335 3.77285 44.0424C5.2643 50.5513 8.84532 56.4027 13.9764 60.7146C19.1074 65.0265 25.5105 67.5656 32.2209 67.9491C38.9313 68.3326 45.5853 66.54 51.1809 62.8411C56.776 59.1423 61.0093 53.7377 63.243 47.4419" stroke="white" stroke-width="6" stroke-linecap="round" stroke-linejoin="round"/>
</svg>
