<svg width="24" height="24" viewBox="0 0 24 24" fill="none" xmlns="http://www.w3.org/2000/svg">
<path d="M12.4847 18.25C5.90771 18.25 2.15631 13.6517 2 6H5.2945C5.40272 11.6161 7.83151 13.995 9.75531 14.4855V6H12.8574V10.8436C14.7572 10.6351 16.7531 8.42793 17.4265 6H20.5286C20.2748 7.25919 19.7691 8.45145 19.0429 9.50219C18.3167 10.5529 17.3858 11.4396 16.3082 12.1066C17.511 12.7161 18.5734 13.5788 19.4252 14.6378C20.277 15.6967 20.899 16.9279 21.25 18.25H17.8353C17.5202 17.1017 16.8797 16.0737 15.9942 15.295C15.1087 14.5162 14.0175 14.0214 12.8574 13.8724V18.25H12.4847V18.25Z" fill="white"/>
</svg>
