<svg width="142" height="66" viewBox="0 0 142 66" fill="none" xmlns="http://www.w3.org/2000/svg">
<path d="M4.61986 52.47H13.4285C13.7863 59.7706 19.8193 65.5771 27.2089 65.5771C34.5984 65.5771 40.6316 59.7706 40.9892 52.47H103.397C103.755 59.7706 109.788 65.5771 117.178 65.5771C124.567 65.5771 130.6 59.7706 130.958 52.47H138.178C138.988 52.47 139.724 52.1061 140.256 51.5198C140.788 50.9334 141.117 50.1247 141.117 49.2291C141.117 48.4588 140.869 47.7128 140.414 47.1265L138.916 45.1916C142.262 37.614 141.089 26.7551 139.973 20.5038C139.332 16.9031 137.365 13.7552 134.528 11.8365C131.13 9.53574 125.341 6.39189 115.801 3.0398C96.8122 -3.63001 63.2448 2.1664 56.6355 7.58878C51.3688 11.9073 40.9486 22.1455 27.7404 23.6618C20.8767 24.4483 14.9992 26.4559 10.9355 28.2047C7.31851 29.7595 4.89866 33.5503 4.76704 37.8263L4.6235 42.4622L2.33284 44.1464C1.75865 44.5689 1.29991 45.133 0.984317 45.784C0.668921 46.433 0.49707 47.1689 0.49707 47.9271C0.497272 50.4361 2.34315 52.47 4.61986 52.47ZM125.894 52.47C125.542 56.9684 121.767 60.5227 117.178 60.5227C112.588 60.5227 108.814 56.9684 108.462 52.47C108.444 52.2436 108.434 52.0131 108.434 51.7806C108.434 46.9587 112.356 43.0364 117.178 43.0364C122 43.0364 125.922 46.9587 125.922 51.7806C125.922 52.0131 125.912 52.2436 125.894 52.47ZM137.063 30.3397C137.738 30.4792 138.23 31.0573 138.267 31.7449C138.433 34.804 137.979 37.9549 137.676 39.639C137.547 40.3584 136.921 40.8798 136.19 40.8798H135.179C134.289 40.8798 133.592 40.1142 133.675 39.228L134.282 32.7531C134.313 32.4288 134.447 32.1231 134.665 31.8815L135.636 30.8068C135.995 30.4089 136.538 30.2312 137.063 30.3397ZM107.43 16.2893L108.446 11.5579C108.891 9.48823 110.616 7.93875 112.721 7.71797L113.583 7.6274C113.765 7.68744 113.949 7.74627 114.126 7.80834C123.467 11.0905 128.836 14.0865 131.695 16.0218C133.391 17.1689 134.594 19.125 134.997 21.3894C135.046 21.6647 135.094 21.9389 135.139 22.212H112.215C111.17 22.212 110.153 21.8776 109.312 21.2577C107.762 20.1161 107.026 18.1715 107.43 16.2893ZM86.5144 33.1971H81.46C80.5107 33.1971 79.7414 32.4276 79.7414 31.4786C79.7414 30.5296 80.5107 29.7601 81.46 29.7601H86.5144C87.4634 29.7601 88.2329 30.5296 88.2329 31.4786C88.2329 32.4276 87.4634 33.1971 86.5144 33.1971ZM57.8028 13.2182C58.5782 12.5557 59.2476 11.9833 59.8406 11.4973C60.7211 10.7749 64.4181 8.98663 72.1133 7.38357C78.5165 6.04981 85.6193 5.26112 92.3403 5.12384L89.9904 18.6052C89.3972 22.0078 86.5111 24.536 83.0602 24.6761L47.9651 26.1005C45.9664 26.1816 44.0429 25.4422 42.6176 24.0892C48.9902 20.746 54.138 16.3499 57.8028 13.2182ZM27.2089 43.0364C32.031 43.0364 35.953 46.9587 35.953 51.7806C35.953 52.0131 35.9429 52.2436 35.9247 52.47C35.5729 56.9684 31.7983 60.5227 27.2089 60.5227C22.6194 60.5227 18.8448 56.9684 18.4932 52.47C18.4748 52.2436 18.4647 52.0131 18.4647 51.7806C18.4649 46.9587 22.3871 43.0364 27.2089 43.0364ZM10.0576 33.3319C11.4348 33.3319 12.551 35.0215 12.551 37.106C12.551 39.1902 11.4348 40.88 10.0576 40.88C8.68058 40.88 7.56416 39.1904 7.56416 37.106C7.56436 35.0215 8.68058 33.3319 10.0576 33.3319Z" fill="white"/>
</svg>
