<svg width="85" height="85" viewBox="0 0 85 85" fill="none" xmlns="http://www.w3.org/2000/svg">
<path d="M83.9943 4.9123C82.6534 3.57139 80.4794 3.57139 79.1385 4.9123L38.5933 45.4573L29.3013 36.1652C27.9603 34.8245 25.7864 34.8245 24.4455 36.1652C23.1046 37.5061 23.1046 39.6801 24.4455 41.021L36.1653 52.7411C36.8093 53.385 37.6827 53.7468 38.5933 53.7468C39.5039 53.7468 40.3773 53.385 41.0213 52.7411L83.9944 9.76792C85.3352 8.42718 85.3352 6.25321 83.9943 4.9123Z" fill="#9B0000"/>
<path d="M73.7531 39.0665C71.8567 39.0665 70.3196 40.6038 70.3196 42.5001V69.8465C70.3196 72.2615 68.3548 74.2261 65.9399 74.2261H11.2469C8.83186 74.2261 6.86724 72.2613 6.86724 69.8465V15.1535C6.86724 12.7384 8.83203 10.7738 11.2469 10.7738H54.22C56.1164 10.7738 57.6536 9.23651 57.6536 7.34028C57.6536 5.44405 56.1164 3.90674 54.22 3.90674H11.2469C5.04538 3.90674 0 8.95212 0 15.1535V69.8465C0 76.0482 5.04538 81.0934 11.2469 81.0934H65.9399C72.1414 81.0934 77.1868 76.0482 77.1868 69.8465V42.5001C77.1866 40.6038 75.6495 39.0665 73.7531 39.0665Z" fill="#9B0000"/>
</svg>
