<svg width="85" height="85" viewBox="0 0 85 85" fill="none" xmlns="http://www.w3.org/2000/svg">
<path d="M74.4633 15.9672H62.095L56.0113 6.84167C55.3745 5.88642 54.3026 5.3125 53.1546 5.3125H31.8455C30.6975 5.3125 29.6253 5.88625 28.9887 6.84167L22.905 15.9672H10.5365C4.7268 15.9672 0 20.6938 0 26.5037V65.5702C0 71.3801 4.7268 76.1067 10.5365 76.1067H74.4633C80.2732 76.1067 85 71.3801 85 65.5702V26.5037C85 20.694 80.2732 15.9672 74.4633 15.9672ZM78.1329 65.5702C78.1329 67.5936 76.4867 69.2395 74.4635 69.2395H10.5365C8.51328 69.2395 6.86724 67.5934 6.86724 65.5702V26.5037C6.86724 24.4805 8.51345 22.8345 10.5365 22.8345H24.7425C25.8905 22.8345 26.9626 22.2607 27.5994 21.3055L33.6831 12.1799H51.3168L57.4004 21.3055C58.0372 22.2607 59.1092 22.8345 60.2574 22.8345H74.4633C76.4867 22.8345 78.1328 24.4805 78.1328 26.5037L78.1329 65.5702Z" fill="#9B0000"/>
<path d="M42.5 26.6218C32.7734 26.6218 24.8605 34.5349 24.8605 44.2613C24.8605 53.9878 32.7736 61.9008 42.5 61.9008C52.2263 61.9008 60.1395 53.9876 60.1395 44.2613C60.1395 34.5349 52.2265 26.6218 42.5 26.6218ZM42.5 55.0337C36.5601 55.0337 31.7275 50.2012 31.7275 44.2613C31.7275 38.3214 36.5601 33.4889 42.5 33.4889C48.4398 33.4889 53.2724 38.3214 53.2724 44.2613C53.2724 50.2013 48.4398 55.0337 42.5 55.0337Z" fill="#9B0000"/>
</svg>
