<svg width="85" height="85" viewBox="0 0 85 85" fill="none" xmlns="http://www.w3.org/2000/svg">
<g clip-path="url(#clip0_13_116)">
<path d="M61.4371 10.541C54.6396 3.74349 45.6022 0 35.989 0C26.3759 0 17.3383 3.74349 10.541 10.541C3.74349 17.3383 0 26.3759 0 35.9889C0 45.602 3.74349 54.6396 10.541 61.4369C17.3383 68.2343 26.3761 71.9779 35.989 71.9779C45.602 71.9779 54.6396 68.2343 61.4371 61.4369C68.2344 54.6396 71.9781 45.602 71.9781 35.9889C71.9779 26.3759 68.2344 17.3383 61.4371 10.541ZM35.9889 65.1107C19.931 65.1107 6.86707 52.0467 6.86707 35.9889C6.86707 19.931 19.9312 6.86707 35.989 6.86707C52.0469 6.86707 65.1107 19.931 65.1107 35.9889C65.1107 52.0467 52.0467 65.1107 35.9889 65.1107Z" fill="#9B0000"/>
<path d="M83.9944 79.1385L61.4226 56.5668C60.0817 55.2259 57.9077 55.2259 56.5668 56.5668C55.2261 57.9077 55.2261 60.0817 56.5668 61.4226L79.1385 83.9943C79.8089 84.6648 80.6878 85 81.5665 85C82.4452 85 83.3241 84.6648 83.9944 83.9943C85.3352 82.6534 85.3352 80.4794 83.9944 79.1385Z" fill="#9B0000"/>
</g>
<defs>
<clipPath id="clip0_13_116">
<rect width="85" height="85" fill="white"/>
</clipPath>
</defs>
</svg>
