<svg width="268" height="55" viewBox="0 0 268 55" fill="none" xmlns="http://www.w3.org/2000/svg">
<g clip-path="url(#clip0_106_289)">
<path d="M51.8418 25.9839V51.4018H26.2529C23.7063 51.4062 21.1738 51.0261 18.742 50.2752L21.8627 45.85L23.1263 44.0461L24.0431 42.7501H43.132V25.9839C43.132 25.6395 43.132 25.3009 43.0967 24.9564C43.0615 24.612 43.0553 24.3727 43.02 24.1333C43.0024 23.9082 42.9729 23.6841 42.9319 23.462V23.2051C42.8966 23.0007 42.8556 22.7906 42.8084 22.5863C42.7957 22.4911 42.7736 22.3974 42.7441 22.3061C42.708 22.1089 42.6608 21.9141 42.603 21.7222C42.5382 21.4595 42.4735 21.2144 42.3853 20.9633C42.3205 20.7339 42.2443 20.5079 42.1561 20.2861C42.0873 20.0757 42.0067 19.8691 41.9154 19.6673C41.8387 19.4922 41.7625 19.3113 41.692 19.1361C41.1057 17.837 40.3533 16.6185 39.4528 15.5108C39.2606 15.2773 39.0649 15.0613 38.8652 14.8628C38.4945 14.453 38.1022 14.0632 37.6897 13.6952C36.9386 13.0069 36.1262 12.3875 35.2623 11.8446C34.8511 11.5761 34.416 11.3367 33.9814 11.1091C33.9527 11.0852 33.9179 11.0691 33.8813 11.0624C33.7169 10.9806 33.5521 10.8931 33.3819 10.8172C33.0937 10.6887 32.7939 10.5545 32.5004 10.4377C31.7749 10.1558 31.0331 9.91792 30.2787 9.72549C29.6979 9.58276 29.1091 9.4736 28.5156 9.3986C28.3863 9.3986 28.257 9.3694 28.1159 9.34606C27.9749 9.32268 27.681 9.29935 27.4518 9.29352C27.0581 9.2585 26.6526 9.24681 26.2764 9.24681C23.5112 9.23989 20.7866 9.90816 18.3424 11.1929C15.8982 12.4775 13.8094 14.3393 12.2596 16.6142C11.9485 17.0552 11.6659 17.5154 11.4134 17.9919C10.7578 19.1951 10.2526 20.4734 9.90879 21.7982C9.76673 22.3364 9.65486 22.8821 9.5738 23.4328C9.43879 24.2765 9.37197 25.1296 9.37399 25.9839C9.37399 26.2524 9.37399 26.5268 9.37399 26.7953C9.37399 27.0639 9.37399 27.239 9.41512 27.455C9.46497 28.0426 9.54541 28.6271 9.6561 29.2064L7.64028 32.0612L4.91331 35.9549L3.60274 37.817C1.79655 34.4041 0.795852 30.6274 0.676313 26.7733C0.556817 22.9191 1.32166 19.0885 2.91292 15.5714C4.50417 12.0543 6.88015 8.94286 9.86097 6.47275C12.8418 4.00265 16.3493 2.23855 20.118 1.3141C23.8866 0.389608 27.8177 0.328968 31.6135 1.13673C35.4091 1.9445 38.9701 3.59953 42.0269 5.97651C45.0833 8.35344 47.5556 11.3901 49.2557 14.8564C50.9563 18.3227 51.8405 22.1279 51.8418 25.9839Z" fill="url(#paint0_linear_106_289)"/>
<path d="M37.6897 25.9841V37.3444H28.974V25.9841C28.974 25.4495 28.8144 24.9269 28.5154 24.4824C28.2164 24.0379 27.7914 23.6915 27.2942 23.4869C26.797 23.2823 26.2499 23.2288 25.7221 23.3331C25.1942 23.4374 24.7094 23.6948 24.3288 24.0728C23.9483 24.4508 23.6891 24.9325 23.5841 25.4568C23.4791 25.9811 23.533 26.5245 23.7389 27.0185C23.9449 27.5123 24.2937 27.9345 24.7411 28.2315C25.1886 28.5285 25.7147 28.687 26.2529 28.687C26.6974 28.6858 27.135 28.5777 27.5282 28.3718L21.8216 36.4512L21.2339 37.3444L18.6891 40.9583L17.4256 42.7561L13.6584 48.0977L11.3076 51.4078H0.664185L6.88213 42.5985L9.37399 39.0608L12.1186 35.1552L14.822 31.3373L15.6272 30.1698C14.9426 28.4475 14.692 26.5851 14.8972 24.7446C15.1024 22.9042 15.7571 21.1414 16.8045 19.6096C17.8519 18.0778 19.2601 16.8234 20.9069 15.9554C22.5535 15.0875 24.3887 14.6323 26.2529 14.6295C27.1697 14.6258 28.0835 14.7337 28.974 14.9506C31.4601 15.5555 33.6702 16.9715 35.2504 18.9719C36.8306 20.9723 37.6897 23.4414 37.6897 25.9841Z" fill="url(#paint1_linear_106_289)"/>
<path d="M71.2242 12.6508C70.972 12.662 70.7208 12.6893 70.4718 12.7326C69.5373 12.8531 68.65 13.2132 67.8976 13.7775C67.2175 14.306 66.6885 15.0024 66.3637 15.7974C66.015 16.6518 65.8409 17.5667 65.8524 18.4887C65.8206 19.8314 66.2129 21.1504 66.975 22.2599C67.4828 22.9623 68.1793 23.5085 68.985 23.8361L65.5059 30.9231H68.5619L71.7765 24.3615H76.6546V30.9231H79.3403V12.6333H71.8884L71.2242 12.6508ZM76.6489 15.1611V21.8746H71.9942C71.8236 21.8746 71.6297 21.8746 71.4062 21.8746C71.2083 21.8597 71.0117 21.8285 70.8187 21.7812C70.3188 21.6805 69.8591 21.437 69.4963 21.0806C69.1732 20.748 68.9264 20.3497 68.7734 19.9131C68.628 19.4781 68.5526 19.0229 68.55 18.5646C68.5522 18.11 68.6275 17.6586 68.7734 17.2277C68.9259 16.7908 69.1723 16.3923 69.4963 16.0601C69.8586 15.7019 70.3179 15.4564 70.8187 15.3538C71.0113 15.3045 71.2079 15.2713 71.4062 15.2545C71.6121 15.2545 71.806 15.2253 71.9942 15.2253L76.6489 15.1611Z" fill="white"/>
<path d="M82.9194 30.935H85.5936V15.1319H94.891V30.935H97.5652V12.6333H82.9194V30.935Z" fill="white"/>
<path d="M113.539 13.4503C112.099 12.6623 110.481 12.249 108.837 12.249C107.193 12.249 105.576 12.6623 104.136 13.4503C102.836 14.2551 101.803 15.4199 101.162 16.8012C100.447 18.3633 100.095 20.0653 100.134 21.7809C100.095 23.4964 100.447 25.1984 101.162 26.7605C101.803 28.1418 102.836 29.3067 104.136 30.1115C105.576 30.8994 107.193 31.3127 108.837 31.3127C110.481 31.3127 112.099 30.8994 113.539 30.1115C114.842 29.3117 115.878 28.1455 116.513 26.7605C117.228 25.1984 117.579 23.4964 117.541 21.7809C117.579 20.0653 117.228 18.3633 116.513 16.8012C115.878 15.4163 114.842 14.25 113.539 13.4503ZM114.045 25.4587C113.658 26.4574 112.978 27.3177 112.093 27.9281C111.124 28.5435 109.986 28.8435 108.837 28.7863C107.683 28.8165 106.546 28.5057 105.57 27.8931C104.682 27.2927 103.998 26.4401 103.607 25.447C103.151 24.2793 102.933 23.0331 102.966 21.7809C102.945 20.5161 103.171 19.2593 103.63 18.0797C104.018 17.0813 104.697 16.2213 105.582 15.6103C106.552 14.9993 107.69 14.7035 108.837 14.7638C109.988 14.727 111.123 15.0363 112.093 15.6512C112.976 16.2538 113.656 17.106 114.045 18.0972C114.498 19.2717 114.714 20.5235 114.679 21.7809C114.711 23.0362 114.495 24.2856 114.045 25.4587Z" fill="white"/>
<path d="M131.799 14.285C130.77 13.4199 129.502 12.8829 128.161 12.7438C127.717 12.6833 127.269 12.6501 126.821 12.6445C126.357 12.6445 126.039 12.6445 125.869 12.6445H120.098V30.9228H125.846C126.016 30.9228 126.333 30.9228 126.798 30.9228C127.246 30.9171 127.693 30.8838 128.138 30.8234C129.477 30.686 130.744 30.1533 131.775 29.2941C132.777 28.4224 133.544 27.317 134.009 26.0774C134.522 24.7049 134.777 23.2505 134.761 21.7866C134.787 20.3239 134.539 18.8691 134.032 17.4958C133.566 16.2587 132.799 15.1556 131.799 14.285ZM131.535 24.7289C131.295 25.5966 130.855 26.3964 130.248 27.064C129.642 27.7055 128.841 28.1321 127.967 28.2783C127.614 28.3302 127.26 28.3633 126.903 28.3775C126.504 28.3775 126.157 28.3775 125.869 28.3775H122.836V15.1607H125.846H126.874C127.233 15.1692 127.591 15.2063 127.944 15.2716C128.805 15.4028 129.598 15.8133 130.2 16.4391C130.808 17.1083 131.252 17.9073 131.499 18.7743C132.056 20.7167 132.056 22.7747 131.499 24.7172L131.535 24.7289Z" fill="white"/>
<path d="M148.572 20.602C147.834 20.0573 146.96 19.7223 146.045 19.6329C145.792 19.5966 145.537 19.5732 145.281 19.5628H144.623H139.85V15.1611H149.195V12.6333H137.177V30.9231H144.652H145.322C145.574 30.9126 145.825 30.889 146.074 30.8531C146.968 30.7834 147.825 30.4702 148.551 29.948C149.276 29.4258 149.843 28.7149 150.188 27.8934C150.542 27.0565 150.72 26.1566 150.711 25.2489C150.721 24.3405 150.541 23.44 150.182 22.6043C149.827 21.8107 149.273 21.1211 148.572 20.602ZM147.432 27.1578C147.247 27.4728 146.992 27.7416 146.686 27.9439C146.381 28.1462 146.033 28.2767 145.669 28.3254C145.481 28.3604 145.281 28.3838 145.081 28.4013C144.882 28.4188 144.681 28.4013 144.494 28.4013H139.821V22.0497H144.494H145.081C145.279 22.0617 145.475 22.0891 145.669 22.1315C146.032 22.181 146.38 22.3118 146.686 22.514C146.991 22.7163 147.246 22.9847 147.432 23.299C147.763 23.8867 147.937 24.549 147.937 25.2226C147.937 25.8962 147.763 26.5586 147.432 27.1462V27.1578Z" fill="white"/>
<path d="M166.203 13.4503C164.763 12.6623 163.146 12.249 161.502 12.249C159.857 12.249 158.24 12.6623 156.8 13.4503C155.498 14.2529 154.461 15.4182 153.821 16.8012C153.108 18.3642 152.757 20.0656 152.792 21.7809C152.757 23.4962 153.108 25.1975 153.821 26.7605C154.461 28.1435 155.498 29.3088 156.8 30.1115C158.24 30.8994 159.857 31.3127 161.502 31.3127C163.146 31.3127 164.763 30.8994 166.203 30.1115C167.505 29.3101 168.54 28.1443 169.177 26.7605C169.887 25.1971 170.237 23.4957 170.2 21.7809C170.237 20.066 169.887 18.3647 169.177 16.8012C168.54 15.4174 167.505 14.2516 166.203 13.4503ZM166.709 25.4587C166.32 26.4562 165.641 27.3159 164.758 27.9281C163.788 28.5428 162.65 28.8427 161.502 28.7863C160.346 28.8149 159.207 28.5042 158.228 27.8931C157.342 27.2911 156.659 26.439 156.265 25.447C155.809 24.2793 155.591 23.0331 155.625 21.7809C155.608 20.516 155.836 19.2597 156.295 18.0797C156.68 17.0801 157.36 16.2194 158.246 15.6103C159.216 14.9986 160.354 14.7027 161.502 14.7638C162.652 14.7281 163.787 15.0373 164.758 15.6512C165.638 16.2556 166.318 17.1073 166.709 18.0972C167.166 19.265 167.388 20.5107 167.361 21.7634C167.39 23.0257 167.168 24.2813 166.709 25.4587Z" fill="white"/>
<path d="M185.733 15.797C185.406 15.0016 184.875 14.3052 184.193 13.7771C183.441 13.2158 182.557 12.8559 181.625 12.7321C181.376 12.6892 181.125 12.6619 180.873 12.6504H180.203H172.756V30.9229H175.43V24.3611H180.203C180.373 24.3611 180.596 24.3611 180.861 24.3611C181.125 24.3611 181.384 24.3144 181.625 24.2852C182.557 24.1614 183.441 23.8016 184.193 23.2402C184.874 22.7108 185.405 22.0148 185.733 21.2203C186.082 20.3599 186.256 19.4392 186.244 18.5116C186.259 17.5818 186.085 16.6586 185.733 15.797ZM183.3 19.8309C183.153 20.2692 182.908 20.6686 182.583 20.9985C182.224 21.3561 181.765 21.5999 181.266 21.699C181.073 21.7454 180.876 21.7766 180.679 21.7924C180.467 21.7924 180.279 21.7924 180.091 21.7924H175.419V15.1606H180.091C180.261 15.1606 180.449 15.1606 180.679 15.1899C180.877 15.2075 181.074 15.2407 181.266 15.2891C181.766 15.3906 182.224 15.6363 182.583 15.9955C182.909 16.3249 183.154 16.7244 183.3 17.163C183.444 17.5942 183.517 18.0456 183.517 18.4999C183.515 18.9521 183.441 19.4012 183.3 19.8309Z" fill="white"/>
<path d="M68.9969 40.9287L65.5059 50.9933H66.5814L67.4277 48.5528H71.9351L72.7876 50.9933H73.8631L70.3721 40.9287H68.9969ZM67.7627 47.5895L69.6726 42.0846L71.5944 47.5895H67.7627Z" fill="white"/>
<path d="M81.1329 47.3211C80.9822 47.231 80.8173 47.1657 80.6451 47.1285C80.7315 47.0865 80.8139 47.0374 80.8919 46.9827C80.9783 46.924 81.0576 46.8557 81.1273 46.7782C81.278 46.6197 81.3957 46.4332 81.4737 46.2296C81.5888 45.9034 81.624 45.5553 81.5769 45.2134C81.5297 44.8714 81.4019 44.5453 81.2035 44.262C80.9492 43.9191 80.5807 43.677 80.1633 43.5789C79.9552 43.5251 79.7428 43.4901 79.5286 43.4739C79.3329 43.4638 79.1367 43.4638 78.941 43.4739H75.8083V50.9933H79.3346C79.5286 50.9933 79.7344 50.9933 79.9517 50.9933C80.1501 50.9797 80.3467 50.9486 80.5393 50.8996C80.9373 50.7897 81.2877 50.5541 81.5385 50.2284C81.799 49.858 81.9295 49.4127 81.9088 48.9617C81.9185 48.6242 81.8457 48.2896 81.6972 47.9867C81.5738 47.7178 81.3789 47.4875 81.1329 47.3211ZM76.8663 44.3495H78.8529H79.2231C79.4091 44.3596 79.5929 44.3951 79.7697 44.4546C80.0002 44.5238 80.1986 44.6731 80.3277 44.8749C80.4542 45.0869 80.5172 45.3299 80.5102 45.5755C80.5128 45.8102 80.4542 46.0418 80.3396 46.2471C80.2206 46.4512 80.0302 46.6048 79.8049 46.6788C79.6753 46.7231 79.5414 46.7524 79.4052 46.7664C79.2681 46.7743 79.131 46.7743 78.9939 46.7664H76.8663V44.3495ZM80.698 49.6036C80.6336 49.71 80.5485 49.8028 80.4476 49.8759C80.3467 49.9491 80.2321 50.0016 80.1104 50.0301C79.9768 50.0598 79.8411 50.0813 79.7049 50.094C79.5815 50.1014 79.458 50.1014 79.3346 50.094H76.8839V47.6596H79.5051C79.6175 47.664 79.7296 47.6775 79.8402 47.7008C80.1377 47.7332 80.4137 47.872 80.616 48.0917C80.8143 48.315 80.9197 48.6053 80.9095 48.9031C80.9073 49.1518 80.8342 49.3947 80.698 49.6036Z" fill="white"/>
<path d="M83.4368 44.3967H86.1344V50.9931H87.1685V44.3967H89.8661V43.4448H83.4368V44.3967Z" fill="white"/>
<path d="M96.8834 43.7661C96.2985 43.4127 95.6228 43.2363 94.9382 43.2582C94.2656 43.242 93.6014 43.414 93.0222 43.7542C92.4822 44.0927 92.0503 44.5765 91.7765 45.1496C91.4918 45.8059 91.345 46.5131 91.345 47.228C91.345 47.9426 91.4918 48.6497 91.7765 49.306C92.045 49.8835 92.473 50.3735 93.0107 50.7189C93.5921 51.0701 94.2638 51.2465 94.944 51.2268C95.6236 51.2448 96.2941 51.0705 96.8777 50.7246C97.4181 50.3857 97.8483 49.8993 98.1176 49.3235C98.4164 48.6677 98.5632 47.9535 98.5469 47.2337C98.5614 46.5218 98.4147 45.8156 98.1176 45.1671C97.8513 44.5914 97.4225 44.1049 96.8834 43.7661ZM96.8248 49.4054C96.5885 49.6668 96.2994 49.8757 95.9763 50.0184C95.6532 50.1616 95.3036 50.2351 94.9501 50.2351C94.5962 50.2351 94.2467 50.1616 93.9236 50.0184C93.6009 49.8757 93.3118 49.6668 93.0751 49.4054C92.6255 48.7679 92.402 47.9995 92.4403 47.2219C92.4298 46.6921 92.5214 46.165 92.711 45.6693C92.8714 45.2424 93.1584 44.8742 93.5335 44.6124C93.9518 44.3462 94.4419 44.214 94.9382 44.2332C95.2944 44.207 95.6519 44.2669 95.9794 44.4084C96.3069 44.5498 96.5951 44.7678 96.819 45.0445C97.2633 45.682 97.4824 46.4478 97.4419 47.2219C97.4754 47.989 97.2589 48.7465 96.8248 49.3822V49.4054Z" fill="white"/>
<path d="M100.786 50.9931H101.82V44.4317H105.793V50.9931H106.827V43.4448H100.786V50.9931Z" fill="white"/>
<path d="M114.62 43.7661C114.035 43.4127 113.36 43.2363 112.675 43.2582C112.002 43.242 111.338 43.414 110.759 43.7542C110.235 44.0905 109.815 44.566 109.549 45.1264C109.244 45.7784 109.093 46.4912 109.108 47.2105C109.096 47.9242 109.243 48.6317 109.537 49.2828C109.805 49.8603 110.233 50.3503 110.771 50.6957C111.353 51.0469 112.024 51.2229 112.705 51.2036C113.386 51.2216 114.058 51.0473 114.644 50.7014C115.182 50.3621 115.611 49.8756 115.878 49.3003C116.159 48.6431 116.304 47.936 116.304 47.2219C116.304 46.5078 116.159 45.8011 115.878 45.1439C115.603 44.573 115.165 44.094 114.62 43.7661ZM114.562 49.4054C114.325 49.6668 114.036 49.8756 113.713 50.0184C113.39 50.1615 113.04 50.2351 112.687 50.2351C112.333 50.2351 111.983 50.1615 111.66 50.0184C111.338 49.8756 111.049 49.6668 110.812 49.4054C110.362 48.7679 110.139 47.9995 110.177 47.2219C110.17 46.6921 110.261 46.1654 110.448 45.6693C110.61 45.2438 110.897 44.876 111.27 44.6124C111.689 44.3475 112.179 44.2148 112.675 44.2332C113.032 44.2074 113.39 44.2678 113.718 44.4088C114.047 44.5502 114.336 44.7683 114.562 45.0445C115.006 45.682 115.225 46.4478 115.184 47.2219C115.216 47.9899 114.998 48.7473 114.562 49.3822V49.4054Z" fill="white"/>
<path d="M124.829 43.4448H119.804C119.769 44.2391 119.733 44.9278 119.698 45.5175C119.663 46.1069 119.616 46.6266 119.563 47.0876C119.51 47.5491 119.445 47.9694 119.369 48.3661C119.301 48.8346 119.146 49.286 118.911 49.6971C118.804 49.8394 118.663 49.952 118.5 50.0242C118.338 50.0969 118.16 50.1271 117.982 50.1118V52.6687H118.952V50.9931H124.541V52.6687H125.54V50.1118H124.829V43.4448ZM123.8 50.1118H119.733C119.903 49.9502 120.03 49.7497 120.104 49.5281C120.198 49.2449 120.275 48.9563 120.333 48.6639C120.4 48.3635 120.45 48.0592 120.486 47.7531C120.533 47.409 120.574 47.0351 120.609 46.6384C120.644 46.2413 120.674 45.8442 120.697 45.4707C120.721 45.0972 120.744 44.6944 120.762 44.3441H123.8V50.1118Z" fill="white"/>
<path d="M132.769 44.2858C132.24 43.9609 131.627 43.7968 131.006 43.813C130.465 43.809 129.931 43.9268 129.442 44.1571C128.958 44.3765 128.55 44.7315 128.267 45.179C128.301 44.6322 128.428 44.0954 128.643 43.591C128.819 43.1606 129.13 42.7985 129.53 42.5577C129.81 42.386 130.112 42.2564 130.43 42.1724C130.793 42.0721 131.162 41.9942 131.535 41.939C131.923 41.8803 132.287 41.8278 132.639 41.7871C132.992 41.7464 133.298 41.6995 133.556 41.647L133.445 40.7188C133.104 40.7888 132.739 40.847 132.34 40.8939L131.164 41.0515C130.767 41.1102 130.374 41.196 129.989 41.3085C129.638 41.4118 129.305 41.5673 129.002 41.7696C128.693 41.9635 128.424 42.2131 128.208 42.5051C127.986 42.8002 127.81 43.1273 127.685 43.4741C127.568 43.8099 127.483 44.1558 127.432 44.5074C127.358 44.95 127.308 45.3966 127.279 45.8445C127.254 46.2758 127.254 46.7088 127.279 47.1405C127.278 47.9138 127.432 48.68 127.732 49.3936C127.975 49.9541 128.385 50.4265 128.908 50.7483C129.462 51.0627 130.091 51.2221 130.729 51.2094C131.399 51.2264 132.061 51.0697 132.651 50.754C133.183 50.4493 133.615 49.9996 133.897 49.458C134.203 48.8477 134.354 48.1721 134.338 47.4908C134.35 46.8327 134.213 46.1804 133.938 45.5818C133.682 45.0472 133.276 44.5971 132.769 44.2858ZM132.598 49.4812C132.373 49.7352 132.092 49.9344 131.778 50.0627C131.462 50.1914 131.122 50.2461 130.782 50.2229C130.445 50.2448 130.107 50.191 129.794 50.0657C129.481 49.9405 129.2 49.7465 128.972 49.4987C128.568 48.9147 128.351 48.2229 128.351 47.514C128.351 46.8051 128.568 46.1129 128.972 45.5293C129.197 45.281 129.476 45.0866 129.787 44.9605C130.099 44.834 130.435 44.7788 130.77 44.7994C131.107 44.7793 131.443 44.8331 131.756 44.957C132.069 45.0814 132.351 45.2727 132.581 45.5175C133.033 46.0783 133.261 46.785 133.221 47.5022C133.261 48.215 133.04 48.9182 132.598 49.4812Z" fill="white"/>
<path d="M141.684 43.7661C141.099 43.4127 140.423 43.2363 139.739 43.2582C139.066 43.242 138.402 43.414 137.823 43.7542C137.29 44.0887 136.86 44.5638 136.583 45.1264C136.283 45.7797 136.134 46.492 136.148 47.2105C136.136 47.9242 136.283 48.6317 136.577 49.2828C136.846 49.8603 137.274 50.3503 137.811 50.6957C138.393 51.0469 139.065 51.2229 139.745 51.2036C140.424 51.222 141.095 51.0482 141.678 50.7014C142.219 50.3625 142.649 49.8761 142.918 49.3003C143.2 48.6431 143.345 47.936 143.345 47.2219C143.345 46.5078 143.2 45.8011 142.918 45.1439C142.648 44.5769 142.219 44.0993 141.684 43.7661ZM141.625 49.4054C141.389 49.6668 141.1 49.8756 140.777 50.0184C140.454 50.1615 140.104 50.2351 139.751 50.2351C139.397 50.2351 139.047 50.1615 138.724 50.0184C138.402 49.8756 138.112 49.6668 137.876 49.4054C137.426 48.7679 137.203 47.9995 137.241 47.2219C137.23 46.6921 137.322 46.165 137.512 45.6693C137.674 45.2438 137.961 44.876 138.334 44.6124C138.753 44.3475 139.243 44.2148 139.739 44.2332C140.095 44.207 140.453 44.2669 140.78 44.4084C141.108 44.5498 141.396 44.7678 141.62 45.0445C142.064 45.682 142.283 46.4478 142.243 47.2219C142.276 47.989 142.06 48.7465 141.625 49.3822V49.4054Z" fill="white"/>
<path d="M150.835 43.7663C150.3 43.427 149.678 43.2466 149.043 43.2466C148.407 43.2466 147.785 43.427 147.25 43.7663C146.964 43.9716 146.715 44.2243 146.515 44.5132V43.4624H145.587V54.3501H146.627V50.0887C146.795 50.3093 146.992 50.5055 147.215 50.6723C147.729 51.0348 148.347 51.2214 148.978 51.2034C149.624 51.2227 150.26 51.0366 150.794 50.6723C151.312 50.3163 151.719 49.8225 151.969 49.248C152.248 48.6048 152.386 47.9104 152.375 47.2103C152.385 46.515 152.248 45.825 151.975 45.1849C151.735 44.6161 151.34 44.1249 150.835 43.7663ZM151.017 48.7633C150.862 49.1946 150.587 49.5733 150.224 49.8549C149.829 50.1123 149.367 50.2494 148.895 50.2494C148.424 50.2494 147.962 50.1123 147.567 49.8549C147.204 49.5777 146.929 49.2029 146.774 48.7752C146.429 47.7581 146.429 46.6569 146.774 45.6402C146.928 45.2182 147.201 44.8491 147.561 44.5776C147.946 44.3101 148.408 44.1748 148.878 44.1923C149.36 44.1748 149.835 44.314 150.23 44.5894C150.591 44.8705 150.866 45.2466 151.023 45.6753C151.198 46.1678 151.284 46.688 151.276 47.2103C151.286 47.7375 151.198 48.262 151.017 48.7576V48.7633Z" fill="white"/>
<path d="M158.14 50.9931H159.174V44.4317H163.153V50.9931H164.182V43.4448H158.14V50.9931Z" fill="white"/>
<path d="M171.981 43.7662C171.394 43.4151 170.719 43.2386 170.035 43.2583C169.361 43.2421 168.695 43.4142 168.113 43.7544C167.575 44.0928 167.145 44.5767 166.873 45.1498C166.589 45.8061 166.442 46.5132 166.442 47.2278C166.442 47.9428 166.589 48.6499 166.873 49.3062C167.138 49.8846 167.564 50.3749 168.102 50.7191C168.685 51.0711 169.359 51.2476 170.041 51.227C170.721 51.2441 171.391 51.0698 171.975 50.7248C172.515 50.3859 172.946 49.8995 173.215 49.3237C173.511 48.6669 173.657 47.9533 173.644 47.2339C173.656 46.522 173.509 45.8162 173.215 45.1673C172.948 44.5915 172.519 44.1051 171.981 43.7662ZM171.916 49.4056C171.68 49.6665 171.391 49.8754 171.067 50.0185C170.744 50.1613 170.395 50.2353 170.041 50.2353C169.687 50.2353 169.338 50.1613 169.015 50.0185C168.692 49.8754 168.403 49.6665 168.166 49.4056C167.718 48.7672 167.497 47.9992 167.538 47.2221C167.527 46.6919 167.619 46.1647 167.808 45.6691C167.967 45.2417 168.254 44.8726 168.631 44.6126C169.049 44.3455 169.539 44.2132 170.035 44.2329C170.391 44.208 170.748 44.2684 171.076 44.4098C171.403 44.5508 171.692 44.7689 171.916 45.0447C172.361 45.6818 172.58 46.4475 172.539 47.2221C172.574 47.99 172.355 48.7488 171.916 49.3819V49.4056Z" fill="white"/>
<path d="M184.704 47.3211C184.553 47.231 184.389 47.1657 184.217 47.1285C184.303 47.0865 184.385 47.0374 184.464 46.9827C184.551 46.9258 184.63 46.857 184.698 46.7782C184.849 46.6197 184.967 46.4332 185.045 46.2296C185.16 45.9039 185.195 45.5562 185.149 45.2143C185.103 44.8728 184.977 44.5466 184.781 44.262C184.526 43.9226 184.16 43.681 183.746 43.5789C183.538 43.5247 183.326 43.4896 183.112 43.4739C182.916 43.4638 182.72 43.4638 182.524 43.4739H179.391V50.9933H182.918C183.112 50.9933 183.318 50.9933 183.535 50.9933C183.733 50.9797 183.93 50.9486 184.122 50.8996C184.52 50.7897 184.871 50.5541 185.122 50.2284C185.382 49.858 185.513 49.4127 185.492 48.9617C185.502 48.6242 185.429 48.2896 185.28 47.9867C185.154 47.7161 184.955 47.4858 184.704 47.3211ZM180.437 44.3495H182.424H182.794C182.98 44.3596 183.164 44.3951 183.341 44.4546C183.572 44.5238 183.77 44.6731 183.899 44.8749C184.027 45.0864 184.092 45.329 184.087 45.5755C184.088 45.8106 184.028 46.0422 183.911 46.2471C183.794 46.4525 183.603 46.607 183.376 46.6788C183.247 46.7235 183.113 46.7528 182.976 46.7664C182.839 46.7743 182.702 46.7743 182.565 46.7664H180.437V44.3495ZM184.27 49.6036C184.205 49.71 184.12 49.8028 184.019 49.8759C183.918 49.9491 183.803 50.0016 183.682 50.0301C183.55 50.0594 183.417 50.0808 183.282 50.094C183.157 50.1014 183.031 50.1014 182.906 50.094H180.455V47.6596H183.076C183.189 47.664 183.301 47.6775 183.411 47.7008C183.709 47.7332 183.985 47.872 184.187 48.0917C184.287 48.2012 184.365 48.3291 184.416 48.4683C184.466 48.6075 184.488 48.7555 184.481 48.9031C184.479 49.1518 184.405 49.3947 184.27 49.6036Z" fill="white"/>
<path d="M189.412 44.6006C189.824 44.3357 190.308 44.203 190.799 44.2214C191.267 44.2122 191.728 44.3423 192.121 44.5949C192.509 44.8475 192.808 45.2153 192.973 45.6457L193.984 45.3248C193.785 44.6938 193.369 44.1522 192.809 43.795C192.217 43.4399 191.54 43.2463 190.849 43.2354C190.157 43.224 189.475 43.3952 188.871 43.731C188.338 44.0712 187.915 44.5581 187.655 45.1321C187.371 45.7876 187.225 46.4938 187.225 47.2075C187.225 47.9211 187.371 48.6269 187.655 49.2828C187.91 49.8594 188.329 50.3498 188.859 50.6953C189.444 51.0486 190.121 51.2251 190.805 51.2032C191.492 51.2229 192.169 51.0377 192.75 50.6721C193.313 50.3021 193.746 49.7675 193.99 49.1427L192.95 48.8332C192.785 49.253 192.497 49.6138 192.121 49.8665C191.727 50.1099 191.269 50.2316 190.805 50.2167C190.453 50.2399 190.101 50.1769 189.779 50.0333C189.457 49.8901 189.176 49.6703 188.96 49.3936C188.51 48.7565 188.28 47.9934 188.301 47.2162C188.298 46.6842 188.392 46.1562 188.577 45.6575C188.74 45.2289 189.032 44.8602 189.412 44.6006Z" fill="white"/>
<path d="M202.253 47.5022H202.811C202.854 46.7233 202.725 45.9443 202.435 45.2197C202.192 44.6247 201.772 44.1177 201.231 43.7661C200.657 43.4106 199.99 43.2315 199.315 43.2521C198.646 43.235 197.986 43.4049 197.411 43.7425C196.865 44.0735 196.43 44.5568 196.159 45.1322C195.85 45.8016 195.699 46.5324 195.718 47.2688C195.699 47.9886 195.852 48.7027 196.164 49.3529C196.444 49.923 196.882 50.4011 197.428 50.7304C198.028 51.0609 198.704 51.2299 199.389 51.2207C200.075 51.2115 200.746 51.0246 201.337 50.6778C201.923 50.3109 202.385 49.7785 202.665 49.1484L201.701 48.7807C201.489 49.2242 201.155 49.599 200.737 49.8608C200.308 50.1165 199.815 50.2461 199.315 50.2343C198.966 50.254 198.617 50.1927 198.296 50.0561C197.975 49.9195 197.69 49.7106 197.463 49.4462C197.05 48.8875 196.828 48.2128 196.829 47.5197H202.253V47.5022ZM197.463 44.9684C197.694 44.7022 197.982 44.4925 198.308 44.3559C198.633 44.2188 198.986 44.1588 199.338 44.1803C199.67 44.1606 200.002 44.218 200.309 44.3476C200.615 44.4772 200.886 44.6759 201.101 44.9277C201.46 45.4316 201.664 46.0275 201.689 46.644H196.817C196.861 46.0345 197.086 45.4513 197.463 44.9684Z" fill="white"/>
<path d="M207.307 42.3068C207.585 42.467 207.9 42.552 208.222 42.552C208.542 42.552 208.858 42.467 209.135 42.3068C209.407 42.1478 209.633 41.9228 209.793 41.6526C209.955 41.3785 210.038 41.0659 210.035 40.748H209.176C209.178 40.8724 209.153 40.9959 209.106 41.111C209.059 41.2266 208.989 41.3313 208.9 41.4193C208.811 41.5081 208.706 41.5786 208.589 41.6268C208.472 41.6745 208.348 41.6995 208.222 41.6995C208.095 41.6995 207.97 41.6745 207.854 41.6268C207.737 41.5786 207.631 41.5081 207.543 41.4193C207.454 41.3313 207.384 41.2266 207.337 41.111C207.289 40.9959 207.266 40.8724 207.266 40.748H206.403C206.4 41.0664 206.486 41.379 206.649 41.6526C206.809 41.9228 207.036 42.1478 207.307 42.3068Z" fill="white"/>
<path d="M206.067 49.2711V43.4448H205.062V50.9931H205.932L210.099 45.1147V50.9931H211.104V43.4448H210.24L206.067 49.2711Z" fill="white"/>
<path d="M223.27 41.5302C222.874 41.2343 222.409 41.0451 221.918 40.9816C221.794 40.9593 221.668 40.9453 221.542 40.9409C221.419 40.9409 221.307 40.9409 221.213 40.9409H217.299V50.9937H218.333V47.1696H221.213H221.542C221.671 47.1696 221.795 47.1696 221.918 47.1232C222.408 47.0636 222.873 46.874 223.264 46.5741C223.63 46.2895 223.919 45.9183 224.104 45.4944C224.298 45.0421 224.396 44.5553 224.392 44.064C224.399 43.5688 224.301 43.0776 224.104 42.6222C223.923 42.194 223.636 41.8188 223.27 41.5302ZM223.164 44.934C223.057 45.2195 222.886 45.4769 222.664 45.6871C222.422 45.9025 222.126 46.0496 221.806 46.1131C221.698 46.135 221.588 46.1503 221.477 46.1599C221.379 46.1652 221.281 46.1652 221.183 46.1599H218.333V41.9155H221.477C221.588 41.9252 221.698 41.9405 221.806 41.9624C222.126 42.0228 222.423 42.1704 222.664 42.3884C222.886 42.5986 223.057 42.856 223.164 43.1415C223.274 43.4309 223.33 43.7374 223.328 44.0465C223.329 44.3499 223.273 44.6507 223.164 44.934Z" fill="white"/>
<path d="M231.621 43.7661C231.036 43.4127 230.36 43.2363 229.676 43.2582C229.003 43.242 228.339 43.414 227.76 43.7542C227.219 44.0848 226.782 44.5603 226.502 45.1264C226.217 45.7827 226.07 46.4898 226.07 47.2044C226.07 47.9194 226.217 48.6265 226.502 49.2828C226.77 49.8603 227.198 50.3503 227.736 50.6957C228.318 51.0469 228.989 51.2229 229.669 51.2036C230.349 51.2211 231.02 51.0473 231.603 50.7014C232.144 50.3625 232.574 49.8761 232.843 49.3003C233.125 48.6431 233.269 47.936 233.269 47.2219C233.269 46.5078 233.125 45.8011 232.843 45.1439C232.574 44.58 232.15 44.1023 231.621 43.7661ZM231.562 49.4054C231.325 49.6668 231.036 49.8756 230.714 50.0184C230.391 50.1615 230.041 50.2351 229.687 50.2351C229.334 50.2351 228.984 50.1615 228.661 50.0184C228.338 49.8756 228.049 49.6668 227.812 49.4054C227.362 48.7679 227.139 47.9995 227.178 47.2219C227.167 46.6921 227.259 46.165 227.448 45.6693C227.609 45.2424 227.896 44.8742 228.271 44.6124C228.689 44.3462 229.179 44.214 229.676 44.2332C230.032 44.207 230.389 44.2669 230.717 44.4084C231.044 44.5498 231.333 44.7678 231.556 45.0445C232.001 45.682 232.22 46.4478 232.179 47.2219C232.212 47.989 231.996 48.7465 231.562 49.3822V49.4054Z" fill="white"/>
<path d="M237.298 44.6011C237.707 44.3546 238.175 44.2242 238.653 44.2242C239.131 44.2242 239.599 44.3546 240.007 44.6011C240.395 44.8538 240.694 45.2216 240.86 45.6519L241.871 45.3306C241.671 44.6997 241.255 44.1585 240.695 43.8012C240.103 43.4457 239.427 43.2526 238.735 43.2412C238.043 43.2303 237.361 43.401 236.758 43.7369C236.222 44.0744 235.798 44.5617 235.541 45.1379C235.254 45.7929 235.106 46.4992 235.106 47.2133C235.106 47.9274 235.254 48.6341 235.541 49.2886C235.795 49.8666 236.214 50.3578 236.746 50.7015C237.331 51.0549 238.007 51.2313 238.691 51.2094C239.378 51.2287 240.056 51.0439 240.636 50.6783C241.199 50.3079 241.632 49.7737 241.876 49.1485L240.836 48.8394C240.674 49.2558 240.389 49.6135 240.019 49.8666C239.624 50.1083 239.166 50.23 238.703 50.2168C238.351 50.24 237.998 50.177 237.677 50.0338C237.355 49.8902 237.074 49.6704 236.857 49.3937C236.417 48.754 236.194 47.9909 236.223 47.2163C236.217 46.6844 236.311 46.1559 236.499 45.6576C236.651 45.2329 236.93 44.8643 237.298 44.6011Z" fill="white"/>
<path d="M245.579 44.6006C245.991 44.3357 246.475 44.203 246.966 44.2214C247.434 44.2122 247.895 44.3423 248.288 44.5949C248.676 44.8475 248.975 45.2153 249.14 45.6457L250.152 45.3248C249.952 44.6938 249.536 44.1522 248.976 43.795C248.384 43.4399 247.707 43.2463 247.016 43.2354C246.324 43.224 245.642 43.3952 245.038 43.731C244.505 44.0712 244.082 44.5581 243.822 45.1321C243.535 45.7867 243.387 46.4933 243.387 47.2075C243.387 47.9216 243.535 48.6278 243.822 49.2828C244.078 49.8594 244.496 50.3498 245.027 50.6953C245.612 51.0486 246.288 51.2251 246.972 51.2032C247.659 51.2229 248.336 51.0377 248.917 50.6721C249.48 50.3021 249.913 49.7675 250.157 49.1427L249.117 48.8332C248.953 49.253 248.664 49.6138 248.288 49.8665C247.894 50.1099 247.436 50.2316 246.972 50.2167C246.62 50.2399 246.268 50.1769 245.946 50.0333C245.624 49.8901 245.343 49.6703 245.126 49.3936C244.686 48.7539 244.463 47.9908 244.491 47.2162C244.489 46.6842 244.583 46.1562 244.768 45.6575C244.925 45.2319 245.207 44.8637 245.579 44.6006Z" fill="white"/>
<path d="M253.307 49.2711V43.4448H252.296V50.9931H253.172L257.339 45.1147V50.9931H258.344V43.4448H257.48L253.307 49.2711Z" fill="white"/>
<path d="M266.19 43.4448L262.017 49.2711V43.4448H261.012V50.9931H261.882L266.049 45.1147V50.9931H267.054V43.4448H266.19Z" fill="white"/>
</g>
<defs>
<linearGradient id="paint0_linear_106_289" x1="15.0336" y1="47.3443" x2="46.4563" y2="9.64092" gradientUnits="userSpaceOnUse">
<stop stop-color="#FFD16C"/>
<stop offset="0.22" stop-color="#FFC861"/>
<stop offset="0.61" stop-color="#FFB145"/>
<stop offset="1" stop-color="#FF9522"/>
</linearGradient>
<linearGradient id="paint1_linear_106_289" x1="11.0601" y1="48.4721" x2="33.7971" y2="21.1939" gradientUnits="userSpaceOnUse">
<stop stop-color="#FFD16C"/>
<stop offset="0.22" stop-color="#FFC861"/>
<stop offset="0.61" stop-color="#FFB145"/>
<stop offset="1" stop-color="#FF9522"/>
</linearGradient>
<clipPath id="clip0_106_289">
<rect width="268" height="55" fill="white"/>
</clipPath>
</defs>
</svg>
